<?xml version="1.0" encoding="UTF-8"?>
<!-- Generator: visioncortex VTracer 0.6.12 -->
<svg version="1.1" xmlns="http://www.w3.org/2000/svg" width="300" height="300">
<path d="M0 0 C6.519131908710563 5.668241197734297 9.348269240944205 12.052956823615787 10.28125 20.56640625 C9.914312208505692 23.741437418068756 8.867231993109556 24.575555000652976 6.5625 26.75 C-15.948275176626453 51.00764309156749 -19.109271186606748 89.70346253620141 -21 121 C-16.05000000000001 121.32999999999998 -11.099999999999994 121.66 -6 122 C-6.061874999999986 119.99937499999999 -6.123750000000001 117.99875 -6.1875 115.9375 C-6.4150738506519644 90.19831396856881 -0.6246551214137526 63.9602360497321 13 42 C16.37337410172131 42.57913183463097 17.950053555796785 43.59554469187276 20.28515625 46.0703125 C20.892949218750005 46.711943359375 21.50074218750001 47.35357421875 22.126953125 48.0146484375 C22.765683593749998 48.711064453125005 23.404414062499995 49.40748046875001 24.0625 50.125 C24.394111328125007 50.4835205078125 24.394111328125007 50.4835205078125 26.072265625 52.2978515625 C46.53164886314272 74.77949784973592 59.99761857877067 100.24585438150876 58.9228515625 131.2236328125 C57.720918449990364 150.62125406621402 51.01086025116959 171.9891397488304 37 186 C37.63357421875 186.1456640625 37.63357421875 186.1456640625 40.83984375 186.8828125 C52.74644463276289 189.73600173713757 62.71383346335605 192.49934822660134 70 203 C76.398612860571 216.02574760901953 74 225.96683457881272 74 242 C15.590000000000003 242 -42.82000000000001 242 -103 242 C-103 207.25854214123007 -103 207.25854214123007 -93.75 197.25 C-85.87837253514897 189.97245762683585 -76.1590658801715 188.3178451280003 -66 186 C-66.580078125 185.20078125 -67.16015625 184.4015625 -67.7578125 183.578125 C-83.01907775710976 162.25622854981793 -90.49417486048719 137.61431086107322 -86.34765625 111.34375 C-84.39704432581796 100.92149419204225 -80.75969758932473 91.44064113373818 -76 82 C-75.414765625 80.82953125 -74.82953125 79.6590625 -74.2265625 78.453125 C-65.16531213484966 61.55408423461412 -51.686148976145134 48.2050242149502 -38 35 C-38.21148681640625 34.40759521484375 -38.4229736328125 33.8151904296875 -38.640869140625 33.204833984375 C-41.74496461554779 24.262451511123693 -42.273224434270944 17.16292514153634 -38.328125 8.328125 C-34.11341473178916 0.9399858239598373 -28.54809473864941 -2.200617922600191 -20.6875 -4.75 C-13.218182373972127 -5.444820244281665 -6.1769808942158875 -4.4212830051960275 0 0 Z " fill="#262626" transform="translate(162,30)"/>
<path d="M0 0 C3.644231298400314 3.0958275593206395 6.282833684537991 7.063053274043206 6.95703125 11.8203125 C6.503307355985726 15.14422237525067 5.22806674025091 16.59243893257821 3.109375 19.1796875 C-2.1348019762531862 26.076012267001957 -5.80259245390755 33.50585872718108 -9.390625 41.3671875 C-9.853398437500005 42.3687890625 -10.316171875000009 43.370390625 -10.79296875 44.40234375 C-21.204669035601512 69.11765784649177 -23.26810314796944 96.87567179207849 -24.390625 123.3671875 C-14.490624999999994 123.3671875 -4.590624999999989 123.3671875 5.609375 123.3671875 C5.547500000000014 120.5621875 5.485624999999999 117.75718749999999 5.421875 114.8671875 C5.270840941629132 91.69507754456212 8.798099191119718 68.0609353541111 19.609375 47.3671875 C37.50765092750635 61.83813399457959 52.91491088599568 85.03120365549833 55.609375 108.3671875 C57.3922845121898 133.85288847146873 52.42708759824657 155.7959338505888 36.351346015930176 175.9438934326172 C33.532183435609966 179.12643560101063 32.09390976924328 180.26692167194392 27.797409057617188 181.156005859375 C26.34958273385672 181.2033880432725 24.900460350137394 181.2184984066455 23.451904296875 181.20703125 C22.655938415527345 181.22397033691405 21.85997253417969 181.24090942382813 21.039886474609375 181.25836181640625 C18.420463804258134 181.30498541064716 15.803399156279397 181.30714957850222 13.18359375 181.3046875 C11.352839884813022 181.3189004263442 9.522094881908288 181.3342998473792 7.6913604736328125 181.350830078125 C3.8572208511554607 181.37769386630993 0.023904531371954363 181.3808711514927 -3.810302734375 181.369140625 C-8.707365327818707 181.3573610285161 -13.600452848377927 181.41846224425728 -18.49674701690674 181.49937438964844 C-22.277796497396366 181.55126464143228 -26.05789795726747 181.5568716093778 -29.83925437927246 181.54959106445313 C-31.64333255250928 181.55296248216922 -33.44745711812372 181.57214331058373 -35.25118446350098 181.60787963867188 C-49.29167976671363 181.85541339243628 -49.29167976671363 181.85541339243628 -54.469024658203125 178.1844940185547 C-56.75646326231258 175.68443278377651 -58.60504974086338 173.2405660797157 -60.390625 170.3671875 C-60.83003921508789 169.74713333129884 -61.26945343017579 169.12707916259765 -61.72218322753906 168.4882354736328 C-73.51386082921543 151.3220182883835 -78.02604091928526 128.63860228286816 -75.06982421875 108.14306640625 C-71.37269162922156 88.53433766591994 -61.62303108399445 70.16175263557713 -48.390625 55.3671875 C-47.64812499999999 54.51640625 -46.905625 53.665625000000006 -46.140625 52.7890625 C-39.43154237752874 45.19475369817489 -32.49895763772521 37.497878030962966 -24.390625 31.3671875 C-23.730625000000003 31.3671875 -23.070625000000007 31.3671875 -22.390625 31.3671875 C-22.390625 30.37718749999999 -22.390625 29.38718750000001 -22.390625 28.3671875 C-23.050624999999997 28.3671875 -23.710624999999993 28.3671875 -24.390625 28.3671875 C-28.72741004762048 22.453389707790272 -30.436632645299994 17.63047654264487 -29.390625 10.3671875 C-26.764806619614376 4.1567456874697015 -22.693410412496803 -0.09151264083482857 -16.578125 -2.9453125 C-10.534752273783738 -4.2487850487917385 -5.1917459351643345 -3.2627027207225368 0 0 Z " fill="#555251" transform="translate(157.390625,35.6328125)"/>
<path d="M0 0 C1.3860324192100961 -0.003229668586754997 2.7720645283190493 -0.006594871573952332 4.1580963134765625 -0.0100860595703125 C7.048195253350144 -0.016024732981179568 9.938264545566255 -0.017931649736596 12.828369140625 -0.017333984375 C15.741844269209878 -0.017253103937264314 18.655160888363866 -0.024143251947009503 21.568603515625 -0.037841796875 C75.69494551517383 -0.2881623738918506 75.69494551517383 -0.2881623738918506 92.09765625 9.91796875 C101.09599637481139 19.17340430694884 99.28515625 30.714937724435487 99.28515625 43.16796875 C45.49515625000001 43.16796875 -8.294843749999998 43.16796875 -63.71484375 43.16796875 C-63.71484375 19.834635416666657 -63.71484375 19.834635416666657 -57.71484375 12.16796875 C-44.05162301668068 -1.4952519833193207 -17.85999475051166 0.015458717340607109 0 0 Z " fill="#555251" transform="translate(129.71484375,221.83203125)"/>
<path d="M0 0 C3.3687064263000366 3.910105673383981 5.725396523273275 7.909396477569487 8 12.5 C8.348127441406234 13.199074707031258 8.696254882812497 13.898149414062502 9.054931640625 14.618408203125 C19.744151683272065 36.670086450786755 19.299963549307193 60.312613908415045 11.9375 83.3203125 C8.922104157039541 91.34042783231848 4.295857210896088 98.30408858392448 -1 105 C-1.4116288757324185 105.52579650878906 -1.823257751464837 106.05159301757811 -2.2473602294921875 106.59332275390625 C-4.265169554420368 108.90399248569759 -5.887222954498924 110.71913017874232 -8.924484252929688 111.48574829101563 C-11.132703930815893 111.59673710326234 -13.255368030102375 111.52124880447906 -15.4609375 111.3671875 C-16.25150543212891 111.33650177001954 -17.042073364257817 111.30581604003908 -17.856597900390625 111.27420043945313 C-20.36504351496572 111.17018210945065 -22.868821857342454 111.0233002628124 -25.375 110.875 C-27.08190297195685 110.79663336763167 -28.78893769455283 110.72108243852966 -30.49609375 110.6484375 C-34.66629284237524 110.46484968213232 -38.832847049884236 110.24281448043425 -43 110 C-39.96806808969782 107.67647091496548 -36.92178519657773 105.82322127358356 -33.5625 104 C-15.471144676432402 93.47612623251007 -1.917996732322905 77.39369045478713 3.875 57.0625 C7.004871943364947 44.562821542637465 6.898669002992619 31.571545791908193 4.6875 18.9375 C4.569873046874989 18.260258789062505 4.452246093750006 17.583017578124995 4.3310546875 16.88525390625 C3.6475323254046828 13.335657598744774 2.702733376871123 10.063814437142753 1.39453125 6.69140625 C0 3 0 3 0 0 Z " fill="#454242" transform="translate(196,105)"/>
<path d="M0 0 C1.3860324192100961 -0.003229668586754997 2.7720645283190493 -0.006594871573952332 4.1580963134765625 -0.0100860595703125 C7.048195253350116 -0.016024732981179568 9.938264545566255 -0.017931649736596 12.828369140625 -0.017333984375 C15.741844269209821 -0.017253103937264314 18.655160888363923 -0.024143251947009503 21.568603515625 -0.037841796875 C76.45921153962044 -0.2916969100375866 76.45921153962044 -0.2916969100375866 92.22265625 10.10546875 C94.48155523920545 12.364367739205449 95.19690384841022 14.205774993206262 96.28515625 17.16796875 C95.31062499999999 16.902421875000016 94.33609375 16.636875000000003 93.33203125 16.36328125 C84.20590080915167 14.027995478252677 75.1846666389508 12.697048070256699 65.7890625 12.05078125 C65.18821083068849 12.009017639160163 65.18821083068849 12.009017639160163 62.14753723144531 11.79766845703125 C48.08996863873247 10.910682071835708 34.03679297973406 10.86392141770861 19.956298828125 10.9072265625 C16.207590729048206 10.918672375353623 12.459165108037666 10.91180114301602 8.710466384887695 10.900345802307129 C-40.529156013023425 10.772739504341132 -40.529156013023425 10.772739504341132 -59.71484375 17.16796875 C-58.359566347595205 12.424497841583218 -55.765818357513425 9.795627954873567 -51.71484375 7.16796875 C-36.180932002238436 -0.3113220915148247 -16.827543339872236 0.014565079086622745 0 0 Z " fill="#757272" transform="translate(129.71484375,221.83203125)"/>
<path d="M0 0 C0.6599999999999966 0.2887499999999932 1.3199999999999932 0.5775000000000006 2 0.875 C-0.5578248913747643 3.451461138306442 -3.128036328451117 5.996516798289548 -5.76171875 8.49609375 C-34.42628419720775 35.879207435756854 -46.79717308510271 74.47813736805804 -52 112.875 C-57.25557318099639 107.61942681900359 -56.274059137539524 96.73810928657605 -56.375 89.625 C-56.34881473278935 65.62977331969603 -44.76333525035285 42.499284550741734 -29 24.875 C-28.257499999999993 24.024218750000003 -27.515 23.173437500000006 -26.75 22.296875 C-6.801775147928993 -0.28340729783037943 -6.801775147928993 -0.28340729783037943 0 0 Z " fill="#757272" transform="translate(138,66.125)"/>
<path d="M0 0 C3.064770587073923 1.3070345150756424 4.621104852032261 2.3972947947085217 6.25 5.3125 C6.585156250000011 5.886132812500001 6.920312499999994 6.459765625000003 7.265625 7.05078125 C8.22391721959761 9.594333471166003 8.345244806740482 11.295582347199613 8 14 C6.53125 16.332031250000014 6.53125 16.332031250000014 4.5 18.8125 C-0.7441769762531578 25.708824767001957 -4.411967453907522 33.13867122718108 -8 41 C-8.462773437500005 42.0016015625 -8.925546875000009 43.003203125 -9.40234375 44.03515625 C-19.658141409739756 68.38038839436628 -21.94466241119062 95.87129693913346 -23 122 C-29.153699275452283 116.67195429609686 -30.755176012606043 108.15899905550168 -31.75 100.3125 C-31.85129744987873 98.87615410812975 -31.93473531769773 97.43843359794204 -32 96 C-32.06316406249999 95.2587890625 -32.126328125 94.517578125 -32.19140625 93.75390625 C-33.23163477359634 73.31844912515587 -20.13399106744515 53.52313697165904 -10.625 36.375 C-3.8811934864894226 24.154794419327487 1.0584414576216545 14.371282902373785 0 0 Z " fill="#454242" transform="translate(156,36)"/>
<path d="M0 0 C-0.5078906250000159 0.31710937500000114 -1.0157812500000034 0.6342187500000023 -1.5390625 0.9609375 C-7.56915935656059 5.048755968305116 -10.576026271509022 9.664558164798542 -14 16 C-14.659999999999997 16.989999999999995 -15.319999999999993 17.980000000000004 -16 19 C-17 18 -17 18 -17.375 15.4375 C-16.736168522941313 9.581544793628765 -13.625358217086557 5.509261201580372 -9.375 1.5625 C-5.868069601538366 -0.7446910516195047 -3.9448176371396926 -1.2242537494571408 0 0 Z " fill="#737070" transform="translate(145,34)"/>
</svg>
