<?xml version="1.0" encoding="UTF-8"?>
<!-- Generator: visioncortex VTracer 0.6.12 -->
<svg version="1.1" xmlns="http://www.w3.org/2000/svg" width="300" height="300">
<path d="M0 0 C12.210000000000008 0 24.420000000000016 0 37 0 C37 6.600000000000001 37 13.200000000000003 37 20 C43.599999999999994 20 50.19999999999999 20 57 20 C57 32.54 57 45.08 57 58 C54.19499999999999 58.16499999999999 54.19499999999999 58.16499999999999 40 59 C40.33000000000001 61.97 40.66 64.94 41 68 C41.49628906250001 67.8311328125 41.49628906250001 67.8311328125 44.0078125 66.9765625 C64.43111795932282 60.19917453488196 85.17022741732612 57.74863815478608 105.25 67.125 C118.89786989645049 74.41507160202339 127.84728646775011 85.12353112186909 132.99609375 99.65234375 C138.09530157732945 116.65631693296251 136.2516749829498 132.87896961714964 128.3125 148.625 C125.56719702234625 153.4431453774479 122.2547611687643 157.40797674518524 118.44140625 161.41796875 C116.46710915213572 163.50598536070126 114.58977312943861 165.62620803681796 112.71875 167.8046875 C108.38033559350089 172.79161875285308 103.64687444959051 177.34603588596406 98.873046875 181.912109375 C94.15163481516586 186.533741352878 90.45293496935409 191.3690975446607 87 197 C87.70616455078124 197.38841064453126 88.4123291015625 197.7768212890625 89.139892578125 198.177001953125 C97.13178892231608 202.63264708067035 102.40429249212562 207.1589718107601 105.45703125 215.91015625 C108.3706123757876 227.12429943198822 107 236.54084340074883 107 249 C48.59 249 -9.820000000000007 249 -70 249 C-70 213.81290322580645 -70 213.81290322580645 -61 204 C-53.73291925465837 198 -53.73291925465837 198 -49 198 C-54.28747208665854 189.70135736907488 -60.71791193561717 183.02262160215935 -67.743896484375 176.191650390625 C-72.41089730094916 171.64846251738362 -76.77728691671726 166.95775017415613 -81 162 C-81.3609375 161.5913671875 -81.3609375 161.5913671875 -83.1875 159.5234375 C-96.06933750410704 144.2540180447007 -99.14538152509945 128.49486105985613 -98 109 C-96.3746149721959 95.46497558664959 -89.02287509456066 83.0797337379752 -79 74 C-64.20668598246428 62.73715477435056 -47.59734371442207 59.1935621778571 -29.30078125 61.5703125 C-20.983278540816585 62.76098047213361 -12.964673088325682 64.25806336303542 -5 67 C-4.340000000000003 64.36 -3.680000000000007 61.72 -3 59 C-8.61 58.67 -14.219999999999999 58.34 -20 58 C-20 45.46000000000001 -20 32.92 -20 20 C-13.400000000000006 20 -6.799999999999997 20 0 20 C0 13.399999999999999 0 6.799999999999997 0 0 Z M-39.66796875 115.375 C-41.991688575121586 118.20980189809552 -42.19023690812176 121.47077735967235 -42 125 C-39.710231777242456 130.62034018313216 -35.81676517651057 134.68645112528537 -31.69921875 139.08984375 C-29.668811321815582 141.27892267040144 -27.71009503105583 143.48772534936754 -25.76953125 145.75390625 C-24.638311611876517 147.0445257567757 -23.50680271349833 148.33489178800227 -22.375 149.625 C-21.849143066406242 150.25349853515624 -21.3232861328125 150.8819970703125 -20.781494140625 151.529541015625 C-20.263210449218747 152.11018310546876 -19.744926757812493 152.6908251953125 -19.2109375 153.2890625 C-18.760249023437495 153.8119384765625 -18.309560546875005 154.334814453125 -17.84521484375 154.87353515625 C-16 156 -16 156 -9 156 C-9 143.46 -9 130.92 -9 118 C-30.07161803713528 107.46419098143235 -30.07161803713528 107.46419098143235 -39.66796875 115.375 Z M58.1875 112.25 C57.3766796875 112.48203125 56.565859375 112.71406250000001 55.73046875 112.953125 C53 114 53 114 46 118 C46 130.54 46 143.07999999999998 46 156 C54 156 54 156 55.890625 154.70703125 C56.339218749999986 154.0818359375 56.7878125 153.456640625 57.25 152.8125 C59.8478922409879 149.44419833582256 62.53325654810581 146.3185666066045 65.46484375 143.243408203125 C78.30350644088657 129.73573818069926 78.30350644088657 129.73573818069926 79.6875 122.3125 C78.7781059977288 117.93087435269325 77.29275649529953 116.01252189995489 74 113 C68.40233265468646 110.8394968140895 63.91468221282378 110.55439329762066 58.1875 112.25 Z " fill="#555251" transform="translate(132,23)"/>
<path d="M0 0 C12.210000000000008 0 24.420000000000016 0 37 0 C37 6.600000000000001 37 13.200000000000003 37 20 C43.599999999999994 20 50.19999999999999 20 57 20 C57 32.54 57 45.08 57 58 C54.19499999999999 58.16499999999999 54.19499999999999 58.16499999999999 40 59 C40.33000000000001 61.97 40.66 64.94 41 68 C41.49628906250001 67.8311328125 41.49628906250001 67.8311328125 44.0078125 66.9765625 C64.43111795932282 60.19917453488196 85.17022741732612 57.74863815478608 105.25 67.125 C118.89786989645049 74.41507160202339 127.84728646775011 85.12353112186909 132.99609375 99.65234375 C138.09530157732945 116.65631693296251 136.2516749829498 132.87896961714964 128.3125 148.625 C125.56719702234625 153.4431453774479 122.2547611687643 157.40797674518524 118.44140625 161.41796875 C116.46710915213572 163.50598536070126 114.58977312943861 165.62620803681796 112.71875 167.8046875 C108.38033559350089 172.79161875285308 103.64687444959051 177.34603588596406 98.873046875 181.912109375 C94.15163481516586 186.533741352878 90.45293496935409 191.3690975446607 87 197 C87.70616455078124 197.38841064453126 88.4123291015625 197.7768212890625 89.139892578125 198.177001953125 C97.13178892231608 202.63264708067035 102.40429249212562 207.1589718107601 105.45703125 215.91015625 C108.3706123757876 227.12429943198822 107 236.54084340074883 107 249 C48.59 249 -9.820000000000007 249 -70 249 C-70 213.81290322580645 -70 213.81290322580645 -61 204 C-53.73291925465837 198 -53.73291925465837 198 -49 198 C-54.28747208665854 189.70135736907488 -60.71791193561717 183.02262160215935 -67.743896484375 176.191650390625 C-72.41089730094916 171.64846251738362 -76.77728691671726 166.95775017415613 -81 162 C-81.3609375 161.5913671875 -81.3609375 161.5913671875 -83.1875 159.5234375 C-96.06933750410704 144.2540180447007 -99.14538152509945 128.49486105985613 -98 109 C-96.3746149721959 95.46497558664959 -89.02287509456066 83.0797337379752 -79 74 C-64.20668598246428 62.73715477435056 -47.59734371442207 59.1935621778571 -29.30078125 61.5703125 C-20.983278540816585 62.76098047213361 -12.964673088325682 64.25806336303542 -5 67 C-4.340000000000003 64.36 -3.680000000000007 61.72 -3 59 C-8.61 58.67 -14.219999999999999 58.34 -20 58 C-20 45.46000000000001 -20 32.92 -20 20 C-13.400000000000006 20 -6.799999999999997 20 0 20 C0 13.399999999999999 0 6.799999999999997 0 0 Z M7 7 C7 13.600000000000001 7 20.200000000000003 7 27 C0.4000000000000057 27 -6.200000000000003 27 -13 27 C-13 34.59 -13 42.18000000000001 -13 50 C-6.400000000000006 50 0.19999999999998863 50 7 50 C6.381249999999994 52.22749999999999 5.762499999999989 54.455 5.125 56.75 C3.304422374575637 63.441395451893186 1.972430890319231 70.12900805129694 1 77 C0.056406250000009095 76.6738671875 -0.8871874999999818 76.347734375 -1.859375 76.01171875 C-3.156163639941667 75.57005885088944 -4.453043725081329 75.1286673878622 -5.75 74.6875 C-6.364882812499999 74.47416015625 -6.979765624999999 74.2608203125 -7.61328125 74.041015625 C-17.897853276496335 70.56088266653911 -27.53954540715668 68.4553263718994 -38.4375 68.5625 C-39.5320751953125 68.57079833984375 -40.626650390625 68.5790966796875 -41.75439453125 68.587646484375 C-55.416228639280206 68.8733270457946 -66.70714612641615 72.45813674695265 -77.02734375 81.84375 C-88.07809926728085 93.64411913005044 -91.3777100164258 107.39173848285358 -91.20703125 123.15625 C-90.04455164845935 144.7388901493585 -75.05249145263292 158.05266480040333 -60.661376953125 172.25439453125 C-57.27172923801926 175.63225305877862 -54.10480584916091 179.11170848885627 -51.0625 182.8125 C-50.340625 183.6890625 -49.618750000000006 184.565625 -48.875 185.46875 C-47 188 -47 188 -45.75 190.53125 C-44.37125592602061 193.179889931592 -43.59110506604449 194.4763737905655 -41 196 C-36.615916633402065 196.08992991521225 -32.59211108942415 195.57828082099016 -28.2890625 194.81640625 C-12.978018687575997 192.2311112228258 2.842511318552738 192.802557404152 18.3125 192.8125 C19.462535095214832 192.81177490234376 20.612570190429693 192.8110498046875 21.797454833984375 192.810302734375 C37.01757737320665 192.81136376751732 52.082518190470296 193.08546086818956 67.23828125 194.5625 C67.65194946289063 194.60040649414063 67.65194946289063 194.60040649414063 69.745361328125 194.792236328125 C71.79982497801669 194.98155398552163 73.85311886833026 195.1834587679647 75.90625 195.38671875 C79 195 79 195 81.23046875 192.83203125 C81.8762890625 191.8355859375 82.52210937500001 190.839140625 83.1875 189.8125 C83.95191164188569 188.6973935239318 84.72303582646089 187.58686573311968 85.5 186.48046875 C85.9034765625 185.9034521484375 86.306953125 185.326435546875 86.72265625 184.73193359375 C88.84883958471727 181.8490695691926 91.24373922064612 179.2395914475529 93.6875 176.625 C93.93620849609374 176.357841796875 93.93620849609374 176.357841796875 95.19482421875 175.005859375 C98.54009726272463 171.45473961484518 101.99194237754557 168.0241022728788 105.47802734375 164.61181640625 C117.44899363594524 152.87026442681443 128.08450296930965 139.387604936146 128.32958984375 121.86181640625 C128.32677001953124 121.51336669921875 128.32677001953124 121.51336669921875 128.3125 119.75 C128.30968017578124 119.38028076171875 128.30968017578124 119.38028076171875 128.29541015625 117.50927734375 C127.98556465135357 103.36375632318 122.89660001260643 91.34484619665457 113.203125 81.00390625 C107.46430606190236 75.7840230669431 100.44767030822584 72.11597362028098 93 70 C92.2381640625 69.78343749999999 91.47632812500001 69.56687500000001 90.69140625 69.34375 C72.32238018601919 65.09399054531951 52.685730239873436 70.28917011642213 36 78 C35.91750000000002 76.865625 35.83499999999998 75.73125 35.75 74.5625 C35.213100363824594 69.63565627980199 34.136256798669024 64.87842620861896 33 60.0625 C32.82178710937501 59.30461181640625 32.64357421875002 58.5467236328125 32.4599609375 57.765869140625 C31.136264534883708 52.272529069767415 31.136264534883708 52.272529069767415 30 50 C36.599999999999994 50 43.19999999999999 50 50 50 C50 42.41 50 34.82 50 27 C43.400000000000006 27 36.80000000000001 27 30 27 C30 20.4 30 13.799999999999997 30 7 C22.409999999999997 7 14.819999999999993 7 7 7 Z " fill="#272626" transform="translate(132,23)"/>
<path d="M0 0 C3.671880092817503 0.010732212307942746 7.343271172848944 0.000025340956824493333 11.01513671875 -0.0126953125 C66.65649983599863 -0.04554640496175466 66.65649983599863 -0.04554640496175466 80.55029296875 12.3857421875 C86.16850712736658 22.32565954505239 85.17529296875 31.636608318360288 85.17529296875 43.2607421875 C31.385292968750008 43.2607421875 -22.40470703125 43.2607421875 -77.82470703125 43.2607421875 C-77.82470703125 19.39587732263513 -77.82470703125 19.39587732263513 -71.82470703125 12.2607421875 C-71.42251953125 11.747695312500014 -71.02033203125 11.234648437499999 -70.60595703125 10.7060546875 C-56.46593688398892 -4.411732810369557 -18.40808685746535 -0.06377218631499204 0 0 Z " fill="#555251" transform="translate(146.82470703125,221.7392578125)"/>
<path d="M0 0 C3.671880092817503 0.010732212307942746 7.343271172848944 0.000025340956824493333 11.01513671875 -0.0126953125 C64.95066832369301 -0.04453926880270842 64.95066832369301 -0.04453926880270842 78.17529296875 10.2607421875 C81.17529296875 13.773101738061797 81.17529296875 13.773101738061797 81.17529296875 16.2607421875 C76.83538974300683 15.734079485659521 72.5053207983045 15.172211164011685 68.17919921875 14.5419921875 C67.28910156250001 14.414375000000007 66.39900390624999 14.286757812500014 65.48193359375 14.1552734375 C63.68694395043468 13.897203752126558 61.892630533946374 13.634374451134107 60.09912109375 13.3662109375 C42.606165848996966 10.890438858542808 24.976521332630796 11.072809804782992 7.349609375 11.075439453125 C4.580987716752986 11.075520352568589 1.8125328110367036 11.068620881550402 -0.9560546875 11.054931640625 C-24.0973059002513 10.942403643137851 -47.13349603086675 11.272096552993617 -69.82470703125 16.2607421875 C-71.49077132736024 16.597073348880542 -73.15720182642983 16.93162931812759 -74.82470703125 17.2607421875 C-71.71323191171119 11.037791948422381 -67.98221802089617 7.364792157683809 -61.39501953125 5.0615234375 C-41.60519741151836 -0.40211460832159673 -20.347575596280308 -0.07049126788851368 0 0 Z " fill="#767373" transform="translate(146.82470703125,221.7392578125)"/>
<path d="M0 0 C2.6898300805023325 1.9989994040891474 5.088544184914383 4.100262934914383 7.45703125 6.46875 C7.697540283203125 8.455596923828125 7.697540283203125 8.455596923828125 7.68408203125 10.91845703125 C7.683930969238276 11.839260559082021 7.683779907226551 12.76006408691407 7.683624267578125 13.708770751953125 C7.678462982177734 14.206706390380873 7.678462982177734 14.206706390380873 7.65234375 16.7265625 C7.649513854980455 17.744750671386726 7.646683959960939 18.76293884277345 7.643768310546875 19.811981201171875 C7.6325489530684365 23.072689004031872 7.607441209356182 26.33312483808919 7.58203125 29.59375 C7.572003718706213 31.800777290887453 7.562877476527973 34.00780887524374 7.5546875 36.21484375 C7.532603926068759 41.63290572031599 7.499109199921577 47.05080843447206 7.45703125 52.46875 C1.4680949487281651 54.46506210042395 -5.393246249250737 55.21278894927991 -11.54296875 53.46875 C-15.975188789588273 50.70822347282498 -19.012903570556375 46.387328691731966 -22.1240234375 42.27783203125 C-23.960407033033505 39.93653773618752 -25.977195721797216 37.813347260668706 -28.034423828125 35.666748046875 C-35.103287919559094 28.282810492645268 -40.93932509864588 21.378815769377383 -40.75 10.7421875 C-40.28928061440273 5.682967077026149 -37.88886636131515 2.5722275476309733 -34.29296875 -0.78125 C-24.32923524953405 -8.760592132448622 -10.304861601589721 -6.205077953645429 0 0 Z M-31.2109375 5.84375 C-33.534657325121586 8.678551898095549 -33.73320565812175 11.939527359672354 -33.54296875 15.46875 C-31.253200527242456 21.089090183132157 -27.35973392651057 25.155201125285373 -23.2421875 29.55859375 C-21.211780071815582 31.747672670401442 -19.25306378105583 33.95647534936754 -17.3125 36.22265625 C-16.181280361876517 37.5132757567757 -15.049771463498331 38.80364178800227 -13.91796875 40.09375 C-13.392111816406242 40.72224853515624 -12.866254882812498 41.35074707031251 -12.324462890625 41.998291015625 C-11.806179199218747 42.578933105468764 -11.287895507812493 43.1595751953125 -10.75390625 43.7578125 C-10.303217773437495 44.28068847656249 -9.852529296875005 44.803564453125006 -9.38818359375 45.34228515625 C-7.54296875 46.46875 -7.54296875 46.46875 -0.54296875 46.46875 C-0.54296875 33.92875000000001 -0.54296875 21.388749999999987 -0.54296875 8.46875 C-21.61458678713528 -2.0670590185676474 -21.61458678713528 -2.0670590185676474 -31.2109375 5.84375 Z " fill="#262626" transform="translate(123.54296875,132.53125)"/>
<path d="M0 0 C7.255608031885686 6.011789512133845 11.021731106985612 15.753348819453166 12 25 C13.117033563514212 42.08202095589456 9.847836167207674 55.48601286624023 -1.40625 68.859375 C-5.284713291308066 73.17131360033662 -9.290269635408407 77.32129809416708 -13.43359375 81.37890625 C-22.18329556531711 89.94940455047418 -30.18622348670212 98.77933523005319 -37 109 C-38.97119140625 109.248779296875 -38.97119140625 109.248779296875 -41.3515625 109.07421875 C-42.20234375000001 109.01943359375 -43.053124999999994 108.96464843749999 -43.9296875 108.908203125 C-44.81914062499999 108.83537109374998 -45.708593750000006 108.7625390625 -46.625 108.6875 C-47.5221875 108.62626953124999 -48.419375 108.5650390625 -49.34375 108.501953125 C-51.56386305841997 108.34843466883268 -53.78194978603551 108.18056838782059 -56 108 C-55.2718357849121 107.43318511962889 -54.54367156982423 106.86637023925783 -53.79344177246094 106.28237915039063 C-51.15119977658688 104.12353764486082 -48.731658624590466 101.87834374232352 -46.304931640625 99.48193359375 C-45.40372085571289 98.59355804443359 -44.50251007080078 97.70518249511719 -43.57398986816406 96.78988647460938 C-42.602358924673126 95.8264260842588 -41.63109010130691 94.86260038588077 -40.66015625 93.8984375 C-40.412444448471064 93.65276346206664 -40.412444448471064 93.65276346206664 -39.15887260437012 92.40950393676758 C-36.535970172841104 89.8073865708943 -33.916306468524795 87.20205613583806 -31.299072265625 84.59423828125 C-28.61686083064521 81.92306558693144 -25.923181617064927 79.26377918500049 -23.226693153381348 76.60703086853027 C-21.135956493947816 74.5426304291862 -19.05433705136926 72.46920995376229 -16.974943161010742 70.39339065551758 C-15.986897901021138 69.41016876335459 -14.995520897860956 68.4302816761965 -14.000566482543945 67.45405197143555 C-2.3820252835850226 56.04067560644219 4.192713636282917 45.296901187234084 4.4375 28.875 C4.429625184436475 20.91907383616757 3.1157802110595014 13.733879844407625 0.875 6.125 C0 3 0 3 0 0 Z " fill="#444141" transform="translate(248,109)"/>
<path d="M0 0 C4.057064673575212 5.130993557756881 5.871159263952649 9.361306947426442 5.57568359375 15.919189453125 C4.181412366956124 24.483458922580922 -2.951534623159546 31.368361036922465 -8.8125 37.3125 C-10.17716509858036 38.720013764853576 -11.540455453205311 40.12886177081663 -12.90234375 41.5390625 C-13.569594726562514 42.218156738281266 -14.236845703124999 42.8972509765625 -14.92431640625 43.596923828125 C-16.875 45.6875 -16.875 45.6875 -18.66552734375 47.971435546875 C-23.00456306051234 53.50336910895453 -23.00456306051234 53.50336910895453 -27.734375 54.50390625 C-29.01828125 54.42011718750001 -30.302187500000002 54.336328124999994 -31.625 54.25 C-32.91921875 54.18941406249999 -34.2134375 54.128828124999984 -35.546875 54.06640625 C-38.875 53.6875 -38.875 53.6875 -41.875 52.6875 C-42.07821332162155 46.10437910200466 -42.21808868828987 39.52206904227043 -42.314453125 32.9365234375 C-42.35463045645602 30.69760924103909 -42.40918502330956 28.45890424749689 -42.478515625 26.220703125 C-42.57582114814571 22.998173152586247 -42.620983308845354 19.778420758615965 -42.65625 16.5546875 C-42.697540283203125 15.557587585449227 -42.73883056640625 14.560487670898453 -42.7813720703125 13.533172607421875 C-42.78575603047747 6.709465544634156 -42.78575603047747 6.709465544634156 -40.13127136230469 3.7308502197265625 C-38.10741908219981 2.189100024150406 -36.10982716937494 0.8985734062652568 -33.875 -0.3125 C-33.025507812499995 -0.7830078124999886 -32.17601562499999 -1.2535156250000057 -31.30078125 -1.73828125 C-20.729565332552596 -6.1738931044557575 -9.499494232616144 -7.640897534930389 0 0 Z M-22.6875 2.9375 C-23.4983203125 3.1695312500000057 -24.309140624999998 3.4015625000000114 -25.14453125 3.640625 C-27.875 4.6875 -27.875 4.6875 -34.875 8.6875 C-34.875 21.227499999999992 -34.875 33.767499999999984 -34.875 46.6875 C-26.875 46.6875 -26.875 46.6875 -24.984375 45.39453125 C-24.535781250000014 44.76933593749999 -24.0871875 44.144140625000006 -23.625 43.5 C-21.027107759012097 40.13169833582256 -18.34174345189419 37.00606660660449 -15.41015625 33.930908203125 C-2.571493559113435 20.423238180699258 -2.571493559113435 20.423238180699258 -1.1875 13 C-2.096894002271199 8.618374352693252 -3.5822435047004717 6.700021899954891 -6.875 3.6875 C-12.472667345313539 1.5269968140895003 -16.960317787176223 1.2418932976206634 -22.6875 2.9375 Z " fill="#262626" transform="translate(212.875,132.3125)"/>
<path d="M0 0 C0.8894531250000028 0.003222656250002842 1.7789062500000057 0.006445312500005684 2.6953125 0.009765625 C3.6157031250000102 0.018144531250001705 4.536093749999992 0.02652343750000341 5.484375 0.03515625 C6.420234375000007 0.03966796874999545 7.356093749999999 0.044179687500005116 8.3203125 0.048828125 C10.625065409838896 0.06058706841754713 12.929687266163398 0.07702199342983818 15.234375 0.09765625 C15.234375 0.4276562499999983 15.234375 0.7576562499999966 15.234375 1.09765625 C14.798671874999997 1.1466406250000034 14.798671874999997 1.1466406250000034 12.59375 1.39453125 C-3.6188792087834116 3.429882968851601 -17.449058824612294 8.204228509128797 -28.265625 20.97265625 C-35.99208451235206 31.470208836402378 -39.146091172174536 42.53710563660036 -39.015625 55.41015625 C-39.0117578125 56.332077636718736 -39.007890625 57.2539990234375 -39.00390625 58.203857421875 C-38.922023355179235 64.65270402022406 -38.40805731933591 70.83588303253185 -36.765625 77.09765625 C-39.64044578234457 74.64995169817519 -40.66002748840076 72.25941287782462 -41.890625 68.72265625 C-42.223203125 67.786796875 -42.55578125 66.85093749999999 -42.8984375 65.88671875 C-46.00597392864093 55.89220969572244 -46.00103335900561 44.0827958407242 -42.765625 34.09765625 C-42.520703125 33.312617187499995 -42.27578125 32.52757812499999 -42.0234375 31.71875 C-37.90172383230779 20.064878169666713 -30.46768055981383 11.24626269628871 -19.765625 5.09765625 C-16.16384143422738 3.488547747888603 -12.555913719865018 2.1849838082108732 -8.765625 1.09765625 C-8.154206542968751 0.92041015625 -7.542788085937502 0.7431640625 -6.912841796875 0.560546875 C-4.545293934574659 0.05015793276902514 -2.420894327006252 -0.015518553378242927 0 0 Z " fill="#747171" transform="translate(85.765625,91.90234375)"/>
<path d="M0 0 C7.590000000000003 0 15.180000000000007 0 23 0 C20 4 20 4 18.098876953125 4.4541015625 C17.402380371093756 4.433154296875003 16.70588378906251 4.412207031249999 15.98828125 4.390625 C15.30548095703125 4.380634765625004 14.6226806640625 4.370644531250001 13.919189453125 4.3603515625 C13.058981933593742 4.323935546874999 12.198774414062484 4.287519531249998 11.3125 4.25 C8.569375000000008 4.167500000000004 5.826250000000016 4.085000000000001 3 4 C3 10.600000000000001 3 17.200000000000003 3 24 C-3.5999999999999943 24 -10.199999999999989 24 -17 24 C-16.8125 32.375000000000014 -16.8125 32.375000000000014 -16.729736328125 35.00927734375 C-16.707882321408974 37.00809649564823 -16.85079622425603 39.0066375560605 -17 41 C-17.989999999999995 41.66 -18.980000000000004 42.31999999999999 -20 43 C-20 35.41 -20 27.82 -20 20 C-13.400000000000006 20 -6.800000000000011 20 0 20 C0 13.399999999999999 0 6.799999999999997 0 0 Z " fill="#82807F" transform="translate(139,30)"/>
<path d="M0 0 C6.930000000000007 0 13.860000000000014 0 21 0 C21 0.990000000000002 21 1.9799999999999969 21 3 C13.740000000000009 3 6.47999999999999 3 -1 3 C-0.6699999999999875 2.009999999999998 -0.3400000000000034 1.0200000000000031 0 0 Z " fill="#838080" transform="translate(161,50)"/>
</svg>
