<?xml version="1.0" encoding="UTF-8"?>
<!-- Generator: visioncortex VTracer 0.6.12 -->
<svg version="1.1" xmlns="http://www.w3.org/2000/svg" width="300" height="300">
<path d="M0 0 C2.4526367187499716 1.8801269531249787 2.4526367187499716 1.8801269531249787 4.6796875 4.48828125 C5.5174169921875205 5.4215625 6.355146484374984 6.354843750000001 7.21826171875 7.31640625 C7.434814147949226 7.562053222656246 7.434814147949226 7.562053222656246 8.53070068359375 8.80517578125 C15.380499095518644 16.48565803236906 21.252634477039635 22.844345157940545 31.9619140625 23.65869140625 C32.63963867187499 23.6952685546875 33.31736328124998 23.731845703125003 34.015625 23.76953125 C53.39732955738799 24.89062984694695 73.99366182691352 38.943446474281416 87.04296875 52.70703125 C99.67881154429588 67.51190095110115 107.45796110215105 84.13717963599197 112 103 C112.12310546875 103.50208984375001 112.12310546875 103.50208984375001 112.74609375 106.04296875 C118.38103799377956 134.83947691993552 110.43997225866053 162.69356179512687 102 190 C102.78173583984375 190.139541015625 103.5634716796875 190.27908203125 104.368896484375 190.4228515625 C110.42367583439591 191.75100395959097 115.67365437883302 196.94888257526497 119 202 C125.34538432018377 215.16079710852932 123 224.65048406362848 123 241 C64.59 241 6.180000000000007 241 -54 241 C-54 206.35199652777777 -54 206.35199652777777 -44.8125 196.25 C-42.12506058888255 193.64925218278955 -39.91071621567005 192.51631272186356 -36.375 191.375 C-33.10323356761131 190.0940202612173 -32.180119947944064 189.33644166442403 -30.4921875 186.18359375 C-29.653570745430272 183.90772501039723 -28.856163856288106 181.6163061533361 -28.09765625 179.3125 C-21.784506102616803 160.2607159253347 -3.5778242650387426 145.43561015699368 11.83984375 133.5859375 C16.495138729001297 129.9138218677089 20.117144680464804 125.64856595860556 22 120 C22.0674086476115 118.43881572131764 22.085144562323194 116.87497480030078 22.0625 115.3125 C22.05347656250001 114.50425781249999 22.044453125000018 113.696015625 22.03515625 112.86328125 C22.023554687499995 112.24839843749999 22.01195312499999 111.633515625 22 111 C21.7692578125 111.24814453125 21.7692578125 111.24814453125 20.6015625 112.50390625 C11.264757881954779 122.22820671187714 1.3778059095626105 129.3717249212467 -12.1875 130.9375 C-17.977504627772504 131.67678170676496 -21.08125197817604 132.41219743786462 -25 137 C-26.823632012144515 139.53124975521612 -28.59349018973579 142.07632991747923 -30.2890625 144.6953125 C-32.6277715581612 147.8456283546007 -34.48759337683026 149.6801631895264 -38.3828125 150.50390625 C-49.89631118301733 150.7499211791243 -63.76311399830809 147.17656362875698 -72.59375 139.4296875 C-77.21647899807866 134.72991301862004 -79.84563290901667 130.68246842649404 -80.0703125 123.8671875 C-79.50314906637578 114.29213423822657 -73.34436175295187 106.81779336895661 -67.8125 99.375 C-66.65870330733478 97.78881627638566 -65.5063777209732 96.20156150033293 -64.35546875 94.61328125 C-62.75606418655943 92.41085978262932 -61.15523087395111 90.21006702241198 -59.53759765625 88.02099609375 C-52.1507140503966 77.96964317721589 -47.9661526103161 67.77794677931819 -44 56 C-40.32936407943885 45.42200127684933 -35.19798459360695 37.86396256420653 -26.1875 31.0625 C-21.07940990641316 26.874573941747514 -19.89804962190462 20.39049750301961 -18.26953125 14.2421875 C-16.565463278354457 7.934311582859003 -14.617189679396688 4.532032775577676 -9.125 0.6875 C-5.927095853118274 -0.34711604752056147 -3.3444232692602753 -0.2956211362087977 0 0 Z " fill="#555251" transform="translate(124,31)"/>
<path d="M0 0 C2.4526367187499716 1.8801269531249787 2.4526367187499716 1.8801269531249787 4.6796875 4.48828125 C5.5174169921875205 5.4215625 6.355146484374984 6.354843750000001 7.21826171875 7.31640625 C7.434814147949226 7.562053222656246 7.434814147949226 7.562053222656246 8.53070068359375 8.80517578125 C15.380499095518644 16.48565803236906 21.252634477039635 22.844345157940545 31.9619140625 23.65869140625 C32.63963867187499 23.6952685546875 33.31736328124998 23.731845703125003 34.015625 23.76953125 C53.39732955738799 24.89062984694695 73.99366182691352 38.943446474281416 87.04296875 52.70703125 C99.67881154429588 67.51190095110115 107.45796110215105 84.13717963599197 112 103 C112.12310546875 103.50208984375001 112.12310546875 103.50208984375001 112.74609375 106.04296875 C118.38103799377956 134.83947691993552 110.43997225866053 162.69356179512687 102 190 C102.78173583984375 190.139541015625 103.5634716796875 190.27908203125 104.368896484375 190.4228515625 C110.42367583439591 191.75100395959097 115.67365437883302 196.94888257526497 119 202 C125.34538432018377 215.16079710852932 123 224.65048406362848 123 241 C64.59 241 6.180000000000007 241 -54 241 C-54 206.35199652777777 -54 206.35199652777777 -44.8125 196.25 C-42.12506058888255 193.64925218278955 -39.91071621567005 192.51631272186356 -36.375 191.375 C-33.10323356761131 190.0940202612173 -32.180119947944064 189.33644166442403 -30.4921875 186.18359375 C-29.653570745430272 183.90772501039723 -28.856163856288106 181.6163061533361 -28.09765625 179.3125 C-21.784506102616803 160.2607159253347 -3.5778242650387426 145.43561015699368 11.83984375 133.5859375 C16.495138729001297 129.9138218677089 20.117144680464804 125.64856595860556 22 120 C22.0674086476115 118.43881572131764 22.085144562323194 116.87497480030078 22.0625 115.3125 C22.05347656250001 114.50425781249999 22.044453125000018 113.696015625 22.03515625 112.86328125 C22.023554687499995 112.24839843749999 22.01195312499999 111.633515625 22 111 C21.7692578125 111.24814453125 21.7692578125 111.24814453125 20.6015625 112.50390625 C11.264757881954779 122.22820671187714 1.3778059095626105 129.3717249212467 -12.1875 130.9375 C-17.977504627772504 131.67678170676496 -21.08125197817604 132.41219743786462 -25 137 C-26.823632012144515 139.53124975521612 -28.59349018973579 142.07632991747923 -30.2890625 144.6953125 C-32.6277715581612 147.8456283546007 -34.48759337683026 149.6801631895264 -38.3828125 150.50390625 C-49.89631118301733 150.7499211791243 -63.76311399830809 147.17656362875698 -72.59375 139.4296875 C-77.21647899807866 134.72991301862004 -79.84563290901667 130.68246842649404 -80.0703125 123.8671875 C-79.50314906637578 114.29213423822657 -73.34436175295187 106.81779336895661 -67.8125 99.375 C-66.65870330733478 97.78881627638566 -65.5063777209732 96.20156150033293 -64.35546875 94.61328125 C-62.75606418655943 92.41085978262932 -61.15523087395111 90.21006702241198 -59.53759765625 88.02099609375 C-52.1507140503966 77.96964317721589 -47.9661526103161 67.77794677931819 -44 56 C-40.32936407943885 45.42200127684933 -35.19798459360695 37.86396256420653 -26.1875 31.0625 C-21.07940990641316 26.874573941747514 -19.89804962190462 20.39049750301961 -18.26953125 14.2421875 C-16.565463278354457 7.934311582859003 -14.617189679396688 4.532032775577676 -9.125 0.6875 C-5.927095853118274 -0.34711604752056147 -3.3444232692602753 -0.2956211362087977 0 0 Z M-8.5 9.1875 C-11.032727405314773 12.360947135825938 -11.693878006461972 15.431414565703122 -12.5 19.375 C-14.663057982139364 29.75532716428836 -19.182985335557063 34.579111402598016 -27.28125 41.3125 C-33.22739574708953 47.19029924424942 -35.92398943815688 53.9040252470931 -38.4375 61.75 C-43.17221309124557 75.73759334274078 -49.781693323348875 86.88012265104622 -58.40234375 98.77587890625 C-61.04926016307601 102.46069072213055 -63.619947442147904 106.19714634844178 -66.1875 109.9375 C-66.65696044921876 110.617802734375 -67.1264208984375 111.29810546875001 -67.610107421875 111.9990234375 C-71.71925657816263 117.9790359113507 -72.94176271375028 121.72376189019133 -72 129 C-67.2778279750502 137.34250391074463 -57.616629143213714 140.07444634627433 -48.8359375 142.51953125 C-41.29583856949385 143.79698602748246 -41.29583856949385 143.79698602748246 -38 143 C-35.85003417075666 140.6927195978852 -34.48670233462579 138.91029975008993 -32.9375 136.25 C-29.731014429348875 130.9292886989533 -26.956117626161543 127.25560734219744 -21 125 C-18.247710569941717 124.32770563523286 -15.497220325863111 123.96784238525953 -12.6875 123.625 C1.4548071083337106 121.44902667034125 11.798398015880935 112.67385468377867 20.73046875 101.71875 C23 99 23 99 25 98 C25.675617475826783 99.66305840203515 26.339332811438226 101.3309460499492 27 103 C27.264257812500006 103.60457031250002 27.52851562500001 104.209140625 27.80078125 104.83203125 C30.513185781642505 111.34951512461015 31.096618286780313 116.83555115006268 28.4375 123.4375 C23.322108823659875 133.73859700802512 15.305742069649739 140.47839714176038 6.60498046875 147.6708984375 C3.338528772037435 150.37588216687377 0.14627608626186372 153.15664765070863 -3 156 C-3.6406640624999937 156.5633203125 -4.281328125000002 157.126640625 -4.94140625 157.70703125 C-12.842932588174065 165.05189428450623 -19.33083167581532 174.84578998655866 -23 185 C-22.67 185.99 -22.340000000000003 186.98 -22 188 C-21.030625 187.8672265625 -20.06125 187.734453125 -19.0625 187.59765625 C-17.7083708285503 187.41898642876706 -16.354201870761642 187.2406179699416 -15 187.0625 C-13.700625000000002 186.8884765625 -12.401250000000005 186.714453125 -11.0625 186.53515625 C4.0453706554718565 184.82740545657995 19.16557544038193 184.8137106500416 34.3515625 184.814697265625 C38.096470895668176 184.81251661244428 41.84108113176609 184.7943164546373 45.5859375 184.775390625 C58.692619014103116 184.74585791520494 71.58294175701977 185.15406231411242 84.61669921875 186.569091796875 C88.09430358478792 186.9431647322121 91.49825359612316 187.09005304331987 95 187 C98.32338336810753 177.26513367395054 100.94223017940465 167.4603369965771 103.25 157.4375 C103.50797363281251 156.3200439453125 103.76594726562499 155.202587890625 104.03173828125 154.05126953125 C110.48404553583438 125.54177353810633 106.6174843208023 95.74129334855961 91.37109375 70.57421875 C88.13917794561658 65.52911393827529 84.24455714268277 61.21106951236574 80 57 C79.5978125 56.566874999999996 79.5978125 56.566874999999996 77.5625 54.375 C64.2202960577477 42.009054882790565 46.56693932833491 31.186242394987183 27.949951171875 29.767578125 C18.359669168958817 28.917922044360267 14.088707765370714 25.456902466240052 7.8125 18.375 C6.176810516029747 16.60860763251621 4.537674832486431 14.845398000042422 2.89453125 13.0859375 C2.1917504882812437 12.302670898437498 1.4889697265625017 11.519404296874995 0.764892578125 10.71240234375 C-1 9 -1 9 -3 9 C-3 8.340000000000003 -3 7.68 -3 7 C-6 7 -6 7 -8.5 9.1875 Z " fill="#262626" transform="translate(124,31)"/>
<path d="M0 0 C3.612312489282459 0.010737856338892016 7.224127951780758 0.000011999577679944196 10.83642578125 -0.0126953125 C22.732221407703634 -0.02015267021167233 34.55361475275356 0.2753693733847058 46.41845703125 1.1669921875 C47.48463256835936 1.246571655273442 48.55080810546875 1.326151123046884 49.6492919921875 1.40814208984375 C60.36324054486542 2.3014380779125077 71.43734602714315 3.9792803776507526 79.11376953125 12.2607421875 C85.70175778137505 22.239040180379476 84.11376953125 30.54138754622187 84.11376953125 43.2607421875 C30.653769531249992 43.2607421875 -22.806230468750016 43.2607421875 -77.88623046875 43.2607421875 C-79.49534579343968 31.996934914672238 -79.34021499122424 20.90569603962652 -72.32373046875 11.5107421875 C-64.39120504026482 2.869604065651373 -50.16109000191189 1.9526937984756785 -39.16748046875 1.1513671875 C-38.03515991210938 1.0672760009765625 -36.90283935546876 0.983184814453125 -35.7362060546875 0.89654541015625 C-23.825809124761747 0.08301601853864327 -11.934256268408745 -0.04198223014188329 0 0 Z " fill="#555251" transform="translate(155.88623046875,221.7392578125)"/>
<path d="M0 0 C19.82638073084746 1.2138600447457648 39.71293487676013 12.6908529442032 53 27 C53.65355468749999 27.648398437499992 54.30710937500001 28.296796875 54.98046875 28.96484375 C73.47017211315085 48.09102571429203 80.68994964860838 75.7126486787397 80.34716796875 101.80615234375 C79.75528931579234 118.66489463759711 75.62360307689028 141.75279384621945 68 157 C65.86087036132813 156.85739135742188 65.86087036132813 156.85739135742188 55.16522216796875 156.14434814453125 C54.45069885253906 156.09671325683593 53.736175537109375 156.04907836914063 53 156 C47.68750000000006 155.64583333333334 42.37499999999997 155.29166666666666 37.0625 154.9375 C36.37969970703125 154.89197998046876 35.6968994140625 154.8464599609375 34.993408203125 154.799560546875 C34.313024902343756 154.75420166015624 33.63264160156251 154.7088427734375 32.931640625 154.662109375 C31.64580078124999 154.57638671875 30.359960937500006 154.4906640625 29.03515625 154.40234375 C27.0234375 154.26822916666666 25.01171875 154.13411458333334 23 154 C25.374118468486188 147.6005227351184 28.040698882084484 141.79097128487774 31.75 136.0625 C32.1868310546875 135.3728515625 32.623662109375005 134.683203125 33.07373046875 133.97265625 C35.6046883682441 130.01901418332216 38.27562150293099 126.23347419675247 41.125 122.5 C54.739529170454034 104.21842127618547 60.54939412951208 81.90136741333566 57.5 59.29296875 C55.25787167502858 47.73836425710756 51.118887423650335 37.39763798854088 44 28 C43.755722656249986 27.667421875000002 43.755722656249986 27.667421875000002 42.51953125 25.984375 C32.56933017356096 13.503628958441908 15.276292542899512 4.69587722812085 0 1 C0 0.6700000000000017 0 0.3400000000000034 0 0 Z " fill="#454242" transform="translate(151,61)"/>
<path d="M0 0 C3.612312489282459 0.010737856338892016 7.224127951780758 0.000011999577679944196 10.83642578125 -0.0126953125 C22.732221407703634 -0.02015267021167233 34.55361475275353 0.2753693733847058 46.41845703125 1.1669921875 C47.48463256835936 1.246571655273442 48.55080810546875 1.326151123046884 49.6492919921875 1.40814208984375 C60.21898372909797 2.289410389507708 71.62950527515764 3.9121534503890985 79.11376953125 12.2607421875 C80.32080078125 14.9521484375 80.32080078125 14.9521484375 81.11376953125 17.2607421875 C79.98326171874999 16.995195312500016 78.85275390625 16.729648437500003 77.68798828125 16.4560546875 C68.12314342185422 14.316371199250455 58.64638804686251 12.845406631244146 48.86767578125 12.1474609375 C47.710681762695316 12.064140167236332 46.55368774414063 11.980819396972663 45.36163330078125 11.894973754882813 C32.393942718562016 11.039852605374108 19.426466038417004 10.921114641817042 6.43603515625 10.945068359375 C3.728183532630908 10.949692589183456 1.0207820495037936 10.942773673807523 -1.68701171875 10.924560546875 C-16.702188566314305 10.824827835476214 -31.572205927338842 11.161661909647592 -46.52685546875 12.5927734375 C-47.76344909667969 12.709247283935554 -49.00004272460937 12.825721130371107 -50.27410888671875 12.945724487304688 C-58.64149647922838 13.822091964196147 -66.6967260065769 15.34723579052465 -74.88623046875 17.2607421875 C-72.96807202644561 11.900654577696116 -70.10249358259571 8.809067198917461 -64.99560546875 6.3505859375 C-56.551734261577536 3.0428489882336294 -48.15975895402396 1.8068163392838699 -39.16748046875 1.1513671875 C-38.03515991210938 1.0672760009765625 -36.90283935546876 0.983184814453125 -35.7362060546875 0.89654541015625 C-23.825809124761776 0.08301601853864327 -11.934256268408717 -0.04198223014188329 0 0 Z " fill="#767373" transform="translate(155.88623046875,221.7392578125)"/>
<path d="M0 0 C1.8586755167517026 4.731847231889795 2.3359968066050527 9.029484025198826 2.3125 14.0625 C2.32861328125 14.75666015625 2.3447265625 15.4508203125 2.361328125 16.166015625 C2.36643388649442 21.542382478622045 1.2293052263234188 24.753763341577915 -2.54296875 28.5546875 C-2.8143164062500006 28.7725390625 -2.8143164062500006 28.7725390625 -4.1875 29.875 C-4.798515624999993 30.380312500000002 -5.409531250000001 30.885625000000005 -6.0390625 31.40625 C-6.686171874999999 31.932187499999998 -7.333281249999999 32.458124999999995 -8 33 C-19.405231341949843 42.33555615634505 -24.971697992194578 52.12734156994003 -28.6875 66.4375 C-30.812328931245162 73.51746359304215 -34.765137294478336 78.63576024102237 -39.46826171875 84.18994140625 C-41.124113876505035 86.14666564877405 -42.75311602871855 88.12370635579865 -44.37890625 90.10546875 C-46.15834550165229 92.27389140584103 -47.93982437867109 94.44030083358854 -49.731201171875 96.598876953125 C-54.11433735566449 101.88274792252838 -58.379367107376744 107.24734816371944 -62.536865234375 112.710693359375 C-64.56958023231128 115.34709903113958 -66.19774239646429 117.13182826430952 -69 119 C-70.50211733738406 109.34353140253103 -62.60950501596223 101.81814527747358 -57.262939453125 94.46435546875 C-47.08785518411486 80.46612754834005 -39.63875444010007 67.40469047333109 -34 51 C-30.891194886209334 42.08809200713341 -27.183805040545053 36.62155732203766 -19.9375 30.5625 C-12.378683093380872 24.01152534759676 -10.191625255052656 16.960026506875714 -8.08984375 7.390625 C-6.609837258637697 2.786160360206182 -5.0723852408872006 0 0 0 Z " fill="#767372" transform="translate(121,38)"/>
<path d="M0 0 C2.4375 1.625 2.4375 1.625 4 4 C4.5625 7.5 4.5625 7.5 4 11 C0.9814133633787492 14.27732263404593 -1.6010146166397163 15.590792057361838 -6 16 C-7.3334269476978875 15.98642131417823 -8.666787808733247 15.965014698131213 -10 15.9375 C-13.424858914987055 15.879121723039987 -15.89461862786196 16.447309313930987 -19 18 C-17.58504327304341 10.796583935493686 -15.280566443506004 4.848912964097309 -9.625 -0.0625 C-5.992348361077717 -1.359875585329391 -3.6991725060709513 -1.0088652289284425 0 0 Z " fill="#262626" transform="translate(126,84)"/>
<path d="M0 0 C0.9900000000000091 0 1.9799999999999898 0 3 0 C5.055442670640019 11.875890985920165 3.85097761206643 27.72353358190037 -3 38 C-3.1817578124999955 37.191757812499986 -3.363515624999991 36.383515625 -3.55078125 35.55078125 C-3.6764648437500114 35.016464843749986 -3.6764648437500114 35.016464843749986 -4.3125 32.3125 C-4.55613281250001 31.256757812499984 -4.799765624999992 30.201015624999997 -5.05078125 29.11328125 C-5.9936329680970175 26.020882816570662 -7.296007131699554 23.72543397142732 -9 21 C-9 20.340000000000003 -9 19.680000000000007 -9 19 C-9.659999999999997 18.670000000000016 -10.319999999999993 18.340000000000003 -11 18 C-10.37351562500001 17.03578125 -9.747031249999992 16.0715625 -9.1015625 15.078125 C-8.275933686068157 13.802153196650778 -7.450418835370613 12.526107647321425 -6.625 11.25 C-6.212500000000006 10.615781249999998 -5.800000000000011 9.981562499999995 -5.375 9.328125 C-3.410583759882144 6.286448241107848 -1.5157909193994783 3.298094527924164 0 0 Z " fill="#454242" transform="translate(158,110)"/>
<path d="M0 0 C4.0370278274598235 0.3356311191447787 6.273657339126856 1.6057965401803074 9.7109375 3.71484375 C10.770546875000008 4.352929687499994 11.830156250000002 4.991015624999989 12.921875 5.6484375 C13.718515624999995 6.185976562500002 14.515156250000004 6.7235156250000045 15.3359375 7.27734375 C15.3359375 7.6073437500000125 15.3359375 7.937343749999997 15.3359375 8.27734375 C14.550898437499995 8.375312500000007 13.765859375000005 8.473281250000014 12.95703125 8.57421875 C11.906445312499997 8.723749999999995 10.855859374999994 8.873281249999991 9.7734375 9.02734375 C9.257167968749997 9.096953124999999 9.257167968749997 9.096953124999999 6.64453125 9.44921875 C-1.1330920734147583 11.395920219378894 -4.756491360332674 15.012932919693242 -8.9140625 21.52734375 C-10.426975541733057 23.866325875869506 -11.967444771672405 26.058689797571617 -13.6640625 28.27734375 C-14.654062499999995 28.27734375 -15.644062500000004 28.27734375 -16.6640625 28.27734375 C-15.25126704234583 24.601397274871374 -13.62927480823356 21.103053562313818 -11.8515625 17.58984375 C-11.325625000000002 16.548281250000002 -10.799687500000005 15.506718750000005 -10.2578125 14.43359375 C-9.731875000000002 13.392031250000002 -9.205937500000005 12.350468750000005 -8.6640625 11.27734375 C-7.322607745947039 8.565892651382342 -5.981812274800461 5.854136982362093 -4.64453125 3.140625 C-3.1653161870758026 0.3295270517336917 -3.1653161870758026 0.3295270517336917 0 0 Z " fill="#454242" transform="translate(99.6640625,145.72265625)"/>
</svg>
