<?xml version="1.0" encoding="UTF-8"?>
<!-- Generator: visioncortex VTracer 0.6.12 -->
<svg version="1.1" xmlns="http://www.w3.org/2000/svg" width="300" height="300">
<path d="M0 0 C9.614549534526418 7.332071108443728 15.71257955477651 16.934045826565395 17.6875 28.875 C18.93133856389892 42.740741368053634 14.660969232724483 53.698704642894626 6.6875 64.875 C7.232773437499986 65.19662109375 7.778046875000001 65.5182421875 8.33984375 65.849609375 C10.808218938727748 67.32852476585313 13.246981743970139 68.8505922004378 15.6875 70.375 C16.546015624999995 70.8803125 17.40453124999999 71.385625 18.2890625 71.90625 C24.33329582429502 75.74385845986987 24.33329582429502 75.74385845986987 25.31591796875 78.8818359375 C25.41499826516926 82.88467991283841 24.4154445729649 86.49789914146629 22.8125 90.125 C22.464453125000006 90.93453125000002 22.11640625000001 91.74406249999998 21.7578125 92.578125 C20.77148274987428 94.69477424479533 19.73182278549075 96.7863544290185 18.6875 98.875 C13.077499999999986 98.875 7.467500000000001 98.875 1.6875 98.875 C5.874116850431619 119.06926951384659 15.226133234113604 131.68092231943228 32.128173828125 143.058837890625 C44.73639568518087 151.68594713964893 51.853900397646356 163.91989098757801 54.6875 178.875 C54.6875 185.14499999999998 54.6875 191.41499999999996 54.6875 197.875 C2.217500000000001 197.875 -50.25250000000001 197.875 -104.3125 197.875 C-104.3125 178.55404046772088 -101.67557939783063 162.54251208087283 -87.83203125 148.109375 C-84.22402801212253 144.9097194154017 -80.29471118599366 142.3757233697574 -76.234375 139.7890625 C-61.04163857430191 129.8366014724705 -54.59185783775223 115.99243135100892 -50.3125 98.875 C-55.9225 98.875 -61.5325 98.875 -67.3125 98.875 C-72.5679677307958 89.71162036681761 -72.5679677307958 89.71162036681761 -73.3125 85.875 C-73.4607421875 85.1776171875 -73.608984375 84.48023437500001 -73.76171875 83.76171875 C-74.04074823867815 81.18641379711812 -74.03606878872968 79.37575528736397 -73.3125 76.875 C-70.3582267635519 73.89704521456233 -66.93873233290556 71.94493148748009 -63.3125 69.875 C-61.76794283936911 68.90039923570413 -60.225920841720466 67.92175849550932 -58.6875 66.9375 C-57.57374999999999 66.25687499999998 -56.46000000000001 65.57625000000002 -55.3125 64.875 C-55.7830078125 64.16214843749998 -56.253515625000006 63.449296875000016 -56.73828125 62.71484375 C-64.69095053854775 50.4812344717578 -68.3098214546379 39.943560992854415 -65.8515625 25.08984375 C-62.8980269583093 14.127014768783354 -56.55561808431548 5.420057079256921 -47.3125 -1.125 C-31.74271001527984 -9.159165029061256 -15.127566433346601 -9.784343427072798 0 0 Z " fill="#555251" transform="translate(174.3125,74.125)"/>
<path d="M0 0 C2.8776774215799037 1.3018562463179535 4.90922679402675 2.671085647010301 7.109375 4.929931640625 C7.6909838867187545 5.521374664306649 8.272592773437509 6.112817687988269 8.871826171875 6.7221832275390625 C9.491623535156236 7.36171432495118 10.111420898437501 8.001245422363269 10.75 8.66015625 C12.094915958850862 10.025524723778858 13.439972786862995 11.390754450071626 14.78515625 12.755859375 C16.882821630952435 14.896647493749015 18.977928310138083 17.039852957052517 21.06982421875 19.186279296875 C34.54008078208352 32.98198957151021 47.39731565427326 44.866581951405976 66.61572265625 49.732421875 C73.79590017942385 51.57595999852077 78.65268484631204 52.984392187037685 82.78125 59.60546875 C83.1834375 60.3956640625 83.585625 61.18585937500001 84 62 C84.4021875 62.75925781250001 84.804375 63.51851562499999 85.21875 64.30078125 C89.46172252407538 73.07464229085588 90 79.96437571219258 90 90 C42.150000000000006 90 -5.700000000000003 90 -55 90 C-53.824725925937045 74.72143703718166 -51.44763369437506 62.31029912303961 -39.75 51.875 C-36.76783086595856 49.49596619643884 -33.655879340039306 47.29399985495249 -30.5625 45.0625 C-16.619722421653478 34.943048879017255 -8.501048852913868 24.395282855743318 -3 8 C-2.4023605063180753 6.393390187025119 -1.799259144671737 4.7887866090947 -1.1875 3.1875 C-0.7956250000000011 2.1356250000000045 -0.4037500000000023 1.083750000000009 0 0 Z " fill="#555251" transform="translate(132,175)"/>
<path d="M0 0 C9.614549534526418 7.332071108443728 15.71257955477651 16.934045826565395 17.6875 28.875 C18.93133856389892 42.740741368053634 14.660969232724483 53.698704642894626 6.6875 64.875 C7.232773437499986 65.19662109375 7.778046875000001 65.5182421875 8.33984375 65.849609375 C10.808218938727748 67.32852476585313 13.246981743970139 68.8505922004378 15.6875 70.375 C16.546015624999995 70.8803125 17.40453124999999 71.385625 18.2890625 71.90625 C24.33329582429502 75.74385845986987 24.33329582429502 75.74385845986987 25.31591796875 78.8818359375 C25.41499826516926 82.88467991283841 24.4154445729649 86.49789914146629 22.8125 90.125 C22.464453125000006 90.93453125000002 22.11640625000001 91.74406249999998 21.7578125 92.578125 C20.77148274987428 94.69477424479533 19.73182278549075 96.7863544290185 18.6875 98.875 C13.077499999999986 98.875 7.467500000000001 98.875 1.6875 98.875 C5.874116850431619 119.06926951384659 15.226133234113604 131.68092231943228 32.128173828125 143.058837890625 C44.73639568518087 151.68594713964893 51.853900397646356 163.91989098757801 54.6875 178.875 C54.6875 185.14499999999998 54.6875 191.41499999999996 54.6875 197.875 C2.217500000000001 197.875 -50.25250000000001 197.875 -104.3125 197.875 C-104.3125 178.55404046772088 -101.67557939783063 162.54251208087283 -87.83203125 148.109375 C-84.22402801212253 144.9097194154017 -80.29471118599366 142.3757233697574 -76.234375 139.7890625 C-61.04163857430191 129.8366014724705 -54.59185783775223 115.99243135100892 -50.3125 98.875 C-55.9225 98.875 -61.5325 98.875 -67.3125 98.875 C-72.5679677307958 89.71162036681761 -72.5679677307958 89.71162036681761 -73.3125 85.875 C-73.4607421875 85.1776171875 -73.608984375 84.48023437500001 -73.76171875 83.76171875 C-74.04074823867815 81.18641379711812 -74.03606878872968 79.37575528736397 -73.3125 76.875 C-70.3582267635519 73.89704521456233 -66.93873233290556 71.94493148748009 -63.3125 69.875 C-61.76794283936911 68.90039923570413 -60.225920841720466 67.92175849550932 -58.6875 66.9375 C-57.57374999999999 66.25687499999998 -56.46000000000001 65.57625000000002 -55.3125 64.875 C-55.7830078125 64.16214843749998 -56.253515625000006 63.449296875000016 -56.73828125 62.71484375 C-64.69095053854775 50.4812344717578 -68.3098214546379 39.943560992854415 -65.8515625 25.08984375 C-62.8980269583093 14.127014768783354 -56.55561808431548 5.420057079256921 -47.3125 -1.125 C-31.74271001527984 -9.159165029061256 -15.127566433346601 -9.784343427072798 0 0 Z M-52.09765625 12.94140625 C-57.84965844198561 20.841576336781216 -60.30185727110275 30.161310429173014 -59.3125 39.875 C-57.691665966476336 50.086254411199036 -52.46686682279227 57.677681214677875 -44.3125 63.875 C-45.53400190169819 67.5395057050946 -46.51103352173283 67.88737829846838 -49.75 69.8359375 C-50.644609375 70.390234375 -51.53921875 70.94453125000001 -52.4609375 71.515625 C-54.35851915717993 72.66977055587381 -56.25956547866568 73.81823928719939 -58.1640625 74.9609375 C-59.058671875 75.51781249999999 -59.95328125 76.07468749999998 -60.875 76.6484375 C-61.701289062499995 77.14778808593752 -62.52757812499999 77.64713867187498 -63.37890625 78.16162109375 C-65.3125 79.875 -65.3125 79.875 -66.27734375 82.13916015625 C-66.3125 84.875 -66.3125 84.875 -63.3125 91.875 C-56.38249999999999 91.875 -49.4525 91.875 -42.3125 91.875 C-44.64406961431226 106.96884539791617 -47.62855614952471 119.65377828477136 -57.3125 131.875 C-57.79976562499999 132.537578125 -58.28703125 133.20015625 -58.7890625 133.8828125 C-63.95503400933745 140.42637641182742 -70.8916037596018 144.82694183214838 -77.6005859375 149.64111328125 C-87.68099685186132 156.90671464479564 -93.21429300177262 165.80829905953544 -96.3125 177.875 C-96.6425 182.16499999999996 -96.9725 186.45500000000004 -97.3125 190.875 C-49.462500000000006 190.875 -1.6125000000000114 190.875 47.6875 190.875 C47.6875 177.44975047181563 45.573785375802004 166.32195915148048 36.6875 155.875 C32.884054516286284 152.56949863253848 28.839670181516368 149.72251175420809 24.6875 146.875 C9.40678371346803 135.58569183158843 -1.6369955175853192 122.15475970303882 -4.98828125 103.015625 C-5.486609700754968 99.63919549692557 -5.931216799645199 96.26641372947174 -6.3125 92.875 C-5.72235107421875 92.87089111328123 -5.1322021484375 92.86678222656252 -4.524169921875 92.862548828125 C-1.8484298404266042 92.82963851520745 0.8250247540000544 92.75900379341604 3.5 92.6875 C4.428769531249998 92.68169921875 5.3575390624999955 92.6758984375 6.314453125 92.669921875 C13.106902915723708 92.44922856049993 13.106902915723708 92.44922856049993 15.82421875 89.76171875 C16.937339504940013 86.03956382737255 17.41738828622664 83.7348209959867 16.6875 79.875 C14.450057882893674 77.61207976354774 11.84352828724974 76.19977545217344 9.0625 74.6875 C7.63246151755169 73.86128427641546 6.202768778314578 73.03446981570323 4.7734375 72.20703125 C4.082177734374994 71.81596191406248 3.3909179687499886 71.424892578125 2.6787109375 71.02197265625 C-4.930547184432612 66.63890563113483 -4.930547184432612 66.63890563113483 -6.3125 63.875 C-5.755625000000009 63.64812499999999 -5.198750000000018 63.421249999999986 -4.625 63.1875 C2.4906552848617878 59.14888483832169 7.051884053715554 51.4410354320062 9.6875 43.875 C11.55270582569932 34.08617544106683 10.469098514687232 25.288679561713096 5.4375 16.625 C-0.12229904549892012 8.55751711202086 -7.1028448886738715 2.6547419064122693 -16.796875 0.26171875 C-30.658946782180635 -1.8692519121675275 -42.85016632983161 2.236981375231778 -52.09765625 12.94140625 Z " fill="#262626" transform="translate(174.3125,74.125)"/>
<path d="M0 0 C11.550000000000011 0 23.099999999999994 0 35 0 C35.93711374781722 2.8113412434516363 36.45993635162861 5.5285701096948685 36.94970703125 8.444091796875 C40.11664617478476 26.93637372719209 49.02502122657256 42.38514460992013 64.45703125 53.55078125 C67.59745212949161 55.763852318673656 70.78451798019634 57.897760596017065 74 60 C67.98774523678273 62.42599753603503 60.709119586766576 58.26547636093713 55 56 C38.55319029134617 48.889618404537316 26.175214910592956 34.394441085746564 13.90234375 21.785888671875 C12.001072418532175 19.836660322478735 10.090918019153548 17.896487626521946 8.1796875 15.95703125 C7.6016134643554665 15.35719924926758 7.023539428710933 14.75736724853516 6.427947998046875 14.139358520507813 C5.00809141182458 12.701880872149871 3.5096228583624054 11.3428974422782 2 10 C1.009999999999991 10 0.020000000000010232 10 -1 10 C-0.6699999999999875 6.699999999999989 -0.3400000000000034 3.4000000000000057 0 0 Z " fill="#454242" transform="translate(132,166)"/>
<path d="M0 0 C0.3299999999999983 0 0.6599999999999966 0 1 0 C0.43920690475374613 12.421567059704671 -2.7767106401546897 24.3775288597422 -11.484375 33.56640625 C-15.15331983908682 36.899333863724905 -19.288231513303458 39.58814051402172 -23.375 42.375 C-35.54156370843181 50.703240481935666 -43.281413441299705 58.84424032389913 -48 73 C-48.33 73 -48.66 73 -49 73 C-49.90850409129564 60.179997822828085 -46.30877984638484 49.808241177473406 -38 40 C-34.27121840809805 36.15441320160474 -29.894171618412628 33.18727828473078 -25.5625 30.0625 C-14.129674933313197 21.76473337588351 -6.150958846427741 12.903431018531393 0 0 Z " fill="#757272" transform="translate(127,190)"/>
<path d="M0 0 C8.07704207720488 5.989716596578901 11.25258615228384 12.3056663551408 12.73828125 22.21484375 C13.63571478122438 31.765143865865355 10.98597313762184 38.851012426405006 6 47 C3.4375 50 3.4375 50 1 52 C0.32710937499999204 52.69609374999999 -0.3457812500000159 53.392187500000006 -1.0390625 54.109375 C-5.286463169429595 56.82143558575717 -8.889506215250265 56.440899087850084 -13.8125 56.25 C-14.254326171874993 56.24097656250001 -14.254326171874993 56.24097656250001 -16.490234375 56.1953125 C-18.660625426788044 56.14838512590728 -20.830455189366944 56.07664731421275 -23 56 C-19.999782103048403 53.9998547353656 -16.963132279684146 52.445219542118565 -13.75 50.8125 C-4.471470170501533 45.80209389207084 1.4914557364809582 40.134183637189295 5 30 C6.816154434223023 21.715196747587584 6.006135376156209 13.920928133998885 3 6 C2.0214093636308803 4.650875045005677 1.0256260855312576 3.313723300568128 0 2 C0 1.3400000000000034 0 0.6800000000000068 0 0 Z " fill="#454242" transform="translate(172,83)"/>
<path d="M0 0 C0.6780468750000068 0.4357031250000034 1.3560937500000136 0.8714062500000068 2.0546875 1.3203125 C2.5200390624999898 1.6180859375000125 2.5200390624999898 1.6180859375000125 4.875 3.125 C5.868867187500001 3.7669531249999864 6.862734375000002 4.408906250000001 7.88671875 5.0703125 C9.869769805666607 6.299455814302775 11.891968776551948 7.468961126905782 13.95703125 8.5546875 C16.496383567717174 9.89883679550121 18.787644599348823 11.165705332371488 21 13 C21.90379822527254 16.962807603118023 21.376884450432897 18.925412104137592 20.0546875 22.6953125 C18 25 18 25 15.974365234375 25.399169921875 C13.403472211162551 25.493697569046617 10.882140192898333 25.43468479337116 8.3125 25.3125 C7.419824218749994 25.289941406249994 6.527148437499989 25.26738281249999 5.607421875 25.244140625 C3.4032572789252242 25.185205742752004 1.2024732818067037 25.10300817622496 -1 25 C-0.6455883789062398 24.46310546875 -0.29117675781250796 23.926210937500002 0.073974609375 23.373046875 C0.30346801757812614 23.01758789062501 0.30346801757812614 23.01758789062501 1.46484375 21.21875 C1.9223803710937375 20.51685546875001 2.3799169921875034 19.81496093749999 2.851318359375 19.091796875 C4.634404610790966 15.844722910678627 4.58246364047119 13.624218207376288 4 10 C3.0728112464873334 7.815336370478775 2.043552486888615 5.764472971619114 0.875 3.69921875 C0 2 0 2 0 0 Z " fill="#454242" transform="translate(170,141)"/>
<path d="M0 0 C-2.1937132882098354 2.3667190680371135 -4.43370840966017 3.9581031435465093 -7.1875 5.625 C-18.33314914655071 13.007183200962146 -24.676987524092766 23.814482563612486 -27.75 36.6875 C-27.95109375 37.6813671875 -28.152187499999997 38.675234375 -28.359375 39.69921875 C-28.570781249999996 40.45847656250001 -28.782187500000006 41.21773437499999 -29 42 C-29.33 42.16499999999999 -29.33 42.16499999999999 -31 43 C-33.4932096229621 34.012381439805964 -31.897559816355567 24.832267835484927 -27.78125 16.546875 C-21.6851696264538 6.589943723207881 -11.958995051586015 -0.7321833705052683 0 0 Z " fill="#747171" transform="translate(147,75)"/>
<path d="M0 0 C0.3299999999999841 0.6599999999999966 0.6599999999999966 1.3199999999999932 1 2 C0.29296875 3.76953125 0.29296875 3.76953125 -0.8125 5.8125 C-2.4491148797215914 8.867120551682547 -3.694296245940734 11.735740614851807 -5 15 C-10.280000000000001 15 -15.560000000000002 15 -21 15 C-18.182127266453904 12.182127266453904 -16.372233323271658 10.422932738306429 -13.14453125 8.45703125 C-12.440058593749995 8.023261718750007 -11.735585937500005 7.589492187500014 -11.009765625 7.142578125 C-10.28466796875 6.703652343750008 -9.5595703125 6.2647265624999875 -8.8125 5.8125 C-7.360025658065737 4.924241412937846 -5.90816897161838 4.03497178387255 -4.45703125 3.14453125 C-3.817414550781251 2.7562817382812455 -3.1777978515625023 2.368032226562491 -2.518798828125 1.968017578125 C-1 1 -1 1 0 0 Z " fill="#757272" transform="translate(130,140)"/>
</svg>
