<?xml version="1.0" encoding="UTF-8"?>
<!-- Generator: visioncortex VTracer 0.6.12 -->
<svg version="1.1" xmlns="http://www.w3.org/2000/svg" width="300" height="300">
<path d="M0 0 C6.1634953016996405 4.642197005817323 10.729852362079896 10.57771519282872 12.83984375 18.05859375 C13.777701662388097 25.749028631582263 12.356899267617734 31.622515980754557 9.15234375 38.62109375 C8.871972656249994 38.933691406250006 8.871972656249994 38.933691406250006 7.453125 40.515625 C5.468192950488856 43.728472972031554 6.4442054749029865 45.96859106792067 7.15234375 49.62109375 C7.947630911304259 52.37095196674541 8.896890057535387 55.05261962286812 9.875 57.7421875 C10.139937591552723 58.486948394775396 10.404875183105474 59.23170928955078 10.677841186523438 59.99903869628906 C11.517341608618437 62.35448210854514 12.36592293536765 64.70653128289062 13.21484375 67.05859375 C13.789016985202238 68.66449717088294 14.362590737431248 70.27061506417705 14.935546875 71.876953125 C16.334226709615393 75.7941805302247 17.74105468936088 79.70839241682715 19.15234375 83.62109375 C21.03783310951613 78.44884583404088 22.90703600490042 73.27110848435292 24.761474609375 68.087646484375 C25.394412549590243 66.32563154248516 26.03174931003889 64.56519020236095 26.673583984375 62.806396484375 C27.596132270700537 60.275998744732334 28.502641210482693 57.74033796840915 29.40625 55.203125 C29.695770416259762 54.419601593017575 29.985290832519524 53.63607818603515 30.283584594726563 52.82881164550781 C31.713874662054877 48.76124185981351 32.71390794058314 45.84313625974113 31.15234375 41.62109375 C30.51296875 40.67234375000001 29.873593749999998 39.72359374999999 29.21484375 38.74609375 C25.309078164856686 32.82826710584348 24.29081279466925 26.568567735936398 25.15234375 19.62109375 C27.221265971276523 10.441888198640179 31.454613989883768 4.564816505531439 39.14453125 -0.7578125 C46.60599179724207 -4.798263777468819 56.06539947943554 -4.8448649574535025 64.09375 -2.53125 C71.29330296429782 0.711296754912766 76.80396425347652 6.097913743740122 80.08984375 13.30859375 C82.33516820030562 20.437498879720295 82.3386908375092 28.64266905160389 79.46484375 35.55859375 C76.41514163411173 41.41101506394051 72.93525355677019 45.31933222426477 67.15234375 48.62109375 C67.68580723957439 65.62845869897149 68.27077667715207 82.6274816648888 69.15234375 99.62109375 C72.97452574700509 96.43238574063531 76.6687700289302 93.29939236478211 79.90234375 89.49609375 C80.45406249999999 88.854140625 81.00578125000001 88.2121875 81.57421875 87.55078125 C82.095 86.913984375 82.61578125 86.2771875 83.15234375 85.62109375 C83.7311328125 84.9353125 84.30992187499999 84.24953125 84.90625 83.54296875 C85.31746093749999 82.90875 85.728671875 82.27453125 86.15234375 81.62109375 C85.52898771816356 79.60717426252847 84.85206348212341 77.6097708834034 84.15234375 75.62109375 C83.05059718951307 66.76184401019411 85.42604433092541 59.909876792703216 90.77734375 52.87109375 C96.48134470310924 46.783988255264006 102.88210984210284 44.32870098325239 111.15234375 43.99609375 C118.65500977959107 44.29783140553789 124.40928124118454 46.20386046169713 129.9921875 51.30078125 C135.25734328091005 57.09373993315282 137.69219405666308 63.01959681663095 138.46484375 70.74609375 C137.86136994705146 78.22916890656244 135.28483652286633 85.53002484515139 130.058349609375 91.046630859375 C127.89349911215612 92.83491327983927 125.8933660279825 93.5920454278905 123.28125 94.6015625 C116.73894534532246 97.82037639010133 115.1668858495114 102.46610886737113 112.71484375 109.05859375 C111.98270995432179 110.88917794376431 111.25045938078699 112.71971680581038 110.51571655273438 114.54925537109375 C109.68356705063809 116.63506207636726 108.86708292271652 118.72660165011149 108.05126953125 120.81884765625 C105.87634970373068 126.36041419386743 103.59124813085435 131.8553204167854 101.3046875 137.3515625 C100.88103408813475 138.37050094604493 100.45738067626954 139.38943939208986 100.02088928222656 140.4392547607422 C99.15960602592713 142.5105806610754 98.298221753505 144.5818645604948 97.43673706054688 146.65310668945313 C95.37406839061637 151.62028259569794 93.3243923589888 156.5927763936899 91.27734375 161.56640625 C90.92046981811524 162.4322282409668 90.56359588623047 163.2980502319336 90.19590759277344 164.1901092529297 C89.17744109350136 166.66550844143288 88.16445579696514 169.14309063501292 87.15234375 171.62109375 C86.774326171875 172.53775817871093 86.39630859375 173.45442260742186 86.0068359375 174.39886474609375 C85.639775390625 175.29832824707032 85.27271484375001 176.19779174804688 84.89453125 177.12451171875 C84.56050292968749 177.9387057495117 84.226474609375 178.75289978027342 83.88232421875 179.59176635742188 C83.15234375 181.62109375 83.15234375 181.62109375 83.15234375 183.62109375 C83.7698046875 183.81703125 84.387265625 184.01296875 85.0234375 184.21484375 C92.70431011112154 186.92711535697137 99.26248336900801 190.83126991410165 103.56640625 197.96484375 C109.40229294356402 210.5602826569727 107.15234375 221.86832977476024 107.15234375 236.62109375 C48.74234375 236.62109375 -9.667656250000007 236.62109375 -69.84765625 236.62109375 C-69.84765625 201.62594110973598 -69.84765625 201.62594110973598 -59.54296875 190.828125 C-55.137250124069865 187.2205438063036 -50.22650253592114 185.35033367271578 -44.84765625 183.62109375 C-46.76148586318489 177.64374100357168 -48.905102883569214 171.82581126039818 -51.33203125 166.0390625 C-51.498227157592765 165.6388111114502 -51.498227157592765 165.6388111114502 -52.33927917480469 163.61329650878906 C-54.1764962340668 159.19338395348203 -56.02898971738142 154.77989679388614 -57.881103515625 150.3662109375 C-58.65801446795537 148.51249533873468 -59.43462345233806 146.65865315457924 -60.2109375 144.8046875 C-60.59959487915039 143.87713653564452 -60.988252258300776 142.94958557128905 -61.38868713378906 141.99392700195313 C-63.64939145985413 136.57366247455604 -65.84136989978059 131.13273121115873 -67.96084594726563 125.65571594238281 C-69.24550029969632 122.33886602038581 -70.55424372391607 119.03176213646123 -71.8646240234375 115.72500610351563 C-72.4729140232361 114.16953492746256 -73.0691199223403 112.6092777683819 -73.6524658203125 111.04428100585938 C-78.72699065113518 97.4520133286764 -78.72699065113518 97.4520133286764 -85.078125 94.3359375 C-85.90336669921875 94.05097412109376 -86.7286083984375 93.76601074218752 -87.578857421875 93.472412109375 C-92.36016265835622 91.6783293202208 -94.78924608706679 87.61553540077728 -97.09765625 83.265625 C-100.64135680508606 75.32921229850518 -101.07837973557447 68.07316435870572 -98.01171875 59.890625 C-94.64473592744133 53.32613835601816 -89.43720052905022 47.83165459671386 -82.46875 45.2109375 C-74.77843996067924 43.48033121693378 -66.39767292346284 43.20751741320406 -59.515625 47.43359375 C-58.9651953125 47.82546875 -58.414765625 48.21734375 -57.84765625 48.62109375 C-56.795781250000005 49.34296875 -55.74390625000001 50.064843749999994 -54.66015625 50.80859375 C-48.90991543363977 56.55883456636023 -46.11792988021605 62.84625961618303 -45.66015625 70.93359375 C-45.84765625 74.62109375000001 -45.84765625 74.62109375000001 -47.3515625 78.2890625 C-47.900146484375 80.40307617187499 -47.900146484375 80.40307617187499 -47.84765625 82.62109375 C-45.74729393498927 86.14268459547493 -42.92620966415012 88.80423371700063 -39.97265625 91.62109375 C-39.20050781250001 92.3958203125 -38.428359375 93.17054687500001 -37.6328125 93.96875 C-35.72533664611805 95.87622585388195 -33.79803135838708 97.75766995624002 -31.84765625 99.62109375 C-30.662975187904863 94.808943956625 -30.546097821482363 90.0140253386127 -30.34765625 85.0859375 C-30.327353515624992 84.62810127258301 -30.327353515624992 84.62810127258301 -30.224609375 82.31117248535156 C-30.051462955975083 78.40520154299978 -29.887282558354457 74.49886722694964 -29.72265625 70.592529296875 C-29.600970773661516 67.7360102732184 -29.47445109632592 64.87973355642694 -29.34765625 62.0234375 C-29.329931640625006 61.5822533416748 -29.329931640625006 61.5822533416748 -29.240234375 59.34959411621094 C-29.203496093750005 58.525163116455076 -29.166757812499995 57.700732116699214 -29.12890625 56.851318359375 C-29.098613281249996 56.12915634155274 -29.068320312500006 55.40699432373046 -29.037109375 54.66294860839844 C-28.84249488517679 52.56546649212166 -28.4110523610386 50.64802602005585 -27.84765625 48.62109375 C-28.528281250000006 48.45609375000001 -29.20890625 48.29109375 -29.91015625 48.12109375 C-35.412581799269134 45.31134453335193 -38.84747469429806 40.48809932064363 -41.72265625 35.12109375 C-44.37208201505982 26.878435814258367 -44.480973796959546 19.40004743282175 -40.84375 11.41796875 C-37.29223863973513 5.276081117066688 -31.887878285448636 -0.3652451712540099 -25.1171875 -2.90234375 C-16.505223758613468 -4.710707909120753 -7.678936319657609 -4.51025710622152 0 0 Z " fill="#555251" transform="translate(131.84765625,35.37890625)"/>
<path d="M0 0 C6.1634953016996405 4.642197005817323 10.729852362079896 10.57771519282872 12.83984375 18.05859375 C13.777701662388097 25.749028631582263 12.356899267617734 31.622515980754557 9.15234375 38.62109375 C8.871972656249994 38.933691406250006 8.871972656249994 38.933691406250006 7.453125 40.515625 C5.468192950488856 43.728472972031554 6.4442054749029865 45.96859106792067 7.15234375 49.62109375 C7.947630911304259 52.37095196674541 8.896890057535387 55.05261962286812 9.875 57.7421875 C10.139937591552723 58.486948394775396 10.404875183105474 59.23170928955078 10.677841186523438 59.99903869628906 C11.517341608618437 62.35448210854514 12.36592293536765 64.70653128289062 13.21484375 67.05859375 C13.789016985202238 68.66449717088294 14.362590737431248 70.27061506417705 14.935546875 71.876953125 C16.334226709615393 75.7941805302247 17.74105468936088 79.70839241682715 19.15234375 83.62109375 C21.03783310951613 78.44884583404088 22.90703600490042 73.27110848435292 24.761474609375 68.087646484375 C25.394412549590243 66.32563154248516 26.03174931003889 64.56519020236095 26.673583984375 62.806396484375 C27.596132270700537 60.275998744732334 28.502641210482693 57.74033796840915 29.40625 55.203125 C29.695770416259762 54.419601593017575 29.985290832519524 53.63607818603515 30.283584594726563 52.82881164550781 C31.713874662054877 48.76124185981351 32.71390794058314 45.84313625974113 31.15234375 41.62109375 C30.51296875 40.67234375000001 29.873593749999998 39.72359374999999 29.21484375 38.74609375 C25.309078164856686 32.82826710584348 24.29081279466925 26.568567735936398 25.15234375 19.62109375 C27.221265971276523 10.441888198640179 31.454613989883768 4.564816505531439 39.14453125 -0.7578125 C46.60599179724207 -4.798263777468819 56.06539947943554 -4.8448649574535025 64.09375 -2.53125 C71.29330296429782 0.711296754912766 76.80396425347652 6.097913743740122 80.08984375 13.30859375 C82.33516820030562 20.437498879720295 82.3386908375092 28.64266905160389 79.46484375 35.55859375 C76.41514163411173 41.41101506394051 72.93525355677019 45.31933222426477 67.15234375 48.62109375 C67.68580723957439 65.62845869897149 68.27077667715207 82.6274816648888 69.15234375 99.62109375 C72.97452574700509 96.43238574063531 76.6687700289302 93.29939236478211 79.90234375 89.49609375 C80.45406249999999 88.854140625 81.00578125000001 88.2121875 81.57421875 87.55078125 C82.095 86.913984375 82.61578125 86.2771875 83.15234375 85.62109375 C83.7311328125 84.9353125 84.30992187499999 84.24953125 84.90625 83.54296875 C85.31746093749999 82.90875 85.728671875 82.27453125 86.15234375 81.62109375 C85.52898771816356 79.60717426252847 84.85206348212341 77.6097708834034 84.15234375 75.62109375 C83.05059718951307 66.76184401019411 85.42604433092541 59.909876792703216 90.77734375 52.87109375 C96.48134470310924 46.783988255264006 102.88210984210284 44.32870098325239 111.15234375 43.99609375 C118.65500977959107 44.29783140553789 124.40928124118454 46.20386046169713 129.9921875 51.30078125 C135.25734328091005 57.09373993315282 137.69219405666308 63.01959681663095 138.46484375 70.74609375 C137.86136994705146 78.22916890656244 135.28483652286633 85.53002484515139 130.058349609375 91.046630859375 C127.89349911215612 92.83491327983927 125.8933660279825 93.5920454278905 123.28125 94.6015625 C116.73894534532246 97.82037639010133 115.1668858495114 102.46610886737113 112.71484375 109.05859375 C111.98270995432179 110.88917794376431 111.25045938078699 112.71971680581038 110.51571655273438 114.54925537109375 C109.68356705063809 116.63506207636726 108.86708292271652 118.72660165011149 108.05126953125 120.81884765625 C105.87634970373068 126.36041419386743 103.59124813085435 131.8553204167854 101.3046875 137.3515625 C100.88103408813475 138.37050094604493 100.45738067626954 139.38943939208986 100.02088928222656 140.4392547607422 C99.15960602592713 142.5105806610754 98.298221753505 144.5818645604948 97.43673706054688 146.65310668945313 C95.37406839061637 151.62028259569794 93.3243923589888 156.5927763936899 91.27734375 161.56640625 C90.92046981811524 162.4322282409668 90.56359588623047 163.2980502319336 90.19590759277344 164.1901092529297 C89.17744109350136 166.66550844143288 88.16445579696514 169.14309063501292 87.15234375 171.62109375 C86.774326171875 172.53775817871093 86.39630859375 173.45442260742186 86.0068359375 174.39886474609375 C85.639775390625 175.29832824707032 85.27271484375001 176.19779174804688 84.89453125 177.12451171875 C84.56050292968749 177.9387057495117 84.226474609375 178.75289978027342 83.88232421875 179.59176635742188 C83.15234375 181.62109375 83.15234375 181.62109375 83.15234375 183.62109375 C83.7698046875 183.81703125 84.387265625 184.01296875 85.0234375 184.21484375 C92.70431011112154 186.92711535697137 99.26248336900801 190.83126991410165 103.56640625 197.96484375 C109.40229294356402 210.5602826569727 107.15234375 221.86832977476024 107.15234375 236.62109375 C48.74234375 236.62109375 -9.667656250000007 236.62109375 -69.84765625 236.62109375 C-69.84765625 201.62594110973598 -69.84765625 201.62594110973598 -59.54296875 190.828125 C-55.137250124069865 187.2205438063036 -50.22650253592114 185.35033367271578 -44.84765625 183.62109375 C-46.76148586318489 177.64374100357168 -48.905102883569214 171.82581126039818 -51.33203125 166.0390625 C-51.498227157592765 165.6388111114502 -51.498227157592765 165.6388111114502 -52.33927917480469 163.61329650878906 C-54.1764962340668 159.19338395348203 -56.02898971738142 154.77989679388614 -57.881103515625 150.3662109375 C-58.65801446795537 148.51249533873468 -59.43462345233806 146.65865315457924 -60.2109375 144.8046875 C-60.59959487915039 143.87713653564452 -60.988252258300776 142.94958557128905 -61.38868713378906 141.99392700195313 C-63.64939145985413 136.57366247455604 -65.84136989978059 131.13273121115873 -67.96084594726563 125.65571594238281 C-69.24550029969632 122.33886602038581 -70.55424372391607 119.03176213646123 -71.8646240234375 115.72500610351563 C-72.4729140232361 114.16953492746256 -73.0691199223403 112.6092777683819 -73.6524658203125 111.04428100585938 C-78.72699065113518 97.4520133286764 -78.72699065113518 97.4520133286764 -85.078125 94.3359375 C-85.90336669921875 94.05097412109376 -86.7286083984375 93.76601074218752 -87.578857421875 93.472412109375 C-92.36016265835622 91.6783293202208 -94.78924608706679 87.61553540077728 -97.09765625 83.265625 C-100.64135680508606 75.32921229850518 -101.07837973557447 68.07316435870572 -98.01171875 59.890625 C-94.64473592744133 53.32613835601816 -89.43720052905022 47.83165459671386 -82.46875 45.2109375 C-74.77843996067924 43.48033121693378 -66.39767292346284 43.20751741320406 -59.515625 47.43359375 C-58.9651953125 47.82546875 -58.414765625 48.21734375 -57.84765625 48.62109375 C-56.795781250000005 49.34296875 -55.74390625000001 50.064843749999994 -54.66015625 50.80859375 C-48.90991543363977 56.55883456636023 -46.11792988021605 62.84625961618303 -45.66015625 70.93359375 C-45.84765625 74.62109375000001 -45.84765625 74.62109375000001 -47.3515625 78.2890625 C-47.900146484375 80.40307617187499 -47.900146484375 80.40307617187499 -47.84765625 82.62109375 C-45.74729393498927 86.14268459547493 -42.92620966415012 88.80423371700063 -39.97265625 91.62109375 C-39.20050781250001 92.3958203125 -38.428359375 93.17054687500001 -37.6328125 93.96875 C-35.72533664611805 95.87622585388195 -33.79803135838708 97.75766995624002 -31.84765625 99.62109375 C-30.662975187904863 94.808943956625 -30.546097821482363 90.0140253386127 -30.34765625 85.0859375 C-30.327353515624992 84.62810127258301 -30.327353515624992 84.62810127258301 -30.224609375 82.31117248535156 C-30.051462955975083 78.40520154299978 -29.887282558354457 74.49886722694964 -29.72265625 70.592529296875 C-29.600970773661516 67.7360102732184 -29.47445109632592 64.87973355642694 -29.34765625 62.0234375 C-29.329931640625006 61.5822533416748 -29.329931640625006 61.5822533416748 -29.240234375 59.34959411621094 C-29.203496093750005 58.525163116455076 -29.166757812499995 57.700732116699214 -29.12890625 56.851318359375 C-29.098613281249996 56.12915634155274 -29.068320312500006 55.40699432373046 -29.037109375 54.66294860839844 C-28.84249488517679 52.56546649212166 -28.4110523610386 50.64802602005585 -27.84765625 48.62109375 C-28.528281250000006 48.45609375000001 -29.20890625 48.29109375 -29.91015625 48.12109375 C-35.412581799269134 45.31134453335193 -38.84747469429806 40.48809932064363 -41.72265625 35.12109375 C-44.37208201505982 26.878435814258367 -44.480973796959546 19.40004743282175 -40.84375 11.41796875 C-37.29223863973513 5.276081117066688 -31.887878285448636 -0.3652451712540099 -25.1171875 -2.90234375 C-16.505223758613468 -4.710707909120753 -7.678936319657609 -4.51025710622152 0 0 Z M-32.22265625 11.18359375 C-36.46276842387624 17.543762010814362 -36.59635497670337 23.041674541398102 -35.84765625 30.62109375 C-34.28319065422119 35.52590480703631 -31.143194070910653 38.85967657941458 -26.84765625 41.62109375 C-24.857445362094154 42.316439035527594 -22.858194183216384 42.98691580687802 -20.84765625 43.62109375 C-20.903005371093755 44.51078857421875 -20.958354492187496 45.4004833984375 -21.015380859375 46.317138671875 C-24.061908812367037 95.45785646514213 -24.061908812367037 95.45785646514213 -23.84765625 117.62109375 C-29.53353701029033 112.83174190626997 -34.733922739064326 107.75877111854984 -39.78515625 102.30859375 C-40.4773828125 101.56746337890627 -41.16960937499999 100.82633300781248 -41.8828125 100.062744140625 C-46.93578743967106 94.64014029911704 -51.936841271439505 89.17304290631701 -56.84765625 83.62109375 C-56.5447265625 82.8721484375 -56.241796875000006 82.123203125 -55.9296875 81.3515625 C-53.250814803910885 74.59151912611449 -52.13871023362631 70.07528186128404 -54.5234375 63.09375 C-57.338957625654075 57.83645135829195 -62.1895340237315 53.507134492089506 -67.84765625 51.62109375 C-74.5663880862111 50.861301781446244 -79.63926158346322 51.1617786035367 -85.1953125 55.1953125 C-89.536069097954 58.940882614073786 -92.30335299511799 62.90531686333887 -93.140625 68.62109375 C-93.55150906326244 75.01755916727484 -91.60940041086941 79.50265497373506 -87.84765625 84.62109375 C-84.32309137078207 87.97372863510974 -81.03946293555859 90.5214661733837 -76.09765625 90.74609375 C-75.35515625 90.70484375 -74.61265625 90.66359375 -73.84765625 90.62109375 C-73.79762451171875 90.95274536132813 -73.79762451171875 90.95274536132813 -73.54443359375 92.631103515625 C-72.6616589475927 96.41923984761115 -71.20814800100598 99.89030170815838 -69.69921875 103.4609375 C-69.53684974670409 103.85046096801759 -69.53684974670409 103.85046096801759 -68.71516418457031 105.82168579101563 C-67.6384546282465 108.40240050701692 -66.55548651272242 110.98044195202084 -65.47265625 113.55859375 C-64.71960216952607 115.3610248625954 -63.96708885350529 117.163681991477 -63.215087890625 118.966552734375 C-62.02477836235329 121.82016259345104 -60.83415211260578 124.67363541788 -59.64192199707031 127.52644348144531 C-55.25279794540623 138.03112603275224 -50.908399312996494 148.55419302945342 -46.56634521484375 159.07839965820313 C-45.292282698901346 162.16632150708256 -44.01758954386307 165.25398225340984 -42.74267578125 168.341552734375 C-40.777312071644204 173.1012523601804 -38.81235362412133 177.86111903882778 -36.84765625 182.62109375 C-35.95046875 182.5605078125 -35.05328125 182.499921875 -34.12890625 182.4375 C-32.17761515497003 182.30647322192465 -30.226304842385957 182.17569451924894 -28.274749755859375 182.0486602783203 C-24.946140099660738 181.83174034350426 -21.620704179914412 181.60304677095607 -18.29541015625 181.338623046875 C-5.897785922518608 180.4136407635844 6.504080759642761 180.43499877594732 18.93115234375 180.435791015625 C22.748486884174156 180.43361023545083 26.565529002695058 180.41541102208902 30.3828125 180.396484375 C45.09033641941477 180.3639693204189 59.537033414365055 180.95489928272215 74.15234375 182.62109375 C77.25089007479477 176.70244021969336 79.85683307015736 170.84788351521627 82.0546875 164.5390625 C83.26765610069779 161.31455166469303 84.6814741721033 158.23609323201183 86.15234375 155.12109375 C88.01794862254172 151.16601142021156 89.71211214530871 147.24975768344837 91.15234375 143.12109375 C92.99221658324169 137.84679162804048 95.32389414446948 132.87582494965386 97.70703125 127.828125 C99.43845130388232 123.98624428584492 100.83439707195848 120.07703196439167 102.22265625 116.1015625 C103.07094658014856 113.8382668712423 104.03298285381865 111.76002755549382 105.15234375 109.62109375 C108.27286083505135 103.6514088916409 110.63409331006972 97.18484312666826 112.15234375 90.62109375 C112.51779296875 90.646875 112.51779296875 90.646875 114.3671875 90.77734375 C119.22162295225712 90.50500515520297 122.57999482071301 87.7594189775979 126.15234375 84.62109375 C129.63540096868383 80.00865285550319 131.41154181725346 74.40233759787085 131.15234375 68.62109375 C129.96197891153992 62.09288237276094 126.26036604051552 57.68554159406612 121.15234375 53.62109375 C116.22300306650703 50.54799014397301 110.75264487739662 50.82004691370989 105.15234375 51.62109375 C99.20139621459862 54.17024409751315 95.17291086114255 57.95753041660771 92.15234375 63.62109375 C90.55571317505797 68.41098547482603 90.23886950298163 73.20377762033564 92.046875 77.98828125 C93.0111708108943 79.90324324901977 94.07411530515859 81.76788861042884 95.15234375 83.62109375 C94.43949218750001 84.32234375 93.72664062499999 85.02359375 92.9921875 85.74609375 C88.08609692097474 90.59724298220853 83.31270079996673 95.47019672970407 78.83203125 100.72265625 C76.37724539564144 103.49713514585642 73.72491283342868 106.05842827800882 71.0859375 108.65625 C68.27421201395444 111.51341751410285 65.71797164893769 114.54234027127478 63.15234375 117.62109375 C62.316194223961986 110.85263753454024 61.89383832915277 104.14567730924932 61.65234375 97.33203125 C61.61173828125001 96.2705386352539 61.5711328125 95.2090460205078 61.529296875 94.11538696289063 C61.40056270878506 90.74239707949367 61.2760768421941 87.3692705094637 61.15234375 83.99609375 C60.12676974578227 56.30158948766676 60.12676974578227 56.30158948766676 59.15234375 43.62109375 C59.92449218749999 43.3155859375 60.696640624999986 43.01007812500001 61.4921875 42.6953125 C67.84777045582632 40.12881424324195 70.13312119844454 37.659538853110945 73.15234375 31.62109375 C75.06182651488538 25.892645455343896 75.06420090258268 19.84546869713067 72.52734375 14.30859375 C69.79757462140137 9.550721501210106 66.42317420466307 6.730103972044752 61.46484375 4.30859375 C54.97313196114436 2.9612573409922263 48.68021236778071 2.269214696723864 42.77734375 5.74609375 C37.888939994909094 9.292189916602823 33.68303318332042 13.637489601565662 32.15234375 19.62109375 C31.521899585411774 26.95839072935651 32.441435381584085 31.67709352420397 37.15234375 37.43359375 C38.714843749999915 39.265624999999915 38.714843749999915 39.265624999999915 40.15234375 40.62109375 C40.81234375 40.62109375 41.47234374999999 40.62109375 42.15234375 40.62109375 C41.82218261718751 41.48025390625 41.49202148437499 42.3394140625 41.15185546875 43.224609375 C36.24784457004765 56.092501945079505 31.770493729491875 69.10534294588638 27.27734375 82.12109375 C26.48586570418641 84.40891942914888 25.694200367918057 86.6966803237293 24.90234375 88.984375 C22.98352031562706 94.52920395523802 21.066998562980984 100.07482406022086 19.15234375 105.62109375 C14.8104457880913 94.32328819377432 10.855694129710457 82.93503237343408 7.08984375 71.43359375 C3.690751735721392 61.05358252047654 0.2026415304387683 50.7697433333725 -3.84765625 40.62109375 C-3.2314843749999795 40.3478125 -2.615312500000016 40.07453125000001 -1.98046875 39.79296875 C1.9552843459509575 37.63046704892804 3.619735707356483 33.76239669852178 5.46484375 29.80859375 C6.67195326439105 24.21199509236869 6.125809237404496 18.981483535433725 3.46484375 13.87109375 C0.20059866154173278 9.283506058112685 -3.5491560689048356 5.763040631719321 -8.84765625 3.62109375 C-18.84335303536335 2.365020741257254 -25.380947621817256 3.801750230118614 -32.22265625 11.18359375 Z " fill="#262626" transform="translate(131.84765625,35.37890625)"/>
<path d="M0 0 C3.643153759244967 0.010746045813959881 7.285815801215165 0.00001132392091562906 10.928955078125 -0.0126953125 C65.44387997726281 -0.04529032262942678 65.44387997726281 -0.04529032262942678 77.829345703125 10.7919921875 C86.36702382026778 19.822228657554888 84.079345703125 31.257398894107837 84.079345703125 43.2607421875 C30.619345703124992 43.2607421875 -22.840654296875 43.2607421875 -77.920654296875 43.2607421875 C-77.920654296875 17.555141939975243 -77.920654296875 17.555141939975243 -70.780029296875 9.7958984375 C-62.293666108558696 2.789300258911112 -49.15725938120974 1.9605410253575144 -38.643310546875 1.1513671875 C-38.102994461059566 1.1093215942382813 -38.102994461059566 1.1093215942382813 -35.36866760253906 0.89654541015625 C-23.582721553335958 0.05647270163694884 -11.811396393705365 -0.04126806507241554 0 0 Z " fill="#555251" transform="translate(147.920654296875,221.7392578125)"/>
<path d="M0 0 C4.175770039859287 2.7086075934222436 6.058430972012957 5.230301285068606 7.55859375 9.859375 C8.788497088208715 15.823861985295522 7.009939037544314 20.997938734972536 4.171875 26.2421875 C1.721122162594952 29.918316756107558 -1.891758441483148 32.459409415556195 -6 34 C-8.749999999999943 34.125 -8.749999999999943 34.125 -11 34 C-11.059296875000001 34.27328125 -11.059296875000001 34.27328125 -11.359375 35.65625 C-12.10639419152676 38.38924704217101 -13.142246626730042 40.89187180470617 -14.25 43.5 C-14.698593749999986 44.56218749999999 -15.147187500000001 45.624374999999986 -15.609375 46.71875 C-16.068281249999984 47.80156249999999 -16.527187499999997 48.884375000000006 -17 50 C-17.834796702926724 51.99938963417017 -18.668162226268407 53.99937750621518 -19.5 56 C-39.500000000000085 104.00000000000023 -39.500000000000085 104.00000000000023 -40.7421875 106.96875 C-41.61330268388974 109.06808348664114 -42.47185501193326 111.1726574261063 -43.3203125 113.28125 C-43.750859375000005 114.3434375 -44.18140625000001 115.40562499999999 -44.625 116.5 C-45.009140624999986 117.45906250000002 -45.39328125 118.418125 -45.7890625 119.40625 C-46.18867187500001 120.26218749999998 -46.588281249999994 121.11812500000002 -47 122 C-47.3390234375 122.78761718750002 -47.67804687500001 123.57523437499998 -48.02734375 124.38671875 C-50.471909204650615 126.38593762677368 -51.25038543996399 126.18027081490646 -54.33984375 125.98828125 C-56.20784226035386 125.78127349951222 -58.07371300931146 125.55450970390945 -59.9375 125.3125 C-69.4399572638142 124.26719121391173 -78.88189674370932 123.67057197392177 -88.4375 123.375 C-89.68200927734375 123.33544189453124 -90.9265185546875 123.29588378906249 -92.208740234375 123.255126953125 C-95.13905126369491 123.16515674868373 -98.06939737450173 123.07981049993055 -101 123 C-98.51114154487797 121.7478943755589 -96.01335540601085 120.53142631322254 -93.49609375 119.3359375 C-62.38563279119728 104.42227864076659 -41.48189977278565 76.15665815628225 -25.859375 46.01171875 C-15.985841834814039 27.154766394368323 -15.985841834814039 27.154766394368323 -4.8984375 21.6484375 C-1.574092429524569 19.757772244284865 -0.46631945415396103 18.50686191133326 1 15 C1.328125 11.992187500000028 1.328125 11.992187500000028 1.25 8.875 C1.242265625000016 8.358085937499993 1.242265625000016 8.358085937499993 1.203125 5.7421875 C1 2.999999999999986 1 2.999999999999986 0 0 Z " fill="#444141" transform="translate(255,92)"/>
<path d="M0 0 C3.643153759244939 0.010746045813959881 7.285815801215136 0.00001132392091562906 10.928955078125 -0.0126953125 C66.7268124561304 -0.04605740058508445 66.7268124561304 -0.04605740058508445 77.677001953125 10.8505859375 C78.87511418014736 12.268963922136493 79.98729774602072 13.759176246481616 81.079345703125 15.2607421875 C77.36860357890234 16.497656228907545 74.78467681885436 15.728444936778885 71.079345703125 14.9482421875 C49.86834730979393 10.880776350617083 28.019210494411766 10.926653428977374 6.499267578125 11 C3.1239124271847345 11.011416657412667 -0.2511278931976335 11.004587471516032 -3.6264724731445313 10.993119239807129 C-25.915334249547072 10.928984578562108 -48.08295691518478 11.45974087871133 -69.920654296875 16.2607421875 C-71.58671859298524 16.597073348880542 -73.25314909205483 16.93162931812759 -74.920654296875 17.2607421875 C-73.56915874021897 12.53050773920387 -70.98060434159186 9.862350974469337 -66.920654296875 7.2607421875 C-58.135609366394775 2.9514464637065316 -48.2702123978832 1.8922721738376822 -38.643310546875 1.1513671875 C-38.102994461059566 1.1093215942382813 -38.102994461059566 1.1093215942382813 -35.36866760253906 0.89654541015625 C-23.582721553335958 0.05647270163694884 -11.811396393705365 -0.04126806507241554 0 0 Z " fill="#767373" transform="translate(147.920654296875,221.7392578125)"/>
<path d="M0 0 C4.794163140631525 3.5157196364631105 7.262309972213643 6.111161572501786 9 12 C9.950367859722746 19.074960733491515 8.729716634436386 24.900229316925106 5 31 C2.4087493398363904 33.95542642861902 -0.41382926862857516 35.39766839662127 -4 37 C-4.659999999999997 37 -5.319999999999993 37 -6 37 C-5.939414062499992 37.96486328124999 -5.8788281250000125 38.92972656250001 -5.81640625 39.923828125 C-4.6325305509766395 58.97127125841905 -3.6630654892678933 77.90704439184667 -4 97 C-4.3300000000000125 97 -4.659999999999997 97 -5 97 C-6.006802011924151 89.36984435278731 -7.002496363801072 81.7382964272993 -7.99072265625 74.105712890625 C-8.327723803207903 71.51293656870386 -8.667204478686074 68.92048121064681 -9.00927734375 66.328369140625 C-9.502403090260884 62.58823319442071 -9.986404360519117 58.84700836835975 -10.46875 55.10546875 C-10.621866455078134 53.95918502807618 -10.77498291015624 52.81290130615234 -10.9327392578125 51.63188171386719 C-13.466260306192027 31.740664701555758 -13.466260306192027 31.740664701555758 -9.25 25.625 C-8.7021484375 24.806445312500003 -8.154296875 23.987890625000006 -7.58984375 23.14453125 C-6.372305288180371 21.502200499289984 -5.10308341902109 19.898073914797322 -3.8125 18.3125 C-0.23156370111772162 13.743719204874324 1.3205536992382747 9.82328866306819 0.6875 4.0625 C0.47678888447123313 2.705339159121202 0.25402960385639517 1.3497235578394466 0 0 Z " fill="#444141" transform="translate(197,42)"/>
<path d="M0 0 C5.664840468961785 4.280101687660007 8.651592695474818 8.089261284604838 9.9375 15.25 C10.49151063241743 21.79840567517408 7.945613578779245 27.59659499091974 3.875 32.625 C2 34 2 34 0 34 C0.2662719726562557 34.73822998046876 0.5325439453125114 35.47645996093749 0.806884765625 36.237060546875 C5.339091978904065 48.819372846963944 9.866023123501492 61.406018469379916 14.1875 74.0625 C14.490510253906251 74.92899169921876 14.793520507812502 75.7954833984375 15.105712890625 76.688232421875 C15.373757324218758 77.48334228515625 15.641801757812516 78.2784521484375 15.91796875 79.09765625 C16.15281982421874 79.78351806640624 16.387670898437506 80.4693798828125 16.629638671875 81.176025390625 C17 83 17 83 16 86 C13.847748390681346 81.30924482917781 11.697380957147772 76.61763168827369 9.548583984375 71.92529296875 C8.820882143843392 70.33685304700953 8.092709758413918 68.74862858883836 7.364013671875 67.16064453125 C4.89523862733509 61.780112032521885 2.440866937207346 56.39324967294395 0 51 C-0.34297119140624943 50.24448852539062 -0.6859423828124989 49.488977050781244 -1.039306640625 48.7105712890625 C-2.02416286886276 46.534097998083894 -2.999864538096489 44.35376294598184 -3.97265625 42.171875 C-4.266607818603518 41.524241943359385 -4.560559387207036 40.87660888671874 -4.8634185791015625 40.2093505859375 C-7.153351636550397 35.02926019820289 -8.61208709706095 30.54878597496669 -7 25 C-5.362799230501636 21.803953157780263 -3.550962995074187 18.794297170005947 -1.62890625 15.76171875 C1.5159272023678625 10.429830858335535 1.3212704948669796 6.019121143282959 0 0 Z " fill="#434141" transform="translate(128,42)"/>
<path d="M0 0 C3.528727428069544 4.602687949655959 4.477885881532529 7.394774442165286 4.40234375 13.203125 C3.4201840906376333 20.030564962169336 -0.7704547266328063 25.354972543565765 -6.0625 29.5625 C-8.968308097036584 31.54246521007292 -11.417083369698958 32.776067710606185 -15 33 C-15.381562500000001 34.21171874999999 -15.763125000000002 35.423437500000006 -16.15625 36.671875 C-18.271154543666114 43.001833483019254 -20.894294312901707 49.11022478508286 -23.5 55.25 C-24.05536272885132 56.56466532661739 -24.61044840683718 57.879447717750736 -25.165283203125 59.1943359375 C-26.07559130448044 61.350805001667425 -26.98645815430288 63.50703135441907 -27.898757934570313 65.66265869140625 C-30.179796826145008 71.05242115101396 -32.44912152742859 76.44701635313876 -34.713470458984375 81.84381103515625 C-36.44031580891021 85.95883467125745 -38.16991225010892 90.07269897081255 -39.89990234375 94.1864013671875 C-40.75745072486646 96.22677790500319 -41.61406084605409 98.26754904032532 -42.4697265625 100.3087158203125 C-43.678663559543025 103.19144816436878 -44.89158934786295 106.07247101347724 -46.10546875 108.953125 C-46.469523162841796 109.82364501953126 -46.83357757568359 110.69416503906251 -47.20866394042969 111.591064453125 C-47.547390289306634 112.39278076171877 -47.88611663818358 113.19449707031248 -48.235107421875 114.0205078125 C-48.52898849487303 114.71976379394533 -48.822869567871095 115.41901977539061 -49.12565612792969 116.13946533203125 C-50 118 -50 118 -52 121 C-52.66 121 -53.31999999999999 121 -54 121 C-53.39057546917647 116.30384626247752 -52.09736846301135 112.3176890102772 -50.3125 107.9375 C-50.180129394531264 107.61152832031252 -50.180129394531264 107.61152832031252 -49.51025390625 105.9619140625 C-47.29827587829729 100.57634204169602 -44.84664243430464 95.31411087080258 -42.3671875 90.046875 C-40.71558596114346 86.3661629991197 -39.39033368236815 82.61895655612204 -38.0625 78.8125 C-36.4324652909647 74.4977022407889 -34.413487671963 70.37580429011257 -32.4453125 66.20703125 C-30.713892446117683 62.36515053584492 -29.317946678041523 58.45593821439164 -27.9296875 54.48046875 C-26.833996675789052 51.55709197111787 -25.456273796390235 48.8694351080822 -24.0078125 46.109375 C-22.369944855964036 42.681279931087516 -21.169906611205278 39.10303565224666 -19.9296875 35.515625 C-18.199390140606454 30.8336439098763 -18.199390140606454 30.8336439098763 -17 29 C-15.01171875 28.12890625 -15.01171875 28.12890625 -12.6875 27.5625 C-7.4364271111787446 25.972030807712798 -4.775007094098669 23.761752251840463 -1.77734375 19.09765625 C1.6490477856344228 12.674623981505633 1.0960782321503757 7.041111252183214 0 0 Z " fill="#1F1F1F" transform="translate(261,97)"/>
<path d="M0 0 C5.416375982252447 3.6504890181756195 8.128209975383811 7.0865678879892045 9.703125 13.47265625 C10.367617544830068 19.12958620401382 8.089880696234985 23.833103470159443 6 29 C7.873398177923974 31.043155941619347 9.748666338315047 33.08454259012984 11.625 35.125 C12.147070312500006 35.694765625 12.669140624999997 36.264531250000005 13.20703125 36.8515625 C16.71584189437567 40.66360369388963 20.314288182023475 44.35856099665381 24 48 C23.67 48.66 23.340000000000003 49.31999999999999 23 50 C22.592736816406244 49.617792968749995 22.185473632812503 49.23558593749999 21.765869140625 48.841796875 C19.865869629212284 47.05999454013306 17.964448277922685 45.279722054703086 16.0625 43.5 C15.380424804687493 42.86159179687499 14.698349609375 42.22318359375001 13.99560546875 41.5654296875 C9.580602395815617 37.44420257087501 5.115519300333986 33.395391157591064 0.5390625 29.453125 C-1.3233254022862013 27.694728300379523 -1.9480366097912736 26.604225467543316 -2.16796875 24.046875 C-2.1985729090897763 20.447825891042996 -2.1924316647632907 17.55324103619445 -1 14.125 C0.4938084685545334 9.45684853576708 0.15572340106183447 4.8620306331527985 0 0 Z " fill="#454242" transform="translate(69,90)"/>
<path d="M0 0 C5.936449696697167 1.2720963635779654 8.63836925601504 4.214126947037002 12 9 C14.634453918107283 13.767107089908407 15.576669641345688 19.701201621549373 14.63671875 25.078125 C12.622476153995592 31.35564180227145 8.187176886062645 37.2065520906562 2.424560546875 40.44921875 C-1.3422121252218346 44.41208662615223 -0.7276381379670056 48.39302882614189 -0.70703125 53.671875 C-0.7221525573730503 54.709429321289065 -0.7372738647461006 55.74698364257813 -0.7528533935546875 56.81597900390625 C-0.7958163442175703 60.127538931170676 -0.8045770067997466 63.43818884229708 -0.8125 66.75 C-0.8356375080566352 68.9961180898047 -0.861001274882284 71.242214430977 -0.888671875 73.48828125 C-0.9516088777031939 78.99219604263986 -0.9864749972162485 84.49575399077241 -1 90 C-1.3300000000000125 90 -1.6599999999999966 90 -2 90 C-2.290477507838574 85.14802130856354 -2.574999305562642 80.29573909780774 -2.8544921875 75.443115234375 C-2.9499431111183867 73.79946954797315 -3.0468969554622447 72.15591030435176 -3.1455078125 70.512451171875 C-3.7755218348749793 59.99185986966417 -4.141687534920351 49.54096223334555 -4 39 C-3.674995117187507 38.84398315429688 -3.674995117187507 38.84398315429688 -2.0302734375 38.054443359375 C3.7633296579587636 35.216570322787874 6.380385710507483 32.89413215135819 9 27 C10.909482764885354 21.27155170534391 10.911857152582684 15.224374947130656 8.375 9.6875 C6.22336038203008 5.864082837132564 3.4828849963163577 3.612163747237261 0 1 C0 0.6700000000000017 0 0.3400000000000034 0 0 Z " fill="#1F1F1F" transform="translate(195,40)"/>
<path d="M0 0 C5.56225538610812 1.348425548147425 8.73442841261209 5.566898785938442 12 10 C14.876017250388088 18.628051751164307 12.961618576751022 26.41468882876704 9.19140625 34.40625 C6.588399718233205 40.07312323637099 7.478368233066533 43.53887111347191 9.34375 49.37890625 C9.591693115234364 50.18738510131837 9.839636230468756 50.99586395263671 10.0950927734375 51.82884216308594 C10.887167732964144 54.4097985451852 11.692171210940387 56.98643442965255 12.5 59.5625 C13.307333243393714 62.142268302730145 14.111550634282366 64.72276656044951 14.9049072265625 67.30686950683594 C15.398460556653362 68.91431576990136 15.900095400573548 70.51930712794125 16.4105224609375 72.12147521972656 C18.11263076868886 77.66210769393346 18.11263076868886 77.66210769393346 17 81 C15.016836222589518 75.63306302738286 13.039594353484347 70.26398742536085 11.06591796875 64.8935546875 C9.96651044588458 61.909088823780095 8.860276708390842 58.927203307439896 7.75390625 55.9453125 C7.023216669395055 53.963623077468654 6.292743273121516 51.98185392817888 5.5625 50 C5.208652343750003 49.0510888671875 4.854804687500007 48.102177734375005 4.490234375 47.12451171875 C4.164746093750011 46.237797851562505 3.8392578124999943 45.35108398437501 3.50390625 44.4375 C3.2133032226562364 43.652460937499995 2.922700195312501 42.86742187499999 2.623291015625 42.05859375 C2 40 2 40 2 37 C2.742500000000007 36.484375 3.4850000000000136 35.96875 4.25 35.4375 C8.641332972118107 31.545182138349873 10.763935765675257 26.46227543676281 11.1640625 20.59375 C10.739172986012505 14.685762472173877 8.851635084601213 9.628524271136072 4.40234375 5.52734375 C2.9417859951046808 4.3430144121061645 1.471594859954351 3.1705868204182295 0 2 C0 1.3400000000000034 0 0.6799999999999997 0 0 Z " fill="#1F1F1F" transform="translate(126,39)"/>
<path d="M0 0 C0.7992187499999943 0.018046875000003126 1.5984375000000028 0.03609374999999915 2.421875 0.0546875 C3.025156249999995 0.07789062500000199 3.628437500000004 0.10109374999999687 4.25 0.125 C2.340855759569422 1.3977628269537163 0.40502250612070156 2.6319864963275776 -1.5625 3.8125 C-10.374279821404258 10.205359870430541 -14.117537812565715 18.814523099215712 -16.75 29.125 C-19.46851600431289 26.406483995687097 -19.112616054760608 24.797056517432956 -19.1875 21 C-19.090405265187897 14.723518928217267 -17.960825208156734 10.784519697550486 -13.75 6.125 C-9.470816549861496 2.1589275340179697 -5.90335552297654 -0.1736281036169558 0 0 Z " fill="#747171" transform="translate(114.75,38.875)"/>
<path d="M0 0 C0.6187500000000057 0.020625000000002558 0.6187500000000057 0.020625000000002558 3.75 0.125 C2.143915419089126 1.1957230539405828 0.5361576617833634 2.2640659129127414 -1.08203125 3.31640625 C-10.256320194543349 9.667837057760778 -13.95968496379976 17.37659171607782 -16.25 28.125 C-18.14530528835394 26.531334810588334 -19.145985502467056 25.600093245488267 -19.68359375 23.14453125 C-19.695477670016317 16.430116440773716 -18.284913588688255 11.300744845703939 -13.56640625 6.36328125 C-9.392506371697522 2.6561400677657687 -5.776605308078274 -0.1925535102692777 0 0 Z " fill="#726F6F" transform="translate(183.25,38.875)"/>
<path d="M0 0 C-1.6007315650490455 1.0671543766993636 -3.205116319565562 2.1294550758878614 -4.83203125 3.15625 C-13.087014395006548 8.75726420489596 -16.911918806318766 16.7357564189563 -20 26 C-22.35020498054076 23.649795019459248 -22.319148017797175 23.080903778442178 -22.375 19.875 C-22.228325340980433 14.173022630614298 -20.48985711853399 9.623004558027787 -16.5390625 5.4609375 C-10.843931319345103 0.517447998010212 -7.32785627384844 -0.24426187579494751 0 0 Z " fill="#726F6F" transform="translate(61,87)"/>
<path d="M0 0 C-1.619596809431357 1.079731206287562 -3.2402973263099 2.157852218538295 -4.8671875 3.2265625 C-12.936635120775378 8.846917068555612 -16.30913341238309 16.092433710332358 -20 25 C-20.659999999999997 24.67 -21.319999999999993 24.340000000000003 -22 24 C-22.54332421529 17.480109416520037 -22.048813210186694 12.323853834389126 -18 7 C-11.931452693794228 1.4831388125402185 -8.06577457691671 -0.13009313833737224 0 0 Z " fill="#73706F" transform="translate(245,87)"/>
</svg>
