<?xml version="1.0" encoding="UTF-8"?>
<!-- Generator: visioncortex VTracer 0.6.12 -->
<svg version="1.1" xmlns="http://www.w3.org/2000/svg" width="300" height="300">
<path d="M0 0 C1.1240624999999795 -0.007734374999998295 2.248125000000016 -0.01546874999999659 3.40625 -0.0234375 C9.921096123820718 -0.008215896906961007 15.702678333583435 0.5689353178633709 22 2.25 C22.509104223517284 5.748737536086772 23.005606001728268 9.24915601223801 23.5 12.75 C23.643085937500018 13.732265624999997 23.78617187499998 14.71453125 23.93359375 15.7265625 C24.71357982744223 21.29789162458742 25.160716004366094 26.62493984718671 25 32.25 C26.319999999999993 32.08500000000001 26.319999999999993 32.08500000000001 33 31.25 C34.98000000000002 22.67 36.95999999999998 14.090000000000003 39 5.25 C51.33464932507934 5.25 59.695801885516346 5.899897148862642 70.37109375 11.3671875 C71.43126708984374 11.9071435546875 72.49144042968749 12.447099609375002 73.583740234375 13.00341796875 C73.98242309570313 13.209104003906248 73.98242309570313 13.209104003906248 76 14.25 C75.64189888968039 19.603861080223055 75.26899220510552 24.95642284097181 74.883056640625 30.308349609375 C74.7541035302497 32.12447949469808 74.62901503367098 33.94088849429397 74.508056640625 35.757568359375 C72.63700726927513 63.74631101310612 72.63700726927513 63.74631101310612 63 73.25 C56.51288056206087 78.25 56.51288056206087 78.25 53 78.25 C53.16798095703126 79.36568359375002 53.335961914062494 80.48136718749998 53.509033203125 81.630859375 C55.8484082447406 97.44648103019006 57.7584578670575 113.31052847398433 59.644287109375 129.18505859375 C60.10119978294233 133.03057684639177 60.56307217451587 136.87548194976864 61.026225090026855 140.72025299072266 C61.38604549385067 143.71229440385957 61.74311162507951 146.7046596110697 62.0993595123291 149.69712829589844 C62.268708951940624 151.11655848105514 62.438950309836144 152.53588256655618 62.61012840270996 153.95509338378906 C62.84732980918221 155.92480123670833 63.080371835825986 157.8950086314495 63.313232421875 159.865234375 C63.44630294799805 160.98103881835937 63.5793734741211 162.09684326171876 63.71647644042969 163.2464599609375 C63.970648301360654 165.93905934232978 64.05520057054616 168.54809592699596 64 171.25 C64.82499999999999 171.311875 65.65 171.37375 66.5 171.4375 C74.21208552513366 173.2278055683346 79.49874868517475 177.90732769274624 84 184.25 C88 195.25000000000003 88 195.25000000000003 88 223.25 C29.919999999999987 223.25 -28.16000000000001 223.25 -88 223.25 C-88 187.3701298701299 -88 187.3701298701299 -79.0703125 177.9765625 C-74.79193144937013 174.4085541521162 -69.65981316241093 171.25 -64 171.25 C-63.95137817382812 170.51753555297853 -63.90275634765625 169.78507110595703 -63.8526611328125 169.03041076660156 C-63.172917021261 159.48122836229433 -62.10183311552939 150.00021606552323 -60.96875 140.49609375 C-60.770635829419504 138.82033611792312 -60.572681444494606 137.14455958852605 -60.3748779296875 135.46876525878906 C-59.9630656846399 131.98507373213462 -59.54936706843483 128.50161302749208 -59.13427734375 125.018310546875 C-58.60277094922577 120.5567911739146 -58.076039052876965 116.09472300707719 -57.550682067871094 111.63247585296631 C-57.144215051467285 108.18447100754528 -56.73527390843903 104.73676309697694 -56.32557678222656 101.28914070129395 C-56.13025630859829 99.64300574300475 -55.93569958849699 97.99677997249404 -55.74192810058594 96.35046195983887 C-55.47174139605298 94.05812244309999 -55.198228953976795 91.7662035995227 -54.923828125 89.474365234375 C-54.769180908203126 88.17232650756836 -54.61453369140625 86.87028778076171 -54.4552001953125 85.52879333496094 C-54.106994508149555 83.02067822863597 -53.69360209291747 80.67849275432505 -53 78.25 C-53.845625 78.04375 -54.69125 77.8375 -55.5625 77.625 C-62.52041037520283 74.84183584991887 -66.40481739822971 70.26306317182708 -69.95703125 63.7890625 C-72.60874939276658 57.33356889401395 -73.38191606348906 50.83191995160695 -73.8515625 43.9375 C-73.9153207397461 43.083173828125 -73.97907897949219 42.22884765625 -74.04476928710938 41.3486328125 C-74.24471159057438 38.649519892884484 -74.43501374343599 35.94983007741601 -74.625 33.25 C-74.75977718292657 31.407505193982132 -74.8951877689107 29.56505660511054 -75.03125 27.72265625 C-75.3614890439535 23.232271723564324 -75.6830909588798 18.741344165936056 -76 14.25 C-74.12657150031745 13.283472171427803 -72.24955184977952 12.323903525892725 -70.37109375 11.3671875 C-69.84866088867187 11.099626464843752 -69.84866088867187 11.099626464843752 -67.204833984375 9.74560546875 C-57.765945519667966 5.340742915630834 -49.60522570631073 5.25 -39 5.25 C-38.010000000000005 9.54 -38.010000000000005 9.54 -33 31.25 C-30.36 31.58 -27.72 31.909999999999997 -25 32.25 C-24.951015624999997 31.173632812500003 -24.902031249999993 30.097265625000006 -24.8515625 28.98828125 C-24.401973948417194 19.94978623492301 -23.5976810911024 11.169093469746393 -22 2.25 C-14.574959444435933 0.2678917160994274 -7.664789783526885 -0.052739379244449935 0 0 Z " fill="#262626" transform="translate(150,48.75)"/>
<path d="M0 0 C1.499656279688736 4.860888108812333 2.4435843202610954 9.482617760989655 3.05322265625 14.552490234375 C3.14129684448244 15.27217987060547 3.2293710327148233 15.99186950683594 3.3201141357421875 16.733367919921875 C3.607101204233061 19.091130978753398 3.8858314662574003 21.449782674654728 4.1640625 23.80859375 C4.3626234613313954 25.46098622104128 4.561553284289062 27.11333440526286 4.760833740234375 28.765640258789063 C5.176245704552173 32.22069455735857 5.587640314216884 35.67619642606917 5.99609375 39.132080078125 C6.517964735268123 43.54536192665773 7.04914039343754 47.95746296315042 7.583261489868164 52.369277000427246 C7.995137642250967 55.779064328111474 8.402388025801088 59.189391946767984 8.808238983154297 62.59990119934082 C9.002261817727003 64.22623686840552 9.197616577587638 65.85241424541039 9.394367218017578 67.47842216491699 C9.669401126431808 69.75779750713104 9.938263719965533 72.03782198788963 10.20556640625 74.318115234375 C10.35941802978516 75.61160385131836 10.513269653320322 76.90509246826173 10.671783447265625 78.23777770996094 C11.017125688914831 82.19630529914124 11.056010124620855 86.02939166029088 11 90 C10.363525390625 89.93941406250002 9.72705078125 89.87882812499998 9.0712890625 89.81640625 C-9.058049070895322 88.17574216552984 -27.116643040850477 87.77878573710865 -45.3125 87.75 C-46.396319580078114 87.74500488281251 -47.480139160156256 87.74000976562502 -48.5968017578125 87.73486328125 C-63.63215737705326 87.67808109302825 -78.46425825437268 88.3771408506322 -93.43156433105469 89.82037353515625 C-96.29457006058573 90.02060109165728 -99.13092743668378 90.02870592865918 -102 90 C-100.71582979043858 79.00344856148098 -99.42946439964925 68.00715635167205 -98.14029788970947 57.011189460754395 C-97.54175245635587 51.90529026278551 -96.94396280000977 46.7993049445011 -96.347900390625 41.693115234375 C-95.77261481409641 36.76515248145995 -95.19534393957589 31.837425980868687 -94.61669731140137 26.90985679626465 C-94.39630892818255 25.030089935617298 -94.17663537214658 23.15023912425943 -93.95768928527832 21.27030372619629 C-93.6508509687932 18.636763609287783 -93.34146993726898 16.00353373541205 -93.031494140625 13.370361328125 C-92.94158203125 12.593524932861328 -92.851669921875 11.816688537597656 -92.759033203125 11.016311645507813 C-92.31949141618966 7.304936020086728 -91.80435667330497 3.650927681393881 -91 0 C-60.11357212194855 -4.755594565949977 -30.880272248904703 -3.9331092020831164 0 0 Z " fill="#555251" transform="translate(195,128)"/>
<path d="M0 0 C3.668252273456858 -0.0021717057269370343 7.336195779848026 -0.02033744627590295 11.00439453125 -0.039306640625 C66.88969214128161 -0.1726670375244055 66.88969214128161 -0.1726670375244055 79.85595703125 11.560302734375 C87.81926352518633 20.00553843975993 85.33642578125 32.68837933944678 85.33642578125 43.185302734375 C31.876425781249992 43.185302734375 -21.58357421875 43.185302734375 -76.66357421875 43.185302734375 C-76.66357421875 17.36500576143507 -76.66357421875 17.36500576143507 -69.441650390625 9.671630859375 C-63.491957174056324 4.698167684519859 -55.95284046237599 3.4079692001785986 -48.47607421875 2.497802734375 C-47.6323828125 2.381142578125008 -46.788691406249995 2.2644824218749875 -45.91943359375 2.144287109375 C-43.17071912026995 1.7803959636711966 -40.42139526147311 1.4720092232606135 -37.66357421875 1.185302734375 C-37.19612792968749 1.1363586425781307 -37.19612792968749 1.1363586425781307 -34.83056640625 0.888671875 C-23.246147069670258 -0.12365538383269836 -11.619322949747186 -0.0007669520098829707 0 0 Z " fill="#555251" transform="translate(145.66357421875,221.814697265625)"/>
<path d="M0 0 C0.5048851464795234 4.061908425799409 1.0030519003464633 8.12461350958921 1.5 12.1875 C1.6430859375000182 13.337988281250006 1.7861718749999795 14.488476562499997 1.93359375 15.673828125 C2.0689453125000057 16.78564453125 2.2042968750000114 17.8974609375 2.34375 19.04296875 C2.4065917968750057 19.553558349609375 2.4065917968750057 19.553558349609375 2.724609375 22.137451171875 C3 24.99999999999997 3 24.99999999999997 3 30 C9.599999999999994 30 16.19999999999999 30 23 30 C23.433125000000018 27.586874999999992 23.86624999999998 25.17375 24.3125 22.6875 C25.53660008634472 16.019088548580328 27.057983451959558 9.500934827482851 29 3 C36.86440353643525 2.268427578006026 45.453182701502925 4.635455134335281 52 9 C52.11333570729437 12.08763224196582 52.043719468554855 14.933419724073815 51.8125 18 C51.75425048828126 18.889775390625005 51.69600097656249 19.779550781249995 51.635986328125 20.6962890625 C51.444412190634495 23.466142020941646 51.225199964165256 26.23269563685156 51 29 C50.93651367187499 29.850136718750008 50.87302734375001 30.7002734375 50.8076171875 31.576171875 C50.62311201283072 33.97000824378627 50.4114766932187 36.359562449724876 50.1875 38.75 C50.12989501953126 39.46285156249999 50.072290039062494 40.175703125 50.012939453125 40.91015625 C49.34178303605586 47.238840955238075 47.23954874587025 52.536496379542726 42.9296875 57.27734375 C42.25164062499999 57.8251953125 41.573593749999986 58.373046875 40.875 58.9375 C40.191796874999994 59.50339843750001 39.50859374999999 60.06929687499999 38.8046875 60.65234375 C32.89150635368827 65.06803096964838 24.009565309634297 63.10702717070018 17.043212890625 62.287841796875 C6.229972051801667 61.03316106181224 -4.5639414640888845 60.72508952270658 -15.4375 60.6875 C-15.819732208251963 60.685858459472655 -15.819732208251963 60.685858459472655 -17.754058837890625 60.67755126953125 C-26.175680782036522 60.665825534599634 -34.48484574147977 60.9260182103157 -42.85546875 61.88671875 C-43.559553680419924 61.96615219116211 -44.26363861083985 62.04558563232422 -44.98905944824219 62.12742614746094 C-48.31509624712285 62.513440477980325 -51.617030533722044 62.95066055398166 -54.927490234375 63.459716796875 C-62.45650978408028 64.44801291915135 -66.76344699284671 63.9703419566264 -73.062255859375 59.577880859375 C-79.6836414571315 54.186169240589535 -81.78680259177085 47.05689745582556 -82.73046875 38.765625 C-82.89559098887182 36.92818691275366 -83.04762992292423 35.089532668851604 -83.1875 33.25 C-83.22770263671875 32.77038818359375 -83.22770263671875 32.77038818359375 -83.43115234375 30.34326171875 C-83.99446910269297 23.214722349183717 -84.2428630751806 16.150968324761806 -84 9 C-76.51554784939594 4.841971027442192 -69.57829747059509 2.9322789438282726 -61 3 C-59.996331545359254 7.1241163894147945 -58.99768621170894 11.249432692122497 -58 15.375 C-57.71382812499999 16.550624999999997 -57.42765625 17.726249999999993 -57.1328125 18.9375 C-56.997460937499994 19.498242187499997 -56.997460937499994 19.498242187499997 -56.3125 22.3359375 C-56.061132812500006 23.372827148437494 -55.809765625 24.409716796875003 -55.55078125 25.47802734375 C-55 28 -55 28 -55 30 C-48.400000000000006 30 -41.8 30 -35 30 C-34.87625 27.669375000000002 -34.7525 25.338750000000005 -34.625 22.9375 C-34.158546528118734 14.890549530867162 -33.179785838285284 6.972145082005397 -32 -1 C-21.252746797998952 -3.1601621884420723 -10.325203722658557 -4.340782090008453 0 0 Z " fill="#555251" transform="translate(166,58)"/>
<path d="M0 0 C1.499656279688736 4.860888108812361 2.4435843202610954 9.482617760989626 3.05322265625 14.552490234375 C3.14129684448244 15.27217987060547 3.2293710327148233 15.99186950683594 3.3201141357421875 16.733367919921875 C3.607101204233061 19.091130978753398 3.8858314662574003 21.449782674654728 4.1640625 23.80859375 C4.3626234613313954 25.46098622104128 4.561553284289062 27.11333440526286 4.760833740234375 28.765640258789063 C5.176245704552173 32.22069455735857 5.587640314216884 35.67619642606917 5.99609375 39.132080078125 C6.517964735268123 43.54536192665773 7.04914039343754 47.95746296315042 7.583261489868164 52.369277000427246 C7.995137642250967 55.779064328111474 8.402388025801088 59.189391946767984 8.808238983154297 62.59990119934082 C9.002261817727003 64.22623686840552 9.197616577587638 65.85241424541039 9.394367218017578 67.47842216491699 C9.669401126431808 69.75779750713104 9.938263719965533 72.03782198788963 10.20556640625 74.318115234375 C10.35941802978516 75.61160385131836 10.513269653320322 76.90509246826173 10.671783447265625 78.23777770996094 C11.012667557669403 82.1452034256869 11 86.07773309161115 11 90 C5.060000000000002 89.34 -0.8799999999999955 88.68 -7 88 C-7.079277343749993 87.25556640625001 -7.079277343749993 87.25556640625001 -7.48046875 83.48828125 C-10.011686005612091 60.92354185645081 -13.333477547370904 36.802933575764854 -27 18 C-27.60328125000001 17.165976562499992 -28.20656249999999 16.331953124999984 -28.828125 15.47265625 C-31.32529167359465 12.629658939954282 -34.03404321550414 10.541867744759458 -37.1875 8.5 C-37.78465820312499 8.11126708984375 -38.38181640625001 7.7225341796875 -38.9970703125 7.322021484375 C-45.1509883909975 3.5440330791877273 -51.622033756349765 1.7155403947219838 -58.578125 -0.02734375 C-62 -1 -62 -1 -64 -3 C-42.471486234115616 -5.004804290519317 -21.3766353492274 -2.7226651541132014 0 0 Z " fill="#454242" transform="translate(195,128)"/>
<path d="M0 0 C3.6682522734568295 -0.0021717057269370343 7.336195779848055 -0.02033744627590295 11.00439453125 -0.039306640625 C66.31913691668166 -0.1713055082052506 66.31913691668166 -0.1713055082052506 78.33642578125 10.185302734375 C80.83642578125 12.997802734375 80.83642578125 12.997802734375 82.33642578125 15.185302734375 C82.00642578124999 15.845302734374997 81.67642578125 16.505302734374993 81.33642578125 17.185302734375 C80.36189453124999 16.919755859375016 79.38736328125 16.654208984375003 78.38330078125 16.380615234375 C69.2018611083133 14.031951902437328 60.136979289587 12.714609723651762 50.68408203125 12.072021484375 C50.08055152893067 12.030361099243152 50.08055152893067 12.030361099243152 47.02632141113281 11.819534301757813 C33.74164128371308 10.978127838209474 20.4615720673701 10.845444586733748 7.156005859375 10.86962890625 C4.406490317474038 10.874257173507942 1.657417671628309 10.867318080966044 -1.092041015625 10.84912109375 C-16.260572994391566 10.74998551523825 -31.286112218240234 11.075893103955707 -46.39404296875 12.517333984375 C-47.01570594787597 12.575570907592777 -47.01570594787597 12.575570907592777 -50.16169738769531 12.870285034179688 C-58.1686647638584 13.708253075390616 -65.86455296448179 15.19529245739841 -73.66357421875 17.185302734375 C-71.52020390496925 11.167765421507 -68.15302696969948 8.436347517847082 -62.58544921875 5.638427734375 C-58.06070025862452 3.7689527854778646 -53.42986367436103 3.1829158802999302 -48.60107421875 2.560302734375 C-47.74835937500001 2.4391308593750125 -46.89564453125 2.3179589843749966 -46.01708984375 2.193115234375 C-30.692693992777706 0.10600284608565858 -15.44015956666351 -0.0010191524466449664 0 0 Z " fill="#767373" transform="translate(145.66357421875,221.814697265625)"/>
<path d="M0 0 C6.875 1.875 6.875 1.875 8 3 C7.960418571565128 5.992964934727965 7.853343299730909 8.950670422756701 7.6875 11.9375 C7.662886962890639 12.3846435546875 7.662886962890639 12.3846435546875 7.538330078125 14.6474609375 C7.182122498011125 20.689678604364317 6.764116557558083 26.724644961809844 6.1875 32.75 C6.129733886718753 33.46277099609375 6.071967773437507 34.175541992187505 6.012451171875 34.909912109375 C5.342860140453354 41.238627341844236 3.23927346142014 46.53679919243784 -1.0703125 51.27734375 C-1.7483593750000068 51.8251953125 -2.4264062500000136 52.373046875 -3.125 52.9375 C-3.8082031250000057 53.50339843750001 -4.491406250000011 54.06929687499999 -5.1953125 54.65234375 C-8.373407858007141 57.02559677708325 -10.386316754863088 57.1356256650748 -14.3125 57.125 C-15.257382812499998 57.127578125 -16.202265624999995 57.13015625 -17.17578125 57.1328125 C-19.885957355248934 57.0053630012746 -22.359735854608346 56.60596226287677 -25 56 C-24.298750000000013 55.44312500000001 -23.597499999999997 54.88624999999999 -22.875 54.3125 C-21.92625000000001 53.549375 -20.977499999999992 52.786249999999995 -20 52 C-19.00999999999999 51.29875 -18.02000000000001 50.5975 -17 49.875 C-5.914979675840783 40.34925363448211 -4.063582552409969 19.80917005323461 -1.89990234375 6.167724609375 C-1.0909005105709753 1.0909005105709753 -1.0909005105709753 1.0909005105709753 0 0 Z " fill="#454242" transform="translate(210,64)"/>
<path d="M0 0 C-0.34933593750000114 0.8224218750000034 -0.6986718750000023 1.6448437500000068 -1.05859375 2.4921875 C-1.513632812499992 3.6085156249999955 -1.9686718749999983 4.724843750000005 -2.4375 5.875 C-2.889960937500007 6.965546875000001 -3.3424218749999994 8.056093750000002 -3.80859375 9.1796875 C-6.727892435553258 17.477108849512433 -6.240567696707586 26.938105389847223 -6.5625 35.625 C-6.584091796875001 36.174785156249996 -6.584091796875001 36.174785156249996 -6.693359375 38.95703125 C-6.798264062513084 41.63792881977875 -6.900427263325412 44.318900009925855 -7 47 C-11.796300897026 42.203699102973985 -11.594021799520348 34.845218448088076 -12.125 28.4375 C-12.209916992187502 27.464741210937504 -12.294833984375003 26.491982421875008 -12.38232421875 25.48974609375 C-12.975466408160116 18.30640034312725 -13.244820472662838 11.208602806183393 -13 4 C-11.777792631459434 3.3206589316300494 -10.546815494334595 2.6570847733241436 -9.3125 2 C-8.628007812500002 1.6287499999999966 -7.943515625000003 1.2574999999999932 -7.23828125 0.875 C-4.684682963008143 -0.12326529892875016 -2.7182072883962576 -0.15233385854409676 0 0 Z " fill="#838180" transform="translate(95,63)"/>
<path d="M0 0 C0.5897460937499943 0.004511718750002558 0.5897460937499943 0.004511718750002558 3.57421875 0.02734375 C4.477851562500007 0.03894531249999744 5.381484375000014 0.05054687500000199 6.3125 0.0625 C5.541640625000014 0.6696484375000011 4.770781249999999 1.2767968750000023 3.9765625 1.90234375 C1.224261233117403 4.134048442941463 -1.2160517731795153 6.526013661947395 -3.6875 9.0625 C-4.2237499999999955 9.557500000000005 -4.759999999999991 10.052499999999995 -5.3125 10.5625 C-7.118725907352427 12.532928262566287 -8.325094542393344 14.77118173038879 -9.6875 17.0625 C-10.017500000000013 17.0625 -10.347499999999997 17.0625 -10.6875 17.0625 C-10.357499999999987 11.782499999999999 -10.027500000000003 6.502499999999998 -9.6875 1.0625 C-6.265170280393761 -0.07827657320207493 -3.60076782501568 -0.035651166584315774 0 0 Z " fill="#838180" transform="translate(143.6875,55.9375)"/>
<path d="M0 0 C6.625 -0.125 6.625 -0.125 10 1 C10 1.6599999999999966 10 2.3200000000000003 10 3 C8.42578125 4.55078125 8.42578125 4.55078125 6.3125 6.3125 C3.046990364482582 9.084993083085834 -0.019159846624972943 11.926008591832002 -3 15 C-2.3581208202788844 9.864966562231174 -1.3172775252527629 5.005654595960493 0 0 Z " fill="#817F7E" transform="translate(195,61)"/>
</svg>
