<?xml version="1.0" encoding="UTF-8"?>
<!-- Generator: visioncortex VTracer 0.6.12 -->
<svg version="1.1" xmlns="http://www.w3.org/2000/svg" width="300" height="300">
<path d="M0 0 C6.362384450103065 4.654090950815359 10.44170672642008 10.558585140728468 11.84765625 18.3515625 C12.341207619575158 23.677804363332 12.341207619575158 23.677804363332 10.4140625 26.30859375 C10.083417968749984 26.61474609375 10.083417968749984 26.61474609375 8.41015625 28.1640625 C-13.958350566673232 51.91578086894103 -17.476761542210966 91.56586551808527 -19.15234375 122.3515625 C-14.202343750000011 122.3515625 -9.252343749999994 122.3515625 -4.15234375 122.3515625 C-4.214218749999986 120.5365625 -4.276093750000001 118.7215625 -4.33984375 116.8515625 C-4.288718035022953 91.56989644384514 0.6156419916810023 64.69958388747848 14.84765625 43.3515625 C20.342971570893525 44.216678659165055 23.223832980270174 48.44687580104727 26.84765625 52.3515625 C27.131894531249998 52.6570703125 27.131894531249998 52.6570703125 28.5703125 54.203125 C47.24948330017827 74.9577592224203 61.83145635924532 99.76659385485965 61.03125 128.62109375 C59.58591668445737 150.11658284711265 54.47913632750175 171.5762174731124 38.84765625 187.3515625 C39.48123046875 187.4972265625 39.48123046875 187.4972265625 42.6875 188.234375 C54.59410088276289 191.08756423713757 64.56148971335605 193.85091072660134 71.84765625 204.3515625 C78.246269110571 217.37731010901953 75.84765625 227.31839707881272 75.84765625 243.3515625 C17.437656250000003 243.3515625 -40.97234375000001 243.3515625 -101.15234375 243.3515625 C-101.15234375 209.51822916666666 -101.15234375 209.51822916666666 -92.90234375 199.6640625 C-84.25873152766346 192.39557040394428 -75.07836518757401 189.54709872268035 -64.15234375 187.3515625 C-64.6486328125 186.719921875 -65.144921875 186.08828125 -65.65625 185.4375 C-81.18894785087343 164.98267588518755 -87.62672664707534 140.7496744565545 -84.9296875 115.24609375 C-80.36421284306776 82.51614163199281 -58.7099690434618 58.59540320669029 -36.15234375 36.3515625 C-36.383005371093745 35.76366943359375 -36.613666992187504 35.1757763671875 -36.851318359375 34.570068359375 C-39.79956448460089 26.864731412160097 -40.350511601060234 20.017686559050652 -37.58984375 12.1640625 C-34.38554495918106 5.076776632806734 -30.082957131556498 0.8631178982562133 -22.90234375 -2.1484375 C-15.084897294337054 -4.6362942595525425 -7.18564098494727 -4.101864874364143 0 0 Z " fill="#484848" transform="translate(160.15234375,28.6484375)"/>
<path d="M0 0 C4.388226398048118 2.526306038502476 7.335676314363866 5.4758664855762404 9.58984375 10.078125 C10.223979589709103 15.369879248606978 8.87594259241979 17.638316396628362 5.65234375 21.765625 C-4.545029149242055 35.62860052530117 -10.100119508127449 51.56725666903648 -14.41015625 68.078125 C-14.727265625000001 69.2846875 -15.044375000000002 70.49125 -15.37109375 71.734375 C-18.535528395217 84.64276186959809 -19.741992926443828 97.71545151208778 -20.53515625 110.953125 C-20.823906249999993 115.614375 -21.112656249999986 120.27562499999999 -21.41015625 125.078125 C-11.510156249999994 125.078125 -1.6101562499999886 125.078125 8.58984375 125.078125 C8.527968750000014 122.29374999999999 8.466093749999999 119.509375 8.40234375 116.640625 C8.272998589518863 94.25079026396298 10.678805817999063 68.63120054324047 22.58984375 49.078125 C40.30847075103577 63.40382342636934 55.858724057898996 86.07754532635596 58.58984375 109.078125 C60.213432718179234 132.0113191755318 57.5358895750133 155.6118007032287 42.2421875 173.8828125 C34.93552923611196 182.0579325226703 34.93552923611196 182.0579325226703 31.379150390625 182.2656707763672 C29.919548305137 182.2993078818326 28.4598033614497 182.3270212324489 27 182.350341796875 C26.20476425170898 182.36655075073242 25.40952850341796 182.38275970458983 24.590194702148438 182.3994598388672 C17.230372608402178 182.5400220624442 9.86932711526174 182.6178604974827 2.508453369140625 182.67837810516357 C-2.436919031757867 182.71930061708537 -7.380304042407516 182.77952157900026 -12.32470703125 182.887451171875 C-17.104737419458246 182.99144577763923 -21.882997544005832 183.0458219218675 -26.664093017578125 183.0658359527588 C-28.48226218233907 183.08173152141956 -30.30036930831082 183.11487838991158 -32.117889404296875 183.16599082946777 C-46.281761599957804 183.54505324747188 -46.281761599957804 183.54505324747188 -51.456298828125 179.97866821289063 C-53.784976328603236 177.45175835556788 -55.60987641614095 174.9994614211992 -57.41015625 172.078125 C-57.73359008789063 171.59610374450682 -57.73359008789063 171.59610374450682 -59.370361328125 169.1567840576172 C-70.94757948983778 151.45437885594734 -75.55959041302211 127.66689437862749 -71.72265625 106.8671875 C-68.81763458980993 93.48419704667822 -63.21415802550652 81.30260414945194 -55.41015625 70.078125 C-55.1072265625 69.632109375 -55.1072265625 69.632109375 -53.57421875 67.375 C-44.34930204943086 54.19654757061552 -32.767833473688 42.33236780263472 -20.41015625 32.078125 C-20.7594921875 31.4632421875 -21.108828125000002 30.848359375 -21.46875 30.21484375 C-21.923789062499992 29.4066015625 -22.378828124999984 28.598359375 -22.84765625 27.765625 C-23.300117187500007 26.9651171875 -23.752578125000014 26.164609374999998 -24.21875 25.33984375 C-26.500575626369226 21.00811575764662 -27.159386491747767 16.900756441135115 -26.41015625 12.078125 C-24.38091801196032 7.1278756659480464 -21.07915167869345 2.8315303625237433 -16.55859375 -0.0703125 C-11.251324989651437 -2.1739208450108904 -5.304034874394745 -2.0287718482287787 0 0 Z " fill="#F7F7F7" transform="translate(154.41015625,33.921875)"/>
<path d="M0 0 C1.363612176189946 -0.0032300058533962783 2.7272240378670745 -0.006595227309674101 4.0908355712890625 -0.0100860595703125 C6.9338561920845905 -0.016023694050915083 9.77684667961131 -0.017931764066048572 12.619873046875 -0.017333984375 C15.484846664217457 -0.01725311459722434 18.349659051411464 -0.024141797642982965 21.214599609375 -0.037841796875 C48.47662181780544 -0.16600113090777313 48.47662181780544 -0.16600113090777313 61.9765625 1.03515625 C62.4009233856201 1.072712783813472 62.4009233856201 1.072712783813472 64.54844665527344 1.2627716064453125 C75.17433899812684 2.3587802531920943 85.56882341769773 4.690899356791647 93.50390625 12.16796875 C100.6200586675763 21.3702261228658 98.50390625 31.724868252004143 98.50390625 43.16796875 C45.04390624999999 43.16796875 -8.416093750000002 43.16796875 -63.49609375 43.16796875 C-63.49609375 18.19337290704388 -63.49609375 18.19337290704388 -58.8046875 11.8984375 C-49.32873333634676 4.084237302415374 -39.5402857577383 2.257260847264689 -27.49609375 1.16796875 C-26.590507202148444 1.0850155639648449 -25.684920654296874 1.0020623779296898 -24.75189208984375 0.916595458984375 C-16.48930537958539 0.2189318108696625 -8.289613512197462 0.007299259263277236 0 0 Z " fill="#F8F8F8" transform="translate(130.49609375,221.83203125)"/>
<path d="M0 0 C10.379924163994417 9.675681521599529 16.234364975131882 26.989614871294094 17.20263671875 40.9140625 C17.303241933119637 44.02932048127684 17.328946932425055 47.1331871247821 17.3125 50.25 C17.31004272460939 50.8012353515625 17.31004272460939 50.8012353515625 17.297607421875 53.5908203125 C16.974627040952782 76.08350530185169 8.900307642336259 95.09969235766374 -7 111 C-8.35212690584757 111.06348339705949 -9.70764036730921 111.05723392622221 -11.060791015625 111.021728515625 C-11.921607818603519 111.001632232666 -12.782424621582038 110.98153594970705 -13.669326782226563 110.96083068847656 C-14.604738006591788 110.9337956237793 -15.540149230957041 110.90676055908204 -16.50390625 110.87890625 C-16.980413742065423 110.86710075378417 -16.980413742065423 110.86710075378417 -19.391830444335938 110.80735778808594 C-22.44886420942163 110.73051612903532 -25.505657575284573 110.64658053374148 -28.5625 110.5625 C-30.62954535557685 110.5092998183537 -32.69660259711378 110.45655930661178 -34.763671875 110.404296875 C-39.842601408415504 110.274873379714 -44.921326244914184 110.1390855819408 -50 110 C-50 109.67000000000002 -50 109.34 -50 109 C-48.824375 109.020625 -47.64875000000001 109.04124999999999 -46.4375 109.0625 C-33.734683454896356 107.60447231479156 -22.610996607294 96.70232535918953 -14 88 C-13.334843750000005 87.3567578125 -12.669687500000009 86.71351562500001 -11.984375 86.05078125 C-0.13502043242976924 73.74773517871651 6.13557822723331 55.166838962093806 6.4375 38.3125 C6.340323254212706 35.87257576117838 6.193597986869236 33.434172021569395 6 31 C5.974621582031261 30.672014160156266 5.974621582031261 30.672014160156266 5.84619140625 29.01220703125 C5.136229873570727 20.51504565015739 3.5594394550697075 12.579956937175865 0.8046875 4.4765625 C0 2 0 2 0 0 Z " fill="#D2D2D2" transform="translate(196,105)"/>
<path d="M0 0 C0.5981250000000102 0.35062499999999375 1.196249999999992 0.7012500000000017 1.8125 1.0625 C0.9668750000000159 1.8243359374999955 0.12125000000000341 2.586171875000005 -0.75 3.37109375 C-32.94288498887204 32.569070655146504 -44.64720486118162 69.33145179120834 -52.1875 111.0625 C-52.8475 110.73250000000002 -53.50749999999999 110.4025 -54.1875 110.0625 C-59.76979058394218 87.76779624808276 -55.75532517477026 64.94689736724166 -44.52734375 45.1328125 C-42.819114428105564 42.385637326292766 -41.03407677148451 39.71842744153943 -39.1875 37.0625 C-38.581640625000006 36.17046875 -37.97578125 35.278437499999995 -37.3515625 34.359375 C-31.810868103112824 26.444097290161167 -10.081071696963988 -4.32045929869885 0 0 Z " fill="#FAFAFA" transform="translate(138.1875,66.9375)"/>
<path d="M0 0 C6.822134387351781 6.642604535053053 6.822134387351781 6.642604535053053 7.37109375 10.83203125 C6.902850556838985 14.829349456879676 5.530642224095118 16.52743414385087 3.0625 19.6875 C-7.134872899242083 33.55047552530117 -12.689963258127449 49.48913166903648 -17 66 C-17.317109375 67.2065625 -17.634218750000002 68.413125 -17.9609375 69.65625 C-21.083938165797633 82.39561905256062 -22.313498811535368 95.31116119553664 -23.125 108.375 C-23.211746731375428 109.70836548900655 -23.29898442170554 111.04169912985978 -23.38671875 112.375 C-23.595939813977765 115.58305631432586 -23.800301486026342 118.79133931084789 -24 122 C-29.705993556232457 118.1490413859172 -30.8016723921002 112.43489182968858 -32.1875 106 C-36.41490201208718 79.87682346376897 -24.664021924567123 58.96902348523042 -12.25 36.82421875 C-5.50668586513865 24.733383997439446 -0.9552892953563514 13.901973166633262 0 0 Z " fill="#D1D1D1" transform="translate(157,36)"/>
</svg>
