<?xml version="1.0" encoding="UTF-8"?>
<!-- Generator: visioncortex VTracer 0.6.12 -->
<svg version="1.1" xmlns="http://www.w3.org/2000/svg" width="300" height="300">
<path d="M0 0 C12.210000000000008 0 24.420000000000016 0 37 0 C37 6.600000000000001 37 13.200000000000003 37 20 C43.599999999999994 20 50.19999999999999 20 57 20 C57 32.54 57 45.08 57 58 C54.19499999999999 58.16499999999999 54.19499999999999 58.16499999999999 40 59 C40.33000000000001 61.97 40.66 64.94 41 68 C41.98097656249999 67.662265625 42.96195312500001 67.32453125 43.97265625 66.9765625 C64.31266100983771 60.17368984356753 85.24389862030208 57.77290705569436 105.25 67.125 C119.25255515248645 74.60452834012995 128.07892900674142 85.4146347565539 132.99609375 100.42578125 C137.8000999989846 117.52953890689076 136.4172898781303 133.34187480537088 127.9375 149 C124.45156724108278 154.7274250060489 120.23775044495909 159.45766356035654 115.6171875 164.26953125 C113.53480706453516 166.44204456998497 111.56249427296157 168.63853291491873 109.625 170.9375 C106.97469469729612 174.01671944589512 104.13973240462195 176.846752624563 101.234619140625 179.68115234375 C95.40445370537145 185.3742822226788 90.32460708660616 191.03345112957626 86 198 C86.7425 198.110859375 87.48500000000001 198.22171875 88.25 198.3359375 C93.77538354235602 199.6701920485803 98.2761171336366 203.76595404992065 101.8125 208.125 C109.18344790565044 221.18210771858077 107 234.1678709204848 107 249 C48.59 249 -9.820000000000007 249 -70 249 C-70 215.05714285714285 -70 215.05714285714285 -62 205 C-57.96398591569485 201.11405297558096 -54.58488700353389 198.86144704213953 -49 198 C-56.36675845987534 186.89102238638608 -65.51313317627779 177.2142104181087 -75.09765625 167.98828125 C-87.97879436370395 155.57818334861153 -97.9096605102318 141.2105966837194 -98.29248046875 122.80419921875 C-98.42447139942055 104.72788029886816 -94.21119130222533 89.74190523557374 -81.484375 76.2890625 C-69.32293660052935 65.08371202501603 -54.02884517361356 60.46957427427648 -37.73046875 60.7421875 C-26.61718440876396 61.51022599897547 -15.542718009099715 63.37053970178533 -5 67 C-4.010000000000005 64.03 -3.019999999999982 61.06 -2 58 C-7.939999999999998 58 -13.879999999999995 58 -20 58 C-20 45.46000000000001 -20 32.92 -20 20 C-13.400000000000006 20 -6.799999999999997 20 0 20 C0 13.399999999999999 0 6.799999999999997 0 0 Z M-39.375 114.625 C-41.592996397834156 117.86668704298839 -42.37902835317965 121.12701937296441 -42 125 C-40.24773718811123 129.16709999952297 -38.13542016369294 132.2721292474424 -35.0625 135.5625 C-34.28003906250001 136.4094140625 -33.497578125000004 137.256328125 -32.69140625 138.12890625 C-32.247324218749995 138.60263671875 -32.247324218749995 138.60263671875 -30 141 C-28.37466490214888 142.74528230817316 -26.751602982672367 144.49262240758011 -25.130615234375 146.241943359375 C-24.056166222312072 147.40036637717185 -22.978916254743964 148.5561987041527 -21.898681640625 149.709228515625 C-18.11076934970842 153.77846130058316 -18.11076934970842 153.77846130058316 -17 156 C-14.36 156 -11.719999999999999 156 -9 156 C-9 143.46 -9 130.92 -9 118 C-19.142063149654845 112.36552047241398 -28.706415660908647 107.32544229430593 -39.375 114.625 Z M58.1875 112.25 C57.3766796875 112.48203125 56.565859375 112.71406250000001 55.73046875 112.953125 C53 114 53 114 46 118 C46 130.54 46 143.07999999999998 46 156 C54 156 54 156 56.328125 154.26953125 C56.645234375 153.86412109375 56.645234375 153.86412109375 58.25 151.8125 C60.79888513842462 148.69177802182446 63.3214362623128 145.60750827390206 66.09765625 142.6875 C66.63036132812499 142.12699951171874 67.16306640625001 141.5664990234375 67.7119140625 140.989013671875 C68.75124496787689 139.9003795463071 69.79340750064458 138.81443920878542 70.8388671875 137.731689453125 C75.08581518143376 133.2116828456868 78.57171985912294 128.71244089222148 79.5625 122.4375 C78.82147374897332 117.90900624372586 77.37019159587331 116.08336677920323 74 113 C68.40233265468646 110.8394968140895 63.91468221282378 110.55439329762066 58.1875 112.25 Z " fill="#F7F7F7" transform="translate(132,23)"/>
<path d="M0 0 C12.210000000000008 0 24.420000000000016 0 37 0 C37 6.600000000000001 37 13.200000000000003 37 20 C43.599999999999994 20 50.19999999999999 20 57 20 C57 32.54 57 45.08 57 58 C54.19499999999999 58.16499999999999 54.19499999999999 58.16499999999999 40 59 C40.33000000000001 61.97 40.66 64.94 41 68 C41.98097656249999 67.662265625 42.96195312500001 67.32453125 43.97265625 66.9765625 C64.31266100983771 60.17368984356753 85.24389862030208 57.77290705569436 105.25 67.125 C119.25255515248645 74.60452834012995 128.07892900674142 85.4146347565539 132.99609375 100.42578125 C137.8000999989846 117.52953890689076 136.4172898781303 133.34187480537088 127.9375 149 C124.45156724108278 154.7274250060489 120.23775044495909 159.45766356035654 115.6171875 164.26953125 C113.53480706453516 166.44204456998497 111.56249427296157 168.63853291491873 109.625 170.9375 C106.97469469729612 174.01671944589512 104.13973240462195 176.846752624563 101.234619140625 179.68115234375 C95.40445370537145 185.3742822226788 90.32460708660616 191.03345112957626 86 198 C86.7425 198.110859375 87.48500000000001 198.22171875 88.25 198.3359375 C93.77538354235602 199.6701920485803 98.2761171336366 203.76595404992065 101.8125 208.125 C109.18344790565044 221.18210771858077 107 234.1678709204848 107 249 C48.59 249 -9.820000000000007 249 -70 249 C-70 215.05714285714285 -70 215.05714285714285 -62 205 C-57.96398591569485 201.11405297558096 -54.58488700353389 198.86144704213953 -49 198 C-56.36675845987534 186.89102238638608 -65.51313317627779 177.2142104181087 -75.09765625 167.98828125 C-87.97879436370395 155.57818334861153 -97.9096605102318 141.2105966837194 -98.29248046875 122.80419921875 C-98.42447139942055 104.72788029886816 -94.21119130222533 89.74190523557374 -81.484375 76.2890625 C-69.32293660052935 65.08371202501603 -54.02884517361356 60.46957427427648 -37.73046875 60.7421875 C-26.61718440876396 61.51022599897547 -15.542718009099715 63.37053970178533 -5 67 C-4.010000000000005 64.03 -3.019999999999982 61.06 -2 58 C-7.939999999999998 58 -13.879999999999995 58 -20 58 C-20 45.46000000000001 -20 32.92 -20 20 C-13.400000000000006 20 -6.799999999999997 20 0 20 C0 13.399999999999999 0 6.799999999999997 0 0 Z M7 7 C7 13.600000000000001 7 20.200000000000003 7 27 C0.4000000000000057 27 -6.200000000000003 27 -13 27 C-13 34.59 -13 42.18000000000001 -13 50 C-6.400000000000006 50 0.19999999999998863 50 7 50 C4.562500000000568 58.99999999999797 4.562500000000568 58.99999999999797 3.799072265625 61.78515625 C2.4450254713806316 66.85970365727668 1.526287838286322 71.7734173301221 1 77 C-0.08796875000001592 76.590078125 -1.1759375000000034 76.18015625 -2.296875 75.7578125 C-3.781047490961555 75.21298968686222 -5.265434357949218 74.66875061846835 -6.75 74.125 C-7.460273437500007 73.8555859375 -8.170546875 73.586171875 -8.90234375 73.30859375 C-19.227693157425534 69.56222803580135 -29.641698171866125 68.63850748525434 -40.5625 68.625 C-41.085537109375 68.61275390624999 -41.085537109375 68.61275390624999 -43.732421875 68.55078125 C-56.49674697576759 68.50324186414984 -67.39665860085117 73.3916271042554 -77 81.73828125 C-88.22108153574447 93.43525686873363 -91.63040538393896 108.39615654270912 -91.30859375 124.0390625 C-90.48166014426167 142.24532686534255 -77.9262115985239 155.27479718209972 -65.56640625 167.37890625 C-64.37722732649033 168.5438862898744 -63.18842854156367 169.70925448445118 -62 170.875 C-61.41097900390625 171.45274169921876 -60.8219580078125 172.0304833984375 -60.215087890625 172.625732421875 C-55.08549081328698 177.741176934508 -50.65383456102194 183.25667379386854 -46.3046875 189.0390625 C-42.102495979864386 194.43781024959796 -42.102495979864386 194.43781024959796 -40 196 C-37.00390625 195.98828125 -37.00390625 195.98828125 -33.5625 195.3125 C-21.905439111361616 193.11076080550632 -10.202510081805926 192.842353565523 1.63671875 192.83203125 C3.0099134469715523 192.82880272271237 4.383107828639083 192.82543758330965 5.7563018798828125 192.8219451904297 C8.616107123437246 192.81600987471626 11.475882407727767 192.81409941933336 14.335693359375 192.814697265625 C17.228009739165657 192.8147784033471 20.120167320033687 192.80784657426216 23.012451171875 192.794189453125 C39.488099376650126 192.71752091773038 55.78232738358659 192.67892993015894 72.064208984375 195.5380859375 C74.85817287351225 195.99623216608862 76.35893463046625 196.04893376378647 79 195 C81.78923885025102 192.1546019782674 83.98606879672295 189.1162088821329 86.2421875 185.84375 C89.11524481099207 181.70857700492977 92.41503178916642 178.08621086524036 95.875 174.4375 C96.46917724609375 173.80521484375 97.0633544921875 173.1729296875 97.675537109375 172.521484375 C100.47100085843337 169.57145551986002 103.30409373795152 166.67913599923273 106.24609375 163.875 C118.0772310967103 152.58316316107752 127.89997248842127 139.57468818888157 128.4150390625 122.66015625 C128.4845083816915 114.43257253357439 128.13675389717685 106.7085409537909 125 99 C124.67128906250002 98.1659765625 124.34257812499999 97.331953125 124.00390625 96.47265625 C118.61130894941459 84.36263670647081 109.13620018802723 75.90499465675035 96.818115234375 71.159423828125 C90.15988259661219 68.91517293503276 83.9297399210638 68.49490293966488 76.9375 68.5625 C76.39085693359374 68.56592407226563 76.39085693359374 68.56592407226563 73.62451171875 68.583251953125 C60.07274529465275 68.84903141803127 48.06463411488326 71.64196387898161 36 78 C35.87625 76.873359375 35.7525 75.74671875 35.625 74.5859375 C35.033807175874585 69.86263990161763 34.0545798129466 65.26362280042446 33 60.625 C32.822109375 59.8193359375 32.64421874999999 59.013671875 32.4609375 58.18359375 C31.13245630699089 52.264912613981764 31.13245630699089 52.264912613981764 30 50 C36.599999999999994 50 43.19999999999999 50 50 50 C50 42.41 50 34.82 50 27 C43.400000000000006 27 36.80000000000001 27 30 27 C30 20.4 30 13.799999999999997 30 7 C22.409999999999997 7 14.819999999999993 7 7 7 Z " fill="#484848" transform="translate(132,23)"/>
<path d="M0 0 C3.9048383508265943 -0.009715945137656945 7.809151118592581 -0.04086303283989423 11.7138671875 -0.072265625 C61.81115572439103 -0.2823113443071179 61.81115572439103 -0.2823113443071179 74.7998046875 9.677734375 C83.95508732356845 19.555802482337015 82.1748046875 29.61122771464602 82.1748046875 43.240234375 C28.384804687500008 43.240234375 -25.4051953125 43.240234375 -80.8251953125 43.240234375 C-80.8251953125 18.844489694148933 -80.8251953125 18.844489694148933 -74.9892578125 12.126953125 C-64.56163283790102 2.478403579537712 -50.72390813906745 1.2983813445336523 -37.0986328125 0.669921875 C-36.25629089355468 0.6299810791015545 -35.41394897460938 0.5900402832031375 -34.54608154296875 0.54888916015625 C-23.036463484835267 0.0584144693449673 -11.518409044452653 0.017256043512276165 0 0 Z " fill="#F8F8F8" transform="translate(149.8251953125,221.759765625)"/>
<path d="M0 0 C8.215846189726562 4.308309587295639 8.215846189726562 4.308309587295639 11.203125 7.6796875 C12.299542310753935 11.307434164454378 12.163985463098669 14.748416731442035 12.01953125 18.51171875 C12.010583343505857 19.54407150268554 12.001635437011714 20.57642425537108 11.992416381835938 21.640060424804688 C11.95437553666423 24.9259219857839 11.860146191471017 28.207515968397303 11.765625 31.4921875 C11.734060298588702 33.720655419637694 11.706025963071824 35.94917633121548 11.681640625 38.177734375 C11.62317875437742 42.23478826083965 11.556918838206457 46.29099765934836 11.443603515625 50.346923828125 C11.432649002075209 50.754239883422855 11.432649002075209 50.754239883422855 11.377212524414063 52.81550598144531 C11.203125 54.6796875 11.203125 54.6796875 10.203125 55.6796875 C-4.070161242106224 57.870829820409824 -4.070161242106224 57.870829820409824 -9.6455078125 54.5927734375 C-13.084224023163486 51.65738461460009 -15.744145049922395 48.10649279919238 -18.41455078125 44.47998046875 C-20.20161208081099 42.152571421953326 -22.191107238708653 40.08355477174422 -24.2333984375 37.98095703125 C-36.99686684501195 24.77124380161527 -36.99686684501195 24.77124380161527 -37.359375 15.4296875 C-36.92024677941107 9.320077474414887 -34.93870684178866 5.523373875128726 -30.421875 1.4296875 C-21.30931918541974 -6.309743465807884 -10.30199983272567 -4.0415537805308475 0 0 Z M-27.171875 7.3046875 C-29.389871397834156 10.546374542988389 -30.175903353179635 13.806706872964412 -29.796875 17.6796875 C-28.04461218811123 21.846787499522975 -25.932295163692928 24.951816747442393 -22.859375 28.2421875 C-22.076914062499995 29.08910156249999 -21.294453125000004 29.936015624999982 -20.48828125 30.80859375 C-20.04419921875001 31.282324218750006 -20.04419921875001 31.282324218750006 -17.796875 33.6796875 C-16.17153990214888 35.42496980817316 -14.548477982672381 37.172309907580114 -12.927490234375 38.921630859375 C-11.853041222312072 40.08005387717185 -10.775791254743964 41.235886204152706 -9.695556640625 42.388916015625 C-5.90764434970842 46.45814880058316 -5.90764434970842 46.45814880058316 -4.796875 48.6796875 C-2.1568749999999994 48.6796875 0.48312500000000114 48.6796875 3.203125 48.6796875 C3.203125 36.13968750000001 3.203125 23.599687499999987 3.203125 10.6796875 C-6.938938149654845 5.0452079724139764 -16.503290660908647 0.005129794305929636 -27.171875 7.3046875 Z " fill="#4B4B4B" transform="translate(119.796875,130.3203125)"/>
<path d="M0 0 C3.2269801630680774 2.940603135609649 5.1779146128812386 5.788232143597227 7.125 9.6875 C7.622578125000018 10.660742187500006 8.12015624999998 11.633984374999997 8.6328125 12.63671875 C13.257240276129494 24.012811079278606 14.380097889329079 39.336232457918214 10.4375 51.0625 C4.211368530057769 64.99510189077978 -6.148138043384705 75.1920164084662 -16.828369140625 85.743896484375 C-22.594328135637966 91.49261793381243 -28.213316237903882 97.51707394793237 -32.52734375 104.45703125 C-35.86059305002374 109.72928983812619 -35.86059305002374 109.72928983812619 -39.203125 110.5234375 C-41.86229597257716 110.56524836434869 -44.36178456790947 110.33399882426181 -47 110 C-49.041576671096834 109.83223453398068 -51.083242315645094 109.6655479203531 -53.125 109.5 C-54.75046229625207 109.33790403693885 -56.37565502838973 109.17293406541859 -58 109 C-58 108.67000000000002 -58 108.34 -58 108 C-57.11263656616211 107.76097961425779 -56.22527313232422 107.52195922851564 -55.31101989746094 107.27569580078125 C-51.6540246472517 105.86669989358467 -49.80245993096389 104.32611043296501 -47.023681640625 101.5888671875 C-46.085732574462895 100.6732098388672 -45.14778350830079 99.75755249023439 -44.18141174316406 98.81414794921875 C-43.173591839559805 97.80912654634255 -42.166525810336736 96.80334868886018 -41.16015625 95.796875 C-40.10968736263669 94.75673860190949 -39.0588538546497 93.71697033072743 -38.00767517089844 92.67755126953125 C-35.80612166416327 90.4954092453379 -33.61270699434908 88.30544709951212 -31.424072265625 86.1103515625 C-28.64777182642908 83.32809664564539 -25.84736423052189 80.57164336292718 -23.039315223693848 77.82148361206055 C-20.85883867357282 75.6784061369994 -18.695020678912783 73.51906131766316 -16.535245895385742 71.35514068603516 C-15.511177335507313 70.33390590330237 -14.481634183589023 69.31812506490576 -13.446123123168945 68.3084945678711 C-2.3548635481031965 57.465379949670194 4.67218179705219 45.21757072046927 5.375 29.5 C5.269670633567046 22.050341174105455 3.3150064462020055 15.061357806675005 1.45751953125 7.8955078125 C0.8274371108489902 5.28507029275967 0.3953228924972052 2.654905320139065 0 0 Z " fill="#D1D1D1" transform="translate(248,108)"/>
<path d="M0 0 C4.293728909880741 3.226183879270536 6.568858496838857 6.714113627654427 7.60546875 11.9921875 C8.083520738964637 19.605165424262054 5.016339703271683 25.96173785079438 0.35546875 31.859375 C-1.6031616899406345 34.02062238200344 -3.6140030745135334 36.10498767009378 -5.67578125 38.16796875 C-10.116432465166326 42.66267747940054 -14.168688653130857 46.93367055691115 -17.73828125 52.16796875 C-19.602544640571722 54.34957794434396 -21.00148948355664 55.48864098998226 -23.884597778320313 55.879486083984375 C-26.30550050771049 55.94387187960217 -28.700882132903644 55.90491459769356 -31.12109375 55.8203125 C-31.541046142578125 55.81255798339845 -31.541046142578125 55.81255798339845 -33.666259765625 55.7733154296875 C-35.73229655640699 55.73293446895792 -37.797898216238025 55.67128338896691 -39.86328125 55.60546875 C-40.09210316909963 48.898374871871226 -40.24933742175142 42.19229156911234 -40.357666015625 35.482177734375 C-40.40283553535562 33.2015217327787 -40.464187869982055 30.921125068217805 -40.542236328125 28.641357421875 C-40.65184735937356 25.356608544262627 -40.702539370786894 22.075310780453208 -40.7421875 18.7890625 C-40.788639068603516 17.77525009155272 -40.83509063720703 16.76143768310547 -40.88294982910156 15.716903686523438 C-40.886002854586195 11.40325005676496 -40.850777503794376 8.709603436594847 -37.90043640136719 5.4107818603515625 C-26.911896130565538 -3.2724488623419603 -12.790562162542102 -7.353028489577341 0 0 Z M-20.67578125 4.85546875 C-21.4866015625 5.087500000000006 -22.297421874999998 5.319531250000011 -23.1328125 5.55859375 C-25.86328125 6.60546875 -25.86328125 6.60546875 -32.86328125 10.60546875 C-32.86328125 23.145468749999992 -32.86328125 35.685468749999984 -32.86328125 48.60546875 C-24.86328125 48.60546875 -24.86328125 48.60546875 -22.53515625 46.875 C-22.218046875 46.469589843749986 -22.218046875 46.469589843749986 -20.61328125 44.41796875 C-18.064396111575377 41.29724677182446 -15.541844987687199 38.212977023902056 -12.765625 35.29296875 C-12.232919921875009 34.732468261718736 -11.70021484374999 34.1719677734375 -11.1513671875 33.594482421875 C-10.112036282123114 32.50584829630711 -9.069873749355423 31.419907958785416 -8.0244140625 30.337158203125 C-3.777466068566241 25.817151595686795 -0.2915613908770638 21.31790964222148 0.69921875 15.04296875 C-0.04180750102668185 10.514474993725855 -1.4930896541266918 8.688835529203232 -4.86328125 5.60546875 C-10.460948595313539 3.4449655640895003 -14.948599037176223 3.1598620476206634 -20.67578125 4.85546875 Z " fill="#484848" transform="translate(210.86328125,130.39453125)"/>
<path d="M0 0 C0.6654545974731434 -0.0028273773193348006 1.3309091949462868 -0.005654754638669601 2.016529083251953 -0.00856781005859375 C5.544389046727872 -0.023424479185791824 9.072209611512733 -0.03273669290726389 12.60009765625 -0.037109375 C15.458301929278804 -0.04147279891563471 18.316200735558425 -0.05530079695355994 21.17431640625 -0.078125 C66.23419713046476 -0.43051355517008005 66.23419713046476 -0.43051355517008005 76.5390625 5.203125 C75.54906249999999 6.853125000000006 74.55906249999998 8.503125000000011 73.5390625 10.203125 C71.76818167491467 10.05786950474868 69.99736113847408 9.911879017154774 68.2265625 9.765625 C67.24042968750001 9.684414062499997 66.254296875 9.603203124999993 65.23828125 9.51953125 C63.23941706909412 9.348561874442055 61.24084318231354 9.171264216205799 59.24603271484375 8.958145141601563 C51.83163608120719 8.196622022841353 44.49230607883868 8.057671848235827 37.04296875 8.0703125 C35.774203948974616 8.069355773925793 34.50543914794923 8.068399047851557 33.19822692871094 8.067413330078125 C30.523147786363495 8.06673601950888 27.848161436792395 8.068045489501628 25.173095703125 8.07275390625 C22.47483104992267 8.077280789037957 19.77663366271929 8.077350189542386 17.078369140625 8.07275390625 C-20.685716547208457 8.012682555507638 -20.685716547208457 8.012682555507638 -39.4609375 10.203125 C-40.450937499999995 8.22312500000001 -41.440937500000004 6.243124999999992 -42.4609375 4.203125 C-40.618874528020584 2.361062028020598 -37.69672324910135 2.553544136437182 -35.2109375 2.203125 C-34.641171875 2.1206249999999898 -34.641171875 2.1206249999999898 -31.7578125 1.703125 C-21.194157491859826 0.3872874335654046 -10.635837384985109 0.035854669450344545 0 0 Z " fill="#303030" transform="translate(133.4609375,214.796875)"/>
<path d="M0 0 C6.930000000000007 0 13.860000000000014 0 21 0 C21 0.990000000000002 21 1.9799999999999969 21 3 C13.740000000000009 3 6.47999999999999 3 -1 3 C-0.6699999999999875 2.009999999999998 -0.3400000000000034 1.0200000000000031 0 0 Z " fill="#FFFFFF" transform="translate(161,51)"/>
</svg>
