<?xml version="1.0" encoding="UTF-8"?>
<!-- Generator: visioncortex VTracer 0.6.12 -->
<svg version="1.1" xmlns="http://www.w3.org/2000/svg" width="300" height="300">
<path d="M0 0 C2.405029296874986 1.8642578124999858 2.405029296874986 1.8642578124999858 4.57421875 4.453125 C5.396398925781256 5.381169433593747 6.218579101562511 6.309213867187502 7.065673828125 7.265380859375 C7.498275146484389 7.757843017578125 7.498275146484389 7.757843017578125 9.6875 10.25 C18.597141925123537 19.945524536938585 25.62845318105059 23.52144079268254 38.67919921875 24.69677734375 C59.69298910370057 27.44231984712772 80.41622727775032 43.79689455192232 93 60 C102.42253312115992 73.36479369530373 108.5050227161527 88.07063117362061 112 104 C112.2255859375 104.9732421875 112.451171875 105.94648437500001 112.68359375 106.94921875 C118.21389559770901 135.5160882943727 110.37661055454356 162.89856039050144 102 190 C102.78318603515626 190.14244140625 103.5663720703125 190.2848828125 104.373291015625 190.431640625 C111.4043347419302 191.95299667991574 115.94418220592678 197.74914329040476 119.7734375 203.4609375 C123.60341251497684 211.38922972845526 123.24335879053513 219.37801733563322 123.125 228 C123.11597656250001 229.25167968749997 123.10695312499999 230.503359375 123.09765625 231.79296875 C123.07422715570183 234.86218010306027 123.04142147187792 237.93098756055178 123 241 C100.0697227672652 241.02332650933204 77.13944748153858 241.04097795247458 54.209160804748535 241.05181217193604 C43.563020494382414 241.05697565788455 32.916887541813054 241.06401935274613 22.270751953125 241.075439453125 C12.99513078917002 241.08538468868016 3.7195149517523305 241.09185304336268 -5.556111395359039 241.09408849477768 C-10.470676808291898 241.0953958753829 -15.385226978354908 241.09848344698378 -20.299787521362305 241.1057300567627 C-24.919943481412005 241.1124877455647 -29.540077833571758 241.11461747745443 -34.16023826599121 241.1131076812744 C-35.86106737453048 241.11338412329684 -37.561897162374095 241.1153907311937 -39.26272201538086 241.11920547485352 C-41.574543372964186 241.12413880974134 -43.88628181052158 241.12299963863722 -46.19810485839844 241.12025451660156 C-47.49506758689881 241.12117630958556 -48.792030315399174 241.12209810256957 -50.128294944763184 241.12304782867432 C-53.000000000000014 241 -53.000000000000014 241 -54 240 C-54.75943749724064 226.27714103823303 -55.409315327984515 209.3195294359805 -46.5 198.11328125 C-43.360756745287304 194.64703348958807 -40.826365347425366 192.81187999567473 -36.375 191.375 C-33.16963255781428 190.10801354481174 -32.202900041005364 189.38264301211336 -30.5625 186.2890625 C-29.749913672139428 184.03841221033355 -28.970102463489923 181.77573211089012 -28.21875 179.50390625 C-24.34738804839526 168.37374063913637 -17.076909161105107 160.24517810196147 -9 152 C-8.381249999999994 151.342578125 -7.762500000000003 150.68515625 -7.125 150.0078125 C-1.5120967929267408 144.15204328877454 4.939050339837934 139.18829211897668 11.30859375 134.1875 C17.489442906227225 129.14000125616224 21.99002530167337 123.1053665663174 23 115 C22.5625 112.68750000000003 22.5625 112.68750000000003 22 111 C21.556562499999984 111.4846875 21.556562499999984 111.4846875 19.3125 113.9375 C8.99012816869461 124.23889140075394 -1.6857614778798506 129.68602482840922 -16.046875 131.47265625 C-20.702620176635293 132.3040393172563 -22.309531774307217 133.0870745818745 -25.21875 136.93359375 C-25.988167800806266 138.09565259348577 -26.748359856365113 139.26386393954618 -27.5 140.4375 C-32.373977795071 147.99798774013573 -32.373977795071 147.99798774013573 -36 150 C-47.376575395763524 152.1403387608979 -61.583255957953696 147.3449719213788 -71 141 C-75.83772907439314 136.72982573321724 -79.08359850299453 132.52936066616388 -80 126 C-80.50189846651948 114.83275911994156 -72.89793706080803 106.80430134963842 -66.6875 98.25 C-64.45397027896311 95.16979343262732 -62.22451179446996 92.08672566829553 -60 89 C-59.551245117187506 88.3807666015625 -59.102490234375 87.761533203125 -58.64013671875 87.12353515625 C-51.681362764301625 77.40321224788642 -47.803649983277495 67.2545629470357 -44 56 C-40.16283087475813 44.86523286566174 -34.32031917590774 37.72995261243324 -25.234375 30.23828125 C-20.979896873967334 25.9763652251456 -19.734129184950078 21.431362191205473 -18.75 15.625 C-17.38934328743943 9.299393793734403 -15.056122898327246 5.090863072282957 -10 1 C-6.385963357379794 -0.20467888087340214 -3.7966855859950925 -0.3596019457255686 0 0 Z " fill="#F7F7F7" transform="translate(124,31)"/>
<path d="M0 0 C2.405029296874986 1.8642578124999858 2.405029296874986 1.8642578124999858 4.57421875 4.453125 C5.396398925781256 5.381169433593747 6.218579101562511 6.309213867187502 7.065673828125 7.265380859375 C7.498275146484389 7.757843017578125 7.498275146484389 7.757843017578125 9.6875 10.25 C18.597141925123537 19.945524536938585 25.62845318105059 23.52144079268254 38.67919921875 24.69677734375 C59.69298910370057 27.44231984712772 80.41622727775032 43.79689455192232 93 60 C102.42253312115992 73.36479369530373 108.5050227161527 88.07063117362061 112 104 C112.2255859375 104.9732421875 112.451171875 105.94648437500001 112.68359375 106.94921875 C118.21389559770901 135.5160882943727 110.37661055454356 162.89856039050144 102 190 C102.78318603515626 190.14244140625 103.5663720703125 190.2848828125 104.373291015625 190.431640625 C111.4043347419302 191.95299667991574 115.94418220592678 197.74914329040476 119.7734375 203.4609375 C123.60341251497684 211.38922972845526 123.24335879053513 219.37801733563322 123.125 228 C123.11597656250001 229.25167968749997 123.10695312499999 230.503359375 123.09765625 231.79296875 C123.07422715570183 234.86218010306027 123.04142147187792 237.93098756055178 123 241 C100.0697227672652 241.02332650933204 77.13944748153858 241.04097795247458 54.209160804748535 241.05181217193604 C43.563020494382414 241.05697565788455 32.916887541813054 241.06401935274613 22.270751953125 241.075439453125 C12.99513078917002 241.08538468868016 3.7195149517523305 241.09185304336268 -5.556111395359039 241.09408849477768 C-10.470676808291898 241.0953958753829 -15.385226978354908 241.09848344698378 -20.299787521362305 241.1057300567627 C-24.919943481412005 241.1124877455647 -29.540077833571758 241.11461747745443 -34.16023826599121 241.1131076812744 C-35.86106737453048 241.11338412329684 -37.561897162374095 241.1153907311937 -39.26272201538086 241.11920547485352 C-41.574543372964186 241.12413880974134 -43.88628181052158 241.12299963863722 -46.19810485839844 241.12025451660156 C-47.49506758689881 241.12117630958556 -48.792030315399174 241.12209810256957 -50.128294944763184 241.12304782867432 C-53.000000000000014 241 -53.000000000000014 241 -54 240 C-54.75943749724064 226.27714103823303 -55.409315327984515 209.3195294359805 -46.5 198.11328125 C-43.360756745287304 194.64703348958807 -40.826365347425366 192.81187999567473 -36.375 191.375 C-33.16963255781428 190.10801354481174 -32.202900041005364 189.38264301211336 -30.5625 186.2890625 C-29.749913672139428 184.03841221033355 -28.970102463489923 181.77573211089012 -28.21875 179.50390625 C-24.34738804839526 168.37374063913637 -17.076909161105107 160.24517810196147 -9 152 C-8.381249999999994 151.342578125 -7.762500000000003 150.68515625 -7.125 150.0078125 C-1.5120967929267408 144.15204328877454 4.939050339837934 139.18829211897668 11.30859375 134.1875 C17.489442906227225 129.14000125616224 21.99002530167337 123.1053665663174 23 115 C22.5625 112.68750000000003 22.5625 112.68750000000003 22 111 C21.556562499999984 111.4846875 21.556562499999984 111.4846875 19.3125 113.9375 C8.99012816869461 124.23889140075394 -1.6857614778798506 129.68602482840922 -16.046875 131.47265625 C-20.702620176635293 132.3040393172563 -22.309531774307217 133.0870745818745 -25.21875 136.93359375 C-25.988167800806266 138.09565259348577 -26.748359856365113 139.26386393954618 -27.5 140.4375 C-32.373977795071 147.99798774013573 -32.373977795071 147.99798774013573 -36 150 C-47.376575395763524 152.1403387608979 -61.583255957953696 147.3449719213788 -71 141 C-75.83772907439314 136.72982573321724 -79.08359850299453 132.52936066616388 -80 126 C-80.50189846651948 114.83275911994156 -72.89793706080803 106.80430134963842 -66.6875 98.25 C-64.45397027896311 95.16979343262732 -62.22451179446996 92.08672566829553 -60 89 C-59.551245117187506 88.3807666015625 -59.102490234375 87.761533203125 -58.64013671875 87.12353515625 C-51.681362764301625 77.40321224788642 -47.803649983277495 67.2545629470357 -44 56 C-40.16283087475813 44.86523286566174 -34.32031917590774 37.72995261243324 -25.234375 30.23828125 C-20.979896873967334 25.9763652251456 -19.734129184950078 21.431362191205473 -18.75 15.625 C-17.38934328743943 9.299393793734403 -15.056122898327246 5.090863072282957 -10 1 C-6.385963357379794 -0.20467888087340214 -3.7966855859950925 -0.3596019457255686 0 0 Z M-8.5 9.1875 C-11.032727405314773 12.360947135825938 -11.693878006461972 15.431414565703122 -12.5 19.375 C-14.663057982139364 29.75532716428836 -19.182985335557063 34.579111402598016 -27.28125 41.3125 C-33.22739574708953 47.19029924424942 -35.92398943815688 53.9040252470931 -38.4375 61.75 C-44.08346425754351 78.42967003284512 -52.810464608477645 91.61268293468214 -63.4453125 105.515625 C-63.9988037109375 106.25659423828125 -64.552294921875 106.9975634765625 -65.12255859375 107.760986328125 C-66.17563747667438 109.16935690137296 -67.24786907709462 110.5636913583881 -68.34228515625 111.940185546875 C-72.22089162716566 117.17220303709809 -72.85196984224001 121.56225328353099 -72 128 C-70.16649829012967 132.85338687906852 -66.49655720929884 135.63530567472148 -62 138 C-46.74614968696642 144.25579254410928 -46.74614968696642 144.25579254410928 -39.98828125 143.88671875 C-35.21101142360433 141.75618780581175 -32.71873438636871 136.24242069081708 -30 132 C-26.328963642812482 127.45871796685793 -22.666349561998857 125.35551327493317 -16.8359375 124.578125 C-15.69382812500001 124.46984375 -14.551718749999992 124.36156249999999 -13.375 124.25 C2.312781484413236 122.06252578677277 13.401713994729676 110.90045792535363 23 99 C26.888919478124137 102.33335955267785 28.7833541242137 106.31757887452432 29.43359375 111.3671875 C29.44693565696585 123.34821995533062 26.642118760287985 128.82140054224863 18.5546875 137.4921875 C15.142768470244619 140.84150251086078 11.501811490829255 143.81576701565874 7.76171875 146.7890625 C-4.911330159680588 156.9346716695604 -20.036094260259105 170.13831160984358 -23 187 C-22.674506683349605 186.9703616333008 -22.674506683349605 186.9703616333008 -21.027313232421875 186.82037353515625 C-3.3990471788946195 185.25940898371726 14.109362092019751 184.67910489058903 31.7998046875 184.7392578125 C35.21125148574464 184.75072038836785 38.62238834368924 184.7438252902877 42.0338249206543 184.73236846923828 C59.867111998266125 184.68172056424814 77.35203556890738 185.38961470106824 95 188 C98.5301560161945 178.2970013409626 101.06441019175708 168.4097789440206 103.431640625 158.3701171875 C103.92184293305044 156.32592302660922 104.44960122355045 154.29080169777254 104.984375 152.2578125 C110.69101038625732 128.51605584585394 107.29192062367895 102.9511253881848 97 81 C96.48695312500001 79.8926953125 95.97390625 78.785390625 95.4453125 77.64453125 C84.6581254891772 56.04435056086436 65.56561909434475 41.05573478262096 43 33 C29.811610815870438 28.938863811329327 29.811610815870438 28.938863811329327 24.900390625 29.045654296875 C19.243076647823926 29.068870869319042 16.682236798953596 27.228569535780508 12.6328125 23.30859375 C10.772992665842708 21.36796977774899 8.940494517523689 19.418010457319724 7.125 17.4375 C5.2838303031689975 15.46757496526348 3.4290369427703666 13.512123821676035 1.5703125 11.55859375 C1.1669165039062506 11.121883544921872 1.1669165039062506 11.121883544921872 -0.87451171875 8.911865234375 C-4.08145896792044 6.027233496693668 -5.317189566700037 6.402540870862538 -8.5 9.1875 Z " fill="#484848" transform="translate(124,31)"/>
<path d="M0 0 C2.005098784264021 -0.00030534809249616046 4.009903666675797 -0.01037608497972542 6.01495361328125 -0.02398681640625 C58.993363568943266 -0.35714367735215546 58.993363568943266 -0.35714367735215546 72.94146728515625 9.93719482421875 C77.06871163997778 14.05434811704805 78.42194783705654 17.598801699363804 79.94146728515625 23.31219482421875 C79.94146728515625 29.912194824218744 79.94146728515625 36.51219482421874 79.94146728515625 43.31219482421875 C26.481467285156242 43.31219482421875 -26.978532714843766 43.31219482421875 -82.05853271484375 43.31219482421875 C-82.05853271484375 17.46604097806491 -82.05853271484375 17.46604097806491 -74.80853271484375 9.93719482421875 C-65.8891256103185 3.067353607541861 -53.79566020657211 2.0476416194082674 -42.93743896484375 1.20672607421875 C-41.861439361572266 1.122841339111318 -40.78543975830078 1.0389566040039142 -39.67683410644531 0.9525299072265625 C-26.46018681454487 0.013810283536287216 -13.244079110183833 -0.023019134297328492 0 0 Z " fill="#F7F7F7" transform="translate(160.05853271484375,221.68780517578125)"/>
<path d="M0 0 C20.988861026652103 0.7632313100600783 41.32944710796244 13.518096321052667 55.375 28.4375 C75.42709710753945 51.599453847965634 82.04071969253476 80.97415228246803 80 111 C78.98177933493054 118.8101018905268 77.02766098403822 126.40076865677946 75 134 C74.732841796875 135.025126953125 74.46568359374999 136.05025390625 74.1904296875 137.1064453125 C69.5335820895522 154.9328358208956 69.5335820895522 154.9328358208956 68 158 C67.24082275390623 157.91435791015624 66.48164550781252 157.8287158203125 65.699462890625 157.740478515625 C51.47961996975221 156.14710729932685 37.30100673588515 154.5924702790581 23 154 C26.231740238847124 145.06518875142265 30.549473124896622 137.47279302371268 35.99609375 129.70703125 C51.67210669003276 107.34166535787688 61.55087872193556 86.65049577504863 57.67041015625 58.619140625 C54.588461195454954 41.48635736425874 45.54768024864765 26.089192691338894 31.4765625 15.69921875 C30.659296874999995 15.138476562500003 29.84203124999999 14.577734375000006 29 14 C28.24460937500001 13.470195312499996 27.489218749999992 12.940390624999992 26.7109375 12.39453125 C20.96077710624715 8.654042298210939 14.881824068378819 6.272768388413937 8.44482421875 4.00341796875 C5.321496226176009 2.9019176993728237 2.7738823095324108 1.8492548730216143 0 0 Z " fill="#D2D2D2" transform="translate(151,61)"/>
<path d="M0 0 C2.005098784264021 -0.00030534809249616046 4.009903666675825 -0.01037608497972542 6.01495361328125 -0.02398681640625 C61.21997374600798 -0.3711458049691032 61.21997374600798 -0.3711458049691032 74.83209228515625 11.84735107421875 C75.94146728515625 13.31219482421875 75.94146728515625 13.31219482421875 75.94146728515625 16.31219482421875 C74.90892822265624 16.11883544921875 73.87638916015624 15.92547607421875 72.81256103515625 15.72625732421875 C25.12004564898527 7.093273176273527 -31.895703945571597 5.602605406999629 -79.05853271484375 17.31219482421875 C-77.9522775200189 12.25642020218595 -75.25565430832222 10.194164196916745 -71.05853271484375 7.31219482421875 C-62.444373797180404 2.926487139972295 -52.42858746544667 1.9417685952890622 -42.93743896484375 1.20672607421875 C-41.861439361572266 1.122841339111318 -40.78543975830078 1.0389566040039142 -39.67683410644531 0.9525299072265625 C-26.46018681454487 0.013810283536287216 -13.244079110183833 -0.023019134297328492 0 0 Z " fill="#FDFDFD" transform="translate(160.05853271484375,221.68780517578125)"/>
<path d="M0 0 C4.251590593634404 15.863461677324125 4.251590593634404 15.863461677324125 1 24 C-1.7787912615300172 28.481921389564548 -4.984381915407269 30.720161423998064 -9.3125 33.6875 C-20.77881347998577 41.851268278482465 -25.00778693533485 52.7429719597292 -28.83984375 65.87890625 C-31.478055921649627 74.23121851692764 -36.48540679189267 80.3673700432933 -42 87 C-43.12690604438595 88.3705973957864 -44.25318209798397 89.74171295502602 -45.37890625 91.11328125 C-47.15803399559964 93.27782931959803 -48.93964794244991 95.44008818576481 -50.72900390625 97.59619140625 C-55.13800404437929 102.91331756570855 -59.43008549770357 108.31072453588746 -63.624755859375 113.798583984375 C-66.78796945152288 117.89398472576144 -66.78796945152288 117.89398472576144 -69 119 C-69.66642525711964 111.88353029004381 -68.05677077325007 108.61713169022732 -63.75 103.0625 C-62.6469690495468 101.56783109410497 -61.544109387890416 100.07303576843861 -60.44140625 98.578125 C-59.8718017578125 97.82080078125 -59.302197265625 97.0634765625 -58.71533203125 96.283203125 C-48.564120331319586 82.77137109856258 -40.09740624992128 69.93288225781669 -34.9375 53.6875 C-31.723982160148708 43.650987732345115 -27.856334442012965 37.52098460153641 -19.875 30.5 C-11.928322361386648 23.507983074524113 -9.932727899863991 16.898268706552322 -7.90625 6.69921875 C-6.4679517455657844 2.415321793904994 -4.64250015660636 0 0 0 Z " fill="#FBFBFB" transform="translate(121,38)"/>
<path d="M0 0 C3.3317978865347584 2.200243887334281 5.473825324776499 3.830722943947748 7.125 7.5 C6.947921526177254 11.041569476454768 5.423565890951579 12.507189369306928 3 15 C-0.7936275153025889 16.8968137576513 -5.433555965330839 16.41584251604442 -9.6171875 16.62109375 C-12.66043268154877 16.961965323452915 -14.436679234195495 17.409195404136398 -17 19 C-16.06299148884426 12.020902123805556 -13.853466750477907 7.149861666537618 -9 2 C-5.458708164763237 -0.36086122349117034 -4.172497817956 -0.5726957789351417 0 0 Z " fill="#4B4B4B" transform="translate(124,83)"/>
<path d="M0 0 C0.9900000000000091 0 1.9799999999999898 0 3 0 C6.6443702414191534 13.666388405321825 1.1219992885460215 28.009456787612578 -3 41 C-3.3300000000000125 41 -3.6599999999999966 41 -4 41 C-4.01417968749999 40.238164062500005 -4.028359375000008 39.47632812500001 -4.04296875 38.69140625 C-4.350121750381021 32.041958863373 -5.2665034746436845 27.430276583899 -8.94140625 21.83984375 C-10 20 -10 20 -10 17 C-8.619239363619101 13.984015967602204 -6.8717599352991385 11.168011628831223 -5.1875 8.3125 C-4.735683593749997 7.515214843750002 -4.283867187499993 6.717929687500003 -3.818359375 5.896484375 C-3.3768554687499943 5.143027343750006 -2.9353515624999886 4.389570312499998 -2.48046875 3.61328125 C-2.2788513183593864 3.266724853515626 -2.2788513183593864 3.266724853515626 -1.258544921875 1.512939453125 C-0.8432250976562443 1.0136694335937477 -0.42790527343748863 0.5143994140624955 0 0 Z " fill="#D1D1D1" transform="translate(158,110)"/>
<path d="M0 0 C5.935131880044992 0.2082502414050964 9.303238079640849 1.5259588040145502 14.16796875 4.85546875 C16.38835393305959 6.242617702316551 18.402295381423897 6.756465192008477 21 7 C16.480783919997762 9.727307459751984 11.558303312650622 9.72461977391535 6.41015625 10.2421875 C1.2171478306515837 11.396189370966312 -1.0782689020868332 13.69035227614944 -4.09765625 17.98046875 C-5.411743318311025 20.12533054539432 -6.724233937290052 22.27117122007698 -8.03515625 24.41796875 C-10 27 -10 27 -12.24609375 27.86328125 C-12.535488281249997 27.885839843750006 -12.535488281249997 27.885839843750006 -14 28 C-12.58720454234583 24.324053524871374 -10.96521230823356 20.825709812313818 -9.1875 17.3125 C-8.661562500000002 16.270937500000002 -8.135625000000005 15.229375000000005 -7.59375 14.15625 C-7.067812500000002 13.114687500000002 -6.5418750000000045 12.073125000000005 -6 11 C-4.658545245947039 8.288548901382342 -3.317749774800461 5.576793232362093 -1.98046875 2.86328125 C-1 1 -1 1 0 0 Z " fill="#CECECE" transform="translate(97,146)"/>
</svg>
