<?xml version="1.0" encoding="UTF-8"?>
<!-- Generator: visioncortex VTracer 0.6.12 -->
<svg version="1.1" xmlns="http://www.w3.org/2000/svg" width="300" height="300">
<path d="M0 0 C9.614549534526418 7.332071108443728 15.71257955477651 16.934045826565395 17.6875 28.875 C18.93133856389892 42.740741368053634 14.660969232724483 53.698704642894626 6.6875 64.875 C7.232773437499986 65.19662109375 7.778046875000001 65.5182421875 8.33984375 65.849609375 C10.808218938727748 67.32852476585313 13.246981743970139 68.8505922004378 15.6875 70.375 C16.546015624999995 70.8803125 17.40453124999999 71.385625 18.2890625 71.90625 C24.33329582429502 75.74385845986987 24.33329582429502 75.74385845986987 25.31591796875 78.8818359375 C25.41499826516926 82.88467991283841 24.4154445729649 86.49789914146629 22.8125 90.125 C22.464453125000006 90.93453125000002 22.11640625000001 91.74406249999998 21.7578125 92.578125 C20.77148274987428 94.69477424479533 19.73182278549075 96.7863544290185 18.6875 98.875 C13.077499999999986 98.875 7.467500000000001 98.875 1.6875 98.875 C5.874116850431619 119.06926951384659 15.226133234113604 131.68092231943228 32.128173828125 143.058837890625 C44.73639568518087 151.68594713964893 51.853900397646356 163.91989098757801 54.6875 178.875 C54.6875 185.14499999999998 54.6875 191.41499999999996 54.6875 197.875 C2.217500000000001 197.875 -50.25250000000001 197.875 -104.3125 197.875 C-104.3125 178.5571116680099 -101.67702486225261 162.54485868743402 -87.8359375 148.11328125 C-84.20609779229419 144.89362466715878 -80.2597441979747 142.32948203449914 -76.171875 139.73046875 C-61.03914193042682 129.9107307608644 -54.83161418941043 115.66028127495301 -50.3125 98.875 C-55.9225 98.875 -61.5325 98.875 -67.3125 98.875 C-72.5679677307958 89.71162036681761 -72.5679677307958 89.71162036681761 -73.3125 85.875 C-73.4607421875 85.1776171875 -73.608984375 84.48023437500001 -73.76171875 83.76171875 C-74.04074823867815 81.18641379711812 -74.03606878872968 79.37575528736397 -73.3125 76.875 C-70.3582267635519 73.89704521456233 -66.93873233290556 71.94493148748009 -63.3125 69.875 C-61.76794283936911 68.90039923570413 -60.225920841720466 67.92175849550932 -58.6875 66.9375 C-57.57374999999999 66.25687499999998 -56.46000000000001 65.57625000000002 -55.3125 64.875 C-55.7830078125 64.16214843749998 -56.253515625000006 63.449296875000016 -56.73828125 62.71484375 C-64.69095053854775 50.4812344717578 -68.3098214546379 39.943560992854415 -65.8515625 25.08984375 C-62.8980269583093 14.127014768783354 -56.55561808431548 5.420057079256921 -47.3125 -1.125 C-31.74271001527984 -9.159165029061256 -15.127566433346601 -9.784343427072798 0 0 Z " fill="#F7F7F7" transform="translate(174.3125,74.125)"/>
<path d="M0 0 C0.4357031250000034 0.37511718749999545 0.8714062500000068 0.7502343749999909 1.3203125 1.13671875 C1.9158593749999966 1.648476562500008 2.511406249999993 2.1602343749999875 3.125 2.6875 C3.7579296874999955 3.2327734374999864 4.390859374999991 3.778046875000001 5.04296875 4.33984375 C6.816402127753179 5.844253301986242 8.621320787718162 7.29792354149302 10.4375 8.75 C10.860312499999992 9.121250000000003 10.860312499999992 9.121250000000003 13 11 C13 11.659999999999997 13 12.319999999999993 13 13 C13.283674316406234 13.118875732421884 13.283674316406234 13.118875732421884 14.71923828125 13.720458984375 C17.49997935670251 15.280495804803877 19.29838673991128 17.15830437006133 21.4921875 19.47265625 C22.354973144531243 20.368474121093755 23.217758789062486 21.26429199218751 24.106689453125 22.187255859375 C24.56346069335939 22.661671142578115 24.56346069335939 22.661671142578115 26.875 25.0625 C39.85491435200362 38.31109665993077 54.12588386619706 49.171679382700944 73.0625 51.8125 C77.72648624895771 52.727529683128864 79.78743529423303 55.49383157335296 82.4296875 59.28515625 C88.4662250673579 69.72145876073071 90 77.75007491502612 90 90 C42.47999999999999 90 -5.040000000000006 90 -54 90 C-54 75.02226177479068 -51.76305833329232 64.30974410833656 -41.43359375 53.21875 C-38.1413160686115 50.21712283623009 -34.54833144577293 47.76812086989685 -30.8583984375 45.295654296875 C-15.344296171398426 34.89814437709509 -7.822239294292217 22.25673548209886 -2 5 C-1.3466297393856337 3.3280761007848128 -0.6858728356588699 1.6588552304307598 0 0 Z " fill="#F7F7F7" transform="translate(132,175)"/>
<path d="M0 0 C9.614549534526418 7.332071108443728 15.71257955477651 16.934045826565395 17.6875 28.875 C18.93133856389892 42.740741368053634 14.660969232724483 53.698704642894626 6.6875 64.875 C7.232773437499986 65.19662109375 7.778046875000001 65.5182421875 8.33984375 65.849609375 C10.808218938727748 67.32852476585313 13.246981743970139 68.8505922004378 15.6875 70.375 C16.546015624999995 70.8803125 17.40453124999999 71.385625 18.2890625 71.90625 C24.33329582429502 75.74385845986987 24.33329582429502 75.74385845986987 25.31591796875 78.8818359375 C25.41499826516926 82.88467991283841 24.4154445729649 86.49789914146629 22.8125 90.125 C22.464453125000006 90.93453125000002 22.11640625000001 91.74406249999998 21.7578125 92.578125 C20.77148274987428 94.69477424479533 19.73182278549075 96.7863544290185 18.6875 98.875 C13.077499999999986 98.875 7.467500000000001 98.875 1.6875 98.875 C5.874116850431619 119.06926951384659 15.226133234113604 131.68092231943228 32.128173828125 143.058837890625 C44.73639568518087 151.68594713964893 51.853900397646356 163.91989098757801 54.6875 178.875 C54.6875 185.14499999999998 54.6875 191.41499999999996 54.6875 197.875 C2.217500000000001 197.875 -50.25250000000001 197.875 -104.3125 197.875 C-104.3125 178.5571116680099 -101.67702486225261 162.54485868743402 -87.8359375 148.11328125 C-84.20609779229419 144.89362466715878 -80.2597441979747 142.32948203449914 -76.171875 139.73046875 C-61.03914193042682 129.9107307608644 -54.83161418941043 115.66028127495301 -50.3125 98.875 C-55.9225 98.875 -61.5325 98.875 -67.3125 98.875 C-72.5679677307958 89.71162036681761 -72.5679677307958 89.71162036681761 -73.3125 85.875 C-73.4607421875 85.1776171875 -73.608984375 84.48023437500001 -73.76171875 83.76171875 C-74.04074823867815 81.18641379711812 -74.03606878872968 79.37575528736397 -73.3125 76.875 C-70.3582267635519 73.89704521456233 -66.93873233290556 71.94493148748009 -63.3125 69.875 C-61.76794283936911 68.90039923570413 -60.225920841720466 67.92175849550932 -58.6875 66.9375 C-57.57374999999999 66.25687499999998 -56.46000000000001 65.57625000000002 -55.3125 64.875 C-55.7830078125 64.16214843749998 -56.253515625000006 63.449296875000016 -56.73828125 62.71484375 C-64.69095053854775 50.4812344717578 -68.3098214546379 39.943560992854415 -65.8515625 25.08984375 C-62.8980269583093 14.127014768783354 -56.55561808431548 5.420057079256921 -47.3125 -1.125 C-31.74271001527984 -9.159165029061256 -15.127566433346601 -9.784343427072798 0 0 Z M-52.3125 12.875 C-58.14744345328043 22.57528574089656 -60.32026718838888 30.55519646530624 -59.3125 41.875 C-56.885744234001166 51.37790342012627 -51.50698667135687 59.41200888576208 -43.3125 64.875 C-50.83629324327654 70.44379184935428 -58.48738245317199 75.74019337241305 -66.3125 80.875 C-65.81889990627865 85.15286747891841 -65.2646643451747 87.97067130965061 -63.3125 91.875 C-56.38249999999999 91.875 -49.4525 91.875 -42.3125 91.875 C-45.40140211380964 114.1837374886251 -52.507860579012316 130.4709874015535 -70.3515625 144.66796875 C-73.08705994510854 146.70696090895294 -75.862892619836 148.64974034766672 -78.6875 150.5625 C-87.47239181084821 156.60650556586356 -92.97036430313936 164.93528773045387 -95.625 175.3125 C-96.3125 179.875 -96.3125 179.875 -96.3125 190.875 C-48.79249999999999 190.875 -1.2724999999999795 190.875 47.6875 190.875 C47.6875 175.37553832063256 44.44405404466406 164.14811688101904 33.6875 152.875 C31.551721681424908 151.1247690951001 29.294793681019996 149.59551421020205 27 148.0625 C9.910184835219013 136.1926428048944 -0.6316694673804193 122.93872617624302 -4.734375 102.234375 C-5.32678125356415 98.79201433739757 -5.81852040324128 95.33285717731093 -6.3125 91.875 C0.2874999999999943 91.875 6.887499999999989 91.875 13.6875 91.875 C17.6875 84.875 17.6875 84.875 17.730712890625 82.155029296875 C16.350408010920063 79.1382571762187 14.798545707868527 78.14932313923376 11.99609375 76.39453125 C11.051855468750006 75.78802734375 10.107617187500011 75.1815234375 9.134765625 74.556640625 C8.141542968750002 73.93982421875 7.1483203125000045 73.32300781250001 6.125 72.6875 C4.161554893569672 71.45003459678759 2.2016968442534335 70.20685277640257 0.24609375 68.95703125 C-0.6273266601562568 68.41280517578124 -1.5007470703125136 67.86857910156249 -2.400634765625 67.307861328125 C-3.0315502929687455 66.83501708984375 -3.662465820312491 66.36217285156249 -4.3125 65.875 C-4.3125 65.215 -4.3125 64.555 -4.3125 63.875 C-2.9570312499999716 62.64843749999997 -2.9570312499999716 62.64843749999997 -1.125 61.25 C5.966984456174316 55.33284933252526 9.980396352171653 47.169947108715775 11.0078125 38.0234375 C11.413965135721867 27.54469949837575 8.409411175185767 18.914015665093473 1.66796875 10.87890625 C-5.676838317282744 3.4471783890216017 -14.272295178240995 -0.15610514514082752 -24.625 -0.625 C-35.60005429167944 -0.3176472543753732 -45.29858176182145 4.391762921412507 -52.3125 12.875 Z " fill="#474747" transform="translate(174.3125,74.125)"/>
<path d="M0 0 C11.879999999999995 0 23.75999999999999 0 36 0 C36.99000000000001 5.610000000000014 37.97999999999999 11.219999999999999 39 17 C45.296292632429044 37.625786209681365 58.552281960950495 49.46238498880686 76 61 C67.73162007547552 63.75612664150816 55.89998323128188 56.79462588468033 48.546875 53.171875 C39.3165406703406 47.88030075943914 31.866802000469534 40.11126642113982 24.5 32.5625 C22.74177933822395 30.769978790631512 20.981472187687842 28.97950095402578 19.21875 27.19140625 C18.454980468749994 26.409670410156252 17.69121093749999 25.627934570312505 16.904296875 24.822509765625 C15 23 15 23 13 22 C13 21.340000000000003 13 20.680000000000007 13 20 C12.427656250000013 19.75507812500001 11.855312499999997 19.510156249999994 11.265625 19.2578125 C8.619755984395994 17.788899012026747 6.8514686084026835 16.046517562016106 4.75 13.875 C4.043593750000014 13.150546875000003 3.337187499999999 12.426093750000007 2.609375 11.6796875 C2.0782812500000034 11.125390624999994 1.5471875000000068 10.571093749999989 1 10 C0.6699999999999875 10.164999999999992 0.6699999999999875 10.164999999999992 -1 11 C-0.6699999999999875 7.3700000000000045 -0.3400000000000034 3.740000000000009 0 0 Z " fill="#D2D2D2" transform="translate(132,166)"/>
<path d="M0 0 C7.859303147350033 7.4226751947194884 12.030648400018322 15.044329821177527 12.4375 25.875 C12.121250505118212 36.245348019665656 8.11114049441403 44.53404168465886 1 52 C0.3142187500000091 52.738632812499986 -0.37156250000001023 53.477265625 -1.078125 54.23828125 C-5.419830336420716 56.85607417343013 -9.349815833575946 56.432374259119456 -14.3125 56.25 C-14.778173828125006 56.24097656250001 -14.778173828125006 56.24097656250001 -17.134765625 56.1953125 C-19.42424196989586 56.14834888266881 -21.71158184228443 56.082694749271184 -24 56 C-21.20983411736131 53.772986864315925 -18.496809878733785 52.21830255662485 -15.25 50.75 C-6.120121378102738 46.23212191906114 0.28238207928015413 39.996068112887215 3.609375 30.20703125 C5.193469662440776 21.25689640720958 4.881681293274255 12.028444316082698 0.875 3.8203125 C0 2 0 2 0 0 Z " fill="#D0D0D0" transform="translate(173,83)"/>
<path d="M0 0 C7.749341508269509 4.881474965839061 15.39819387678645 9.89232921913225 23 15 C22.496512194411167 19.32999512806404 22.086731086082352 22.80863396184705 19 26 C15.589542250666398 26.62644268868837 12.264884358191551 26.468228649050957 8.8125 26.3125 C7.872128906249998 26.289941406249994 6.9317578124999955 26.26738281249999 5.962890625 26.244140625 C3.640325266587155 26.18519226564942 1.3209622444796025 26.102977847024704 -1 26 C-0.3812499999999943 25.236874999999998 0.23750000000001137 24.473749999999995 0.875 23.6875 C4.5157554612672755 19.083015151926702 5.581702238588036 16.91397275897839 5 11 C4.122301722047524 8.83554044577329 3.110282927837403 6.835632487163792 1.97265625 4.796875 C1 3 1 3 0 0 Z " fill="#D0D0D0" transform="translate(169,140)"/>
</svg>
