<?xml version="1.0" encoding="UTF-8"?>
<!-- Generator: visioncortex VTracer 0.6.12 -->
<svg version="1.1" xmlns="http://www.w3.org/2000/svg" width="300" height="300">
<path d="M0 0 C6.1634953016996405 4.642197005817323 10.729852362079896 10.57771519282872 12.83984375 18.05859375 C13.777701662388097 25.749028631582263 12.356899267617734 31.622515980754557 9.15234375 38.62109375 C8.871972656249994 38.933691406250006 8.871972656249994 38.933691406250006 7.453125 40.515625 C5.468192950488856 43.728472972031554 6.4442054749029865 45.96859106792067 7.15234375 49.62109375 C7.947630911304259 52.37095196674541 8.896890057535387 55.05261962286812 9.875 57.7421875 C10.139937591552723 58.486948394775396 10.404875183105474 59.23170928955078 10.677841186523438 59.99903869628906 C11.517341608618437 62.35448210854514 12.36592293536765 64.70653128289062 13.21484375 67.05859375 C13.789016985202238 68.66449717088294 14.362590737431248 70.27061506417705 14.935546875 71.876953125 C16.334226709615393 75.7941805302247 17.74105468936088 79.70839241682715 19.15234375 83.62109375 C21.03783310951613 78.44884583404088 22.90703600490042 73.27110848435292 24.761474609375 68.087646484375 C25.394412549590243 66.32563154248516 26.03174931003889 64.56519020236095 26.673583984375 62.806396484375 C27.596132270700537 60.275998744732334 28.502641210482693 57.74033796840915 29.40625 55.203125 C29.695770416259762 54.419601593017575 29.985290832519524 53.63607818603515 30.283584594726563 52.82881164550781 C31.713874662054877 48.76124185981351 32.71390794058314 45.84313625974113 31.15234375 41.62109375 C30.51296875 40.67234375000001 29.873593749999998 39.72359374999999 29.21484375 38.74609375 C25.309078164856686 32.82826710584348 24.29081279466925 26.568567735936398 25.15234375 19.62109375 C27.221265971276523 10.441888198640179 31.454613989883768 4.564816505531439 39.14453125 -0.7578125 C46.60599179724207 -4.798263777468819 56.06539947943554 -4.8448649574535025 64.09375 -2.53125 C71.29330296429782 0.711296754912766 76.80396425347652 6.097913743740122 80.08984375 13.30859375 C82.33516820030562 20.437498879720295 82.3386908375092 28.64266905160389 79.46484375 35.55859375 C76.41514163411173 41.41101506394051 72.93525355677019 45.31933222426477 67.15234375 48.62109375 C67.68580723957439 65.62845869897149 68.27077667715207 82.6274816648888 69.15234375 99.62109375 C72.97452574700509 96.43238574063531 76.6687700289302 93.29939236478211 79.90234375 89.49609375 C80.45406249999999 88.854140625 81.00578125000001 88.2121875 81.57421875 87.55078125 C82.095 86.913984375 82.61578125 86.2771875 83.15234375 85.62109375 C83.7311328125 84.9353125 84.30992187499999 84.24953125 84.90625 83.54296875 C85.31746093749999 82.90875 85.728671875 82.27453125 86.15234375 81.62109375 C85.52898771816356 79.60717426252847 84.85206348212341 77.6097708834034 84.15234375 75.62109375 C83.05059718951307 66.76184401019411 85.42604433092541 59.909876792703216 90.77734375 52.87109375 C96.48134470310924 46.783988255264006 102.88210984210284 44.32870098325239 111.15234375 43.99609375 C118.65500977959107 44.29783140553789 124.40928124118454 46.20386046169713 129.9921875 51.30078125 C135.25734328091005 57.09373993315282 137.69219405666308 63.01959681663095 138.46484375 70.74609375 C137.86136994705146 78.22916890656244 135.28483652286633 85.53002484515139 130.058349609375 91.046630859375 C127.89349911215612 92.83491327983927 125.8933660279825 93.5920454278905 123.28125 94.6015625 C116.73894534532246 97.82037639010133 115.1668858495114 102.46610886737113 112.71484375 109.05859375 C111.98270995432179 110.88917794376431 111.25045938078699 112.71971680581038 110.51571655273438 114.54925537109375 C109.68356705063809 116.63506207636726 108.86708292271652 118.72660165011149 108.05126953125 120.81884765625 C105.87634970373068 126.36041419386743 103.59124813085435 131.8553204167854 101.3046875 137.3515625 C100.88103408813475 138.37050094604493 100.45738067626954 139.38943939208986 100.02088928222656 140.4392547607422 C99.15960602592713 142.5105806610754 98.298221753505 144.5818645604948 97.43673706054688 146.65310668945313 C95.37406839061637 151.62028259569794 93.3243923589888 156.5927763936899 91.27734375 161.56640625 C90.92046981811524 162.4322282409668 90.56359588623047 163.2980502319336 90.19590759277344 164.1901092529297 C89.17744109350136 166.66550844143288 88.16445579696514 169.14309063501292 87.15234375 171.62109375 C86.774326171875 172.53775817871093 86.39630859375 173.45442260742186 86.0068359375 174.39886474609375 C85.639775390625 175.29832824707032 85.27271484375001 176.19779174804688 84.89453125 177.12451171875 C84.56050292968749 177.9387057495117 84.226474609375 178.75289978027342 83.88232421875 179.59176635742188 C83.15234375 181.62109375 83.15234375 181.62109375 83.15234375 183.62109375 C83.7698046875 183.81703125 84.387265625 184.01296875 85.0234375 184.21484375 C92.70431011112154 186.92711535697137 99.26248336900801 190.83126991410165 103.56640625 197.96484375 C109.40229294356402 210.5602826569727 107.15234375 221.86832977476024 107.15234375 236.62109375 C48.74234375 236.62109375 -9.667656250000007 236.62109375 -69.84765625 236.62109375 C-69.84765625 201.62594110973598 -69.84765625 201.62594110973598 -59.54296875 190.828125 C-55.137250124069865 187.2205438063036 -50.22650253592114 185.35033367271578 -44.84765625 183.62109375 C-46.76148586318489 177.64374100357168 -48.905102883569214 171.82581126039818 -51.33203125 166.0390625 C-51.498227157592765 165.6388111114502 -51.498227157592765 165.6388111114502 -52.33927917480469 163.61329650878906 C-54.1764962340668 159.19338395348203 -56.02898971738142 154.77989679388614 -57.881103515625 150.3662109375 C-58.65801446795537 148.51249533873468 -59.43462345233806 146.65865315457924 -60.2109375 144.8046875 C-60.59959487915039 143.87713653564452 -60.988252258300776 142.94958557128905 -61.38868713378906 141.99392700195313 C-63.64939145985413 136.57366247455604 -65.84136989978059 131.13273121115873 -67.96084594726563 125.65571594238281 C-69.24550029969632 122.33886602038581 -70.55424372391607 119.03176213646123 -71.8646240234375 115.72500610351563 C-72.4729140232361 114.16953492746256 -73.0691199223403 112.6092777683819 -73.6524658203125 111.04428100585938 C-78.72699065113518 97.4520133286764 -78.72699065113518 97.4520133286764 -85.078125 94.3359375 C-85.90336669921875 94.05097412109376 -86.7286083984375 93.76601074218752 -87.578857421875 93.472412109375 C-92.36016265835622 91.6783293202208 -94.78924608706679 87.61553540077728 -97.09765625 83.265625 C-100.64135680508606 75.32921229850518 -101.07837973557447 68.07316435870572 -98.01171875 59.890625 C-94.64473592744133 53.32613835601816 -89.43720052905022 47.83165459671386 -82.46875 45.2109375 C-74.77843996067924 43.48033121693378 -66.39767292346284 43.20751741320406 -59.515625 47.43359375 C-58.9651953125 47.82546875 -58.414765625 48.21734375 -57.84765625 48.62109375 C-56.795781250000005 49.34296875 -55.74390625000001 50.064843749999994 -54.66015625 50.80859375 C-48.90991543363977 56.55883456636023 -46.11792988021605 62.84625961618303 -45.66015625 70.93359375 C-45.84765625 74.62109375000001 -45.84765625 74.62109375000001 -47.3515625 78.2890625 C-47.900146484375 80.40307617187499 -47.900146484375 80.40307617187499 -47.84765625 82.62109375 C-45.74729393498927 86.14268459547493 -42.92620966415012 88.80423371700063 -39.97265625 91.62109375 C-39.20050781250001 92.3958203125 -38.428359375 93.17054687500001 -37.6328125 93.96875 C-35.72533664611805 95.87622585388195 -33.79803135838708 97.75766995624002 -31.84765625 99.62109375 C-30.662975187904863 94.808943956625 -30.546097821482363 90.0140253386127 -30.34765625 85.0859375 C-30.327353515624992 84.62810127258301 -30.327353515624992 84.62810127258301 -30.224609375 82.31117248535156 C-30.051462955975083 78.40520154299978 -29.887282558354457 74.49886722694964 -29.72265625 70.592529296875 C-29.600970773661516 67.7360102732184 -29.47445109632592 64.87973355642694 -29.34765625 62.0234375 C-29.329931640625006 61.5822533416748 -29.329931640625006 61.5822533416748 -29.240234375 59.34959411621094 C-29.203496093750005 58.525163116455076 -29.166757812499995 57.700732116699214 -29.12890625 56.851318359375 C-29.098613281249996 56.12915634155274 -29.068320312500006 55.40699432373046 -29.037109375 54.66294860839844 C-28.84249488517679 52.56546649212166 -28.4110523610386 50.64802602005585 -27.84765625 48.62109375 C-28.528281250000006 48.45609375000001 -29.20890625 48.29109375 -29.91015625 48.12109375 C-35.412581799269134 45.31134453335193 -38.84747469429806 40.48809932064363 -41.72265625 35.12109375 C-44.37208201505982 26.878435814258367 -44.480973796959546 19.40004743282175 -40.84375 11.41796875 C-37.29223863973513 5.276081117066688 -31.887878285448636 -0.3652451712540099 -25.1171875 -2.90234375 C-16.505223758613468 -4.710707909120753 -7.678936319657609 -4.51025710622152 0 0 Z " fill="#F7F7F7" transform="translate(131.84765625,35.37890625)"/>
<path d="M0 0 C6.1634953016996405 4.642197005817323 10.729852362079896 10.57771519282872 12.83984375 18.05859375 C13.777701662388097 25.749028631582263 12.356899267617734 31.622515980754557 9.15234375 38.62109375 C8.871972656249994 38.933691406250006 8.871972656249994 38.933691406250006 7.453125 40.515625 C5.468192950488856 43.728472972031554 6.4442054749029865 45.96859106792067 7.15234375 49.62109375 C7.947630911304259 52.37095196674541 8.896890057535387 55.05261962286812 9.875 57.7421875 C10.139937591552723 58.486948394775396 10.404875183105474 59.23170928955078 10.677841186523438 59.99903869628906 C11.517341608618437 62.35448210854514 12.36592293536765 64.70653128289062 13.21484375 67.05859375 C13.789016985202238 68.66449717088294 14.362590737431248 70.27061506417705 14.935546875 71.876953125 C16.334226709615393 75.7941805302247 17.74105468936088 79.70839241682715 19.15234375 83.62109375 C21.03783310951613 78.44884583404088 22.90703600490042 73.27110848435292 24.761474609375 68.087646484375 C25.394412549590243 66.32563154248516 26.03174931003889 64.56519020236095 26.673583984375 62.806396484375 C27.596132270700537 60.275998744732334 28.502641210482693 57.74033796840915 29.40625 55.203125 C29.695770416259762 54.419601593017575 29.985290832519524 53.63607818603515 30.283584594726563 52.82881164550781 C31.713874662054877 48.76124185981351 32.71390794058314 45.84313625974113 31.15234375 41.62109375 C30.51296875 40.67234375000001 29.873593749999998 39.72359374999999 29.21484375 38.74609375 C25.309078164856686 32.82826710584348 24.29081279466925 26.568567735936398 25.15234375 19.62109375 C27.221265971276523 10.441888198640179 31.454613989883768 4.564816505531439 39.14453125 -0.7578125 C46.60599179724207 -4.798263777468819 56.06539947943554 -4.8448649574535025 64.09375 -2.53125 C71.29330296429782 0.711296754912766 76.80396425347652 6.097913743740122 80.08984375 13.30859375 C82.33516820030562 20.437498879720295 82.3386908375092 28.64266905160389 79.46484375 35.55859375 C76.41514163411173 41.41101506394051 72.93525355677019 45.31933222426477 67.15234375 48.62109375 C67.68580723957439 65.62845869897149 68.27077667715207 82.6274816648888 69.15234375 99.62109375 C72.97452574700509 96.43238574063531 76.6687700289302 93.29939236478211 79.90234375 89.49609375 C80.45406249999999 88.854140625 81.00578125000001 88.2121875 81.57421875 87.55078125 C82.095 86.913984375 82.61578125 86.2771875 83.15234375 85.62109375 C83.7311328125 84.9353125 84.30992187499999 84.24953125 84.90625 83.54296875 C85.31746093749999 82.90875 85.728671875 82.27453125 86.15234375 81.62109375 C85.52898771816356 79.60717426252847 84.85206348212341 77.6097708834034 84.15234375 75.62109375 C83.05059718951307 66.76184401019411 85.42604433092541 59.909876792703216 90.77734375 52.87109375 C96.48134470310924 46.783988255264006 102.88210984210284 44.32870098325239 111.15234375 43.99609375 C118.65500977959107 44.29783140553789 124.40928124118454 46.20386046169713 129.9921875 51.30078125 C135.25734328091005 57.09373993315282 137.69219405666308 63.01959681663095 138.46484375 70.74609375 C137.86136994705146 78.22916890656244 135.28483652286633 85.53002484515139 130.058349609375 91.046630859375 C127.89349911215612 92.83491327983927 125.8933660279825 93.5920454278905 123.28125 94.6015625 C116.73894534532246 97.82037639010133 115.1668858495114 102.46610886737113 112.71484375 109.05859375 C111.98270995432179 110.88917794376431 111.25045938078699 112.71971680581038 110.51571655273438 114.54925537109375 C109.68356705063809 116.63506207636726 108.86708292271652 118.72660165011149 108.05126953125 120.81884765625 C105.87634970373068 126.36041419386743 103.59124813085435 131.8553204167854 101.3046875 137.3515625 C100.88103408813475 138.37050094604493 100.45738067626954 139.38943939208986 100.02088928222656 140.4392547607422 C99.15960602592713 142.5105806610754 98.298221753505 144.5818645604948 97.43673706054688 146.65310668945313 C95.37406839061637 151.62028259569794 93.3243923589888 156.5927763936899 91.27734375 161.56640625 C90.92046981811524 162.4322282409668 90.56359588623047 163.2980502319336 90.19590759277344 164.1901092529297 C89.17744109350136 166.66550844143288 88.16445579696514 169.14309063501292 87.15234375 171.62109375 C86.774326171875 172.53775817871093 86.39630859375 173.45442260742186 86.0068359375 174.39886474609375 C85.639775390625 175.29832824707032 85.27271484375001 176.19779174804688 84.89453125 177.12451171875 C84.56050292968749 177.9387057495117 84.226474609375 178.75289978027342 83.88232421875 179.59176635742188 C83.15234375 181.62109375 83.15234375 181.62109375 83.15234375 183.62109375 C83.7698046875 183.81703125 84.387265625 184.01296875 85.0234375 184.21484375 C92.70431011112154 186.92711535697137 99.26248336900801 190.83126991410165 103.56640625 197.96484375 C109.40229294356402 210.5602826569727 107.15234375 221.86832977476024 107.15234375 236.62109375 C48.74234375 236.62109375 -9.667656250000007 236.62109375 -69.84765625 236.62109375 C-69.84765625 201.62594110973598 -69.84765625 201.62594110973598 -59.54296875 190.828125 C-55.137250124069865 187.2205438063036 -50.22650253592114 185.35033367271578 -44.84765625 183.62109375 C-46.76148586318489 177.64374100357168 -48.905102883569214 171.82581126039818 -51.33203125 166.0390625 C-51.498227157592765 165.6388111114502 -51.498227157592765 165.6388111114502 -52.33927917480469 163.61329650878906 C-54.1764962340668 159.19338395348203 -56.02898971738142 154.77989679388614 -57.881103515625 150.3662109375 C-58.65801446795537 148.51249533873468 -59.43462345233806 146.65865315457924 -60.2109375 144.8046875 C-60.59959487915039 143.87713653564452 -60.988252258300776 142.94958557128905 -61.38868713378906 141.99392700195313 C-63.64939145985413 136.57366247455604 -65.84136989978059 131.13273121115873 -67.96084594726563 125.65571594238281 C-69.24550029969632 122.33886602038581 -70.55424372391607 119.03176213646123 -71.8646240234375 115.72500610351563 C-72.4729140232361 114.16953492746256 -73.0691199223403 112.6092777683819 -73.6524658203125 111.04428100585938 C-78.72699065113518 97.4520133286764 -78.72699065113518 97.4520133286764 -85.078125 94.3359375 C-85.90336669921875 94.05097412109376 -86.7286083984375 93.76601074218752 -87.578857421875 93.472412109375 C-92.36016265835622 91.6783293202208 -94.78924608706679 87.61553540077728 -97.09765625 83.265625 C-100.64135680508606 75.32921229850518 -101.07837973557447 68.07316435870572 -98.01171875 59.890625 C-94.64473592744133 53.32613835601816 -89.43720052905022 47.83165459671386 -82.46875 45.2109375 C-74.77843996067924 43.48033121693378 -66.39767292346284 43.20751741320406 -59.515625 47.43359375 C-58.9651953125 47.82546875 -58.414765625 48.21734375 -57.84765625 48.62109375 C-56.795781250000005 49.34296875 -55.74390625000001 50.064843749999994 -54.66015625 50.80859375 C-48.90991543363977 56.55883456636023 -46.11792988021605 62.84625961618303 -45.66015625 70.93359375 C-45.84765625 74.62109375000001 -45.84765625 74.62109375000001 -47.3515625 78.2890625 C-47.900146484375 80.40307617187499 -47.900146484375 80.40307617187499 -47.84765625 82.62109375 C-45.74729393498927 86.14268459547493 -42.92620966415012 88.80423371700063 -39.97265625 91.62109375 C-39.20050781250001 92.3958203125 -38.428359375 93.17054687500001 -37.6328125 93.96875 C-35.72533664611805 95.87622585388195 -33.79803135838708 97.75766995624002 -31.84765625 99.62109375 C-30.662975187904863 94.808943956625 -30.546097821482363 90.0140253386127 -30.34765625 85.0859375 C-30.327353515624992 84.62810127258301 -30.327353515624992 84.62810127258301 -30.224609375 82.31117248535156 C-30.051462955975083 78.40520154299978 -29.887282558354457 74.49886722694964 -29.72265625 70.592529296875 C-29.600970773661516 67.7360102732184 -29.47445109632592 64.87973355642694 -29.34765625 62.0234375 C-29.329931640625006 61.5822533416748 -29.329931640625006 61.5822533416748 -29.240234375 59.34959411621094 C-29.203496093750005 58.525163116455076 -29.166757812499995 57.700732116699214 -29.12890625 56.851318359375 C-29.098613281249996 56.12915634155274 -29.068320312500006 55.40699432373046 -29.037109375 54.66294860839844 C-28.84249488517679 52.56546649212166 -28.4110523610386 50.64802602005585 -27.84765625 48.62109375 C-28.528281250000006 48.45609375000001 -29.20890625 48.29109375 -29.91015625 48.12109375 C-35.412581799269134 45.31134453335193 -38.84747469429806 40.48809932064363 -41.72265625 35.12109375 C-44.37208201505982 26.878435814258367 -44.480973796959546 19.40004743282175 -40.84375 11.41796875 C-37.29223863973513 5.276081117066688 -31.887878285448636 -0.3652451712540099 -25.1171875 -2.90234375 C-16.505223758613468 -4.710707909120753 -7.678936319657609 -4.51025710622152 0 0 Z M-32.22265625 11.18359375 C-36.29367012245012 17.290114558675185 -36.604445976609895 22.333488975238147 -35.84765625 29.62109375 C-34.24725330647824 34.984606317478324 -31.616806583285197 38.596754514258166 -26.84765625 41.62109375 C-25.189173346528747 42.307866406062985 -23.523423141361192 42.97764402543727 -21.84765625 43.62109375 C-21.76605758280077 53.43932385905326 -21.973432240106547 63.1853789566038 -22.50390625 72.9921875 C-22.570494384765624 74.28052993774413 -22.637082519531248 75.56887237548828 -22.7056884765625 76.89625549316406 C-22.87983307655537 80.26476264709608 -23.058549986028467 83.63301090882075 -23.23834228515625 87.001220703125 C-23.422167421793958 90.46095141545548 -23.601498905311985 93.92091502906251 -23.78125 97.380859375 C-24.132412162421446 104.12783375686999 -24.488422963985627 110.8745444019778 -24.84765625 117.62109375 C-26.109674499716917 116.3727107514805 -27.36969779561352 115.122310854268 -28.62890625 113.87109375 C-29.33080078124999 113.17500000000001 -30.03269531250001 112.47890625 -30.755859375 111.76171875 C-32.69971522789265 109.77248811062526 -34.53807725993785 107.73226923840582 -36.34765625 105.62109375 C-38.744422129430234 102.83212981757208 -41.22725015779048 100.20118590232937 -43.84765625 97.62109375 C-48.578654401843494 92.95452553407654 -53.15482836050586 88.1603355842412 -56.84765625 82.62109375 C-56.16703125000001 81.50734375 -55.48640625 80.39359375 -54.78515625 79.24609375 C-52.28702436781816 74.16924508621112 -52.28668135080861 70.0218999520151 -53.84765625 64.62109375 C-56.41709956309256 58.978914103724605 -59.756505609571775 54.61918368945027 -65.578125 52.21484375 C-71.72376647376151 50.60703393242383 -77.60780544819582 50.48418819878327 -83.22265625 53.68359375 C-87.84491095156051 57.015033996915264 -91.03405944183069 61.180303325492105 -92.84765625 66.62109375 C-93.59875052580165 73.7564893701157 -91.74808820201824 78.63151223001421 -87.84765625 84.62109375 C-84.96417260087344 88.1787439987815 -82.00478559645734 89.8261125677588 -77.47265625 90.43359375 C-76.87453125 90.46453125 -76.87453125 90.46453125 -73.84765625 90.62109375 C-73.51765625 91.87921875 -73.18765625 93.13734375000001 -72.84765625 94.43359375 C-70.51740652518507 102.18302888136131 -67.17297883299545 109.5259744388513 -63.98779296875 116.9521484375 C-62.081646360258446 121.41424580881255 -60.21348666799041 125.89201753613042 -58.34765625 130.37109375 C-57.95070556640624 131.3232275390625 -57.5537548828125 132.275361328125 -57.144775390625 133.25634765625 C-50.31089762756834 149.683017666521 -43.58975407851483 166.1566043827137 -36.84765625 182.62109375 C-34.3682966105233 182.4781122738584 -31.889207172335432 182.33176182475154 -29.41015625 182.18359375 C-28.72244140625 182.14427734375 -28.034726562499998 182.1049609375 -27.326171875 182.064453125 C-23.755313070742034 181.8485407321844 -20.226521810848 181.55364991069413 -16.67822265625 181.096435546875 C-10.465624435790446 180.3821377006292 -4.242223984533638 180.4586439741715 2.00390625 180.453125 C3.3484195216291255 180.44989855496144 4.692932466954375 180.44653353590937 6.037445068359375 180.4430389404297 C8.853096600400363 180.43707668766905 11.668717610235433 180.43519555051705 14.484375 180.435791015625 C17.321354929316698 180.43587156359155 20.158170938313106 180.42904079012777 22.9951171875 180.415283203125 C40.141347455355856 180.3332225296725 57.09019375531483 180.73255149861285 74.15234375 182.62109375 C79.16482577774357 172.07865871739875 83.65015241947577 161.3509382377865 88.08984375 150.55859375 C89.58624933315355 146.930580623938 91.08418951009367 143.30320164041763 92.58203125 139.67578125 C92.95934890747071 138.76121658325195 93.3366665649414 137.8466519165039 93.72541809082031 136.9043731689453 C96.32997536986795 130.59596247085238 98.9569611554461 124.29726718908759 101.59765625 118.00390625 C102.29826600554176 116.33211579087083 102.99886838119545 114.66032223897494 103.699462890625 112.988525390625 C104.70181585110444 110.59714127711547 105.70529004076488 108.20626082903178 106.71237182617188 105.81686401367188 C107.63425892657622 103.62919308800912 108.551923078746 101.43979531639513 109.46875 99.25 C109.7428872680664 98.60302154541017 110.01702453613282 97.95604309082032 110.29946899414063 97.28945922851563 C112.15234375 92.84855028327704 112.15234375 92.84855028327704 112.15234375 90.62109375 C112.65765625 90.59015625 112.65765625 90.59015625 115.21484375 90.43359375 C120.4822602341487 89.64454755601821 124.20517494640853 87.09514352397508 127.48046875 82.93359375 C130.86058801105224 77.22071612568634 131.15192746982734 71.08796581566553 130.15234375 64.62109375 C127.97701677699979 58.91896006758245 124.51809208670352 55.537261324295386 119.15234375 52.62109375 C113.90958317881763 50.87350689293922 108.0641432168093 50.52978067252357 102.828125 52.4921875 C97.15430914007518 55.7884043329087 93.24684869070981 60.33757892787054 91.15234375 66.62109375 C90.75541629040046 71.68191885989421 91.52173474869187 75.25394328400895 93.49609375 79.82421875 C94.15234375 81.62109375000001 94.15234375 81.62109375000001 94.15234375 84.62109375 C92.21093749999997 86.82031250000001 92.21093749999997 86.82031250000001 89.58984375 89.30859375 C86.4367126074981 92.36415965321211 83.37798439519156 95.40601596387069 80.52734375 98.74609375 C77.5981000710637 102.17158576983843 74.48283334201335 105.33772431331903 71.2421875 108.46875 C68.39937649253093 111.3965796544214 65.78169122663792 114.50185329372647 63.15234375 117.62109375 C62.51697470050976 106.01705377335674 61.889270305060364 94.41262141008852 61.26947021484375 82.8077392578125 C61.166940018440044 80.89359292307604 61.063298557653894 78.97950617869812 60.95947265625 77.0654296875 C60.35740906475411 65.90284526138674 60.01001768387843 54.80159694421769 60.15234375 43.62109375 C61.36921874999999 43.126093749999995 62.58609375 42.63109374999999 63.83984375 42.12109375 C68.67289722955294 39.73027474149775 70.86598748608958 36.39987272220765 73.15234375 31.62109375 C75.16286909502855 25.58951771491438 74.72297980502483 19.329789766987815 72.26953125 13.4765625 C69.55734324590222 8.972054451236197 65.00509796321612 5.553451734001378 60.15234375 3.62109375 C53.016185524085955 2.724354290394402 46.70113357999881 2.7223140035452005 40.80078125 7.12890625 C35.578087949804114 11.856557531219977 32.490906899831316 16.23546225168664 31.77734375 23.37109375 C31.937163697019457 29.398588894733123 34.475948410388696 34.599558193409905 38.27734375 39.18359375 C40.15234375 40.62109375 40.15234375 40.62109375 42.15234375 40.62109375 C42.0355224609375 40.902995605468746 42.0355224609375 40.902995605468746 41.4443359375 42.32958984375 C38.50018285049316 49.54839895845717 35.923563220466434 56.87041667289577 33.40234375 64.24609375 C32.967018033071895 65.51540088912674 32.53163305539695 66.78468770540748 32.09619140625 68.053955078125 C30.77591783325542 71.90774878251838 29.462812589298352 75.76395625593835 28.15234375 79.62109375 C27.742744140625007 80.8265283203125 27.333144531250014 82.031962890625 26.9111328125 83.27392578125 C25.778254444797767 86.61717365109604 24.651159919096756 89.96228998804568 23.52734375 93.30859375 C23.18477539062502 94.3232470703125 22.842207031249984 95.33790039062501 22.4892578125 96.38330078125 C22.179560546874995 97.31126464843749 21.86986328124999 98.239228515625 21.55078125 99.1953125 C21.279272460937506 100.00572998046874 21.00776367187501 100.81614746093749 20.72802734375 101.651123046875 C20.15234375 103.62109375 20.15234375 103.62109375 20.15234375 105.62109375 C19.492343750000003 105.62109375 18.832343750000007 105.62109375 18.15234375 105.62109375 C18.003215332031232 105.02570800781251 17.85408691406252 104.430322265625 17.700439453125 103.81689453125 C15.370130755713205 94.88279837012121 12.361807020748017 86.21311562662382 9.33984375 77.49609375 C8.82586478365539 76.00401199872846 8.31219150017614 74.51182491257116 7.798828125 73.01953125 C5.701175315590348 66.93241066029087 3.5955320437377623 60.84886716857997 1.42822265625 54.7861328125 C1.2889359283447277 54.39559219360352 1.2889359283447277 54.39559219360352 0.5840606689453125 52.419219970703125 C0.04921117923333895 50.92249497290706 -0.488363337277292 49.42674020898741 -1.0290069580078125 47.932098388671875 C-2.84765625 42.84224250229299 -2.84765625 42.84224250229299 -2.84765625 40.62109375 C-2.0845312499999977 40.06421875000001 -1.3214062499999955 39.50734374999999 -0.53515625 38.93359375 C3.72745292183302 35.26576725330648 4.853441686157993 31.964485930521363 5.54296875 26.55859375 C5.886128513018662 19.82018385799688 5.443743151447904 15.32661577431751 0.875 10.20703125 C-5.187133707666888 4.626019265163819 -10.598173108224302 3.2043055009160497 -18.765625 3.2734375 C-24.685764036346455 3.9412351859757067 -28.275907167522902 6.92525921364313 -32.22265625 11.18359375 Z " fill="#484848" transform="translate(131.84765625,35.37890625)"/>
<path d="M0 0 C2.7270255834464194 -0.004364663490491694 5.453731230352787 -0.01820571594819853 8.1806640625 -0.041015625 C66.97678928750591 -0.5224127246306409 66.97678928750591 -0.5224127246306409 79.380126953125 11.666015625 C86.91056064259556 20.80687338661636 84.677001953125 31.803407522875432 84.677001953125 43.240234375 C31.217001953124992 43.240234375 -22.242998046875 43.240234375 -77.322998046875 43.240234375 C-77.322998046875 17.315706073113205 -77.322998046875 17.315706073113205 -70.010498046875 9.865234375 C-64.61360603472369 5.396137357673723 -58.15649907979521 3.7448042155629935 -51.385498046875 2.615234375 C-51.06291015625 2.554648437499992 -51.06291015625 2.554648437499992 -49.430419921875 2.248046875 C-33.19294114790151 -0.5678778134176525 -16.41354930116404 0.022415689116570547 0 0 Z " fill="#F7F7F7" transform="translate(147.322998046875,221.759765625)"/>
<path d="M0 0 C3.219041928852107 2.9264017535018922 4.799981099284196 5.371939180220394 5.3359375 9.734375 C5.420505160198559 16.262998367326816 5.326458658431591 21.82205745666431 1 27 C-2.594701880221521 30.125244545117965 -5.918034987605495 32.883199718799744 -10.78515625 33.15625 C-11.516054687500002 33.1046875 -12.246953125000005 33.053124999999994 -13 33 C-13.176954040527335 33.55216186523438 -13.35390808105467 34.10432373046875 -13.536224365234375 34.6732177734375 C-15.27996480604179 40.02109504059641 -17.23711544749716 45.221302914311934 -19.4140625 50.40625 C-19.741303100585924 51.19326293945312 -20.068543701171876 51.98027587890624 -20.40570068359375 52.7911376953125 C-21.475555112442805 55.36212515140227 -22.549957303782264 57.931178070070416 -23.625 60.5 C-25.151974443321564 64.15586100259975 -26.677664891236077 67.81225690177092 -28.203125 71.46875 C-28.398976898193354 71.93772705078123 -28.398976898193354 71.93772705078123 -29.390106201171875 74.31103515625 C-31.8244910315359 80.14924187011545 -34.229472628033704 85.99859611889192 -36.609893798828125 91.8590087890625 C-38.154020479264375 95.66051012372904 -39.70587538109123 99.45883672519469 -41.25799560546875 103.257080078125 C-42.00176800145371 105.0834901909912 -42.741730013637834 106.91145671882492 -43.47784423828125 108.740966796875 C-44.5039838437165 111.28980462491677 -45.54341485160066 113.83282838159136 -46.5859375 116.375 C-46.88836364746095 117.13655395507811 -47.19078979492187 117.89810791015626 -47.50238037109375 118.6827392578125 C-48.25195999185246 120.49180713137474 -49.11644150046203 122.25245298864206 -50 124 C-53.99553043025668 125.33184347675223 -57.46228625649826 124.60995888167145 -61.5625 124.125 C-71.8023133004807 123.01592765745227 -82.02384431068265 122.64310916577227 -92.3125 122.375 C-92.70063369750977 122.36485870361327 -92.70063369750977 122.36485870361327 -94.66482543945313 122.31353759765625 C-99.10968960372432 122.19964056138332 -103.55470329077474 122.09576521503368 -108 122 C-108 121.67000000000002 -108 121.34 -108 121 C-107.66548828124999 120.98001953125001 -107.66548828124999 120.98001953125001 -105.97265625 120.87890625 C-85.38106607541064 118.64008906323255 -68.65269522864332 103.33600675546086 -56 88 C-44.219411100105845 73.29253150092472 -34.264292524360286 57.54944715343288 -25.05859375 41.130126953125 C-17.67906557775831 27.977781404339737 -17.67906557775831 27.977781404339737 -12.5625 24.75 C-11.8212890625 24.270468749999992 -11.080078125 23.7909375 -10.31640625 23.296875 C-8.000000000000028 22.000000000000014 -8.000000000000028 22.000000000000014 -5.29296875 20.984375 C-3 20 -3 20 -1.75 17.5 C-1.6262499999999989 17.087500000000006 -1.6262499999999989 17.087500000000006 -1 15 C-0.6700000000000159 14.340000000000003 -0.34000000000003183 13.680000000000007 0 13 C0.07092841581760467 10.792707699755539 0.08415024975943197 8.583325475461947 0.0625 6.375 C0.053476562500009095 5.186484375000006 0.04445312500001819 3.9979687499999983 0.03515625 2.7734375 C0.023554687499995453 1.8582031250000028 0.011953124999990905 0.9429687500000057 0 0 Z " fill="#D2D2D2" transform="translate(257,93)"/>
<path d="M0 0 C2.727025583446448 -0.004364663490491694 5.45373123035273 -0.01820571594819853 8.1806640625 -0.041015625 C64.37769937173465 -0.5011325068893768 64.37769937173465 -0.5011325068893768 77.989501953125 10.302734375 C80.677001953125 13.240234375 80.677001953125 13.240234375 80.677001953125 16.240234375 C80.04423339843751 16.12429931640625 79.41146484375 16.008364257812502 78.759521484375 15.888916015625 C75.7755955500283 15.348959803414147 72.78891632525759 14.825896952906874 69.802001953125 14.302734375 C68.808134765625 14.120332031250001 67.814267578125 13.937929687500002 66.790283203125 13.75 C57.43982736398627 12.132782795117521 48.140857070606245 11.62371344398315 38.677001953125 11.240234375 C37.95631530761719 11.209347229003896 37.23562866210938 11.17846008300782 36.49310302734375 11.146636962890625 C-0.23544455882739612 9.588637191557012 -38.40969042750825 8.347967510109868 -74.322998046875 17.240234375 C-72.16228681421183 11.174012228837654 -68.7764309191046 8.422180138263883 -63.112060546875 5.693359375 C-59.30682182654374 4.121989575763337 -55.43486967203799 3.290769357017723 -51.385498046875 2.615234375 C-51.06291015625 2.554648437499992 -51.06291015625 2.554648437499992 -49.430419921875 2.248046875 C-33.19294114790151 -0.5678778134176525 -16.41354930116404 0.022415689116570547 0 0 Z " fill="#FDFDFD" transform="translate(147.322998046875,221.759765625)"/>
<path d="M0 0 C4.9342222329804315 3.200576583554877 6.7043091296421835 6.43149648846223 8 12 C9.187200309348611 19.240617271302 7.131909848123058 25.01733886573848 3 31 C0.31370380124732833 33.55198138881505 -2.480044866260073 34.826681622086696 -6 36 C-6.112501188878156 44.8375933929843 -5.971490509683861 53.61204018471476 -5.5 62.4375 C-5.009365846107215 71.63478285046466 -4.891382504958926 80.79165014262821 -5 90 C-6.659788643747987 87.03383231342536 -7.371206259528066 84.53930858225176 -7.793701171875 81.1748046875 C-7.916902313232413 80.21991149902344 -8.040103454589854 79.26501831054688 -8.167037963867188 78.28118896484375 C-8.29109512329103 77.25511535644532 -8.415152282714843 76.22904174804688 -8.54296875 75.171875 C-8.675686798095711 74.10890197753906 -8.808404846191394 73.04592895507813 -8.945144653320313 71.95074462890625 C-9.223604425563451 69.70183594165948 -9.498223470769261 67.45244885138631 -9.769287109375 65.20263671875 C-10.1844334030134 61.77531687950054 -10.617788938192007 58.35063772634976 -11.052734375 54.92578125 C-11.321423883038506 52.73711531814725 -11.589036931283403 50.548316913107385 -11.85546875 48.359375 C-11.985598602294914 47.341398315429686 -12.115728454589856 46.32342163085937 -12.249801635742188 45.27459716796875 C-13.933077248243023 30.95680637661414 -13.933077248243023 30.95680637661414 -9.875 25.125 C-9.435429687500005 24.463710937499997 -8.995859375000009 23.802421874999993 -8.54296875 23.12109375 C-7.43959574798626 21.60430504090263 -6.290632695235388 20.12026704854243 -5.11328125 18.66015625 C-0.19650938044716781 12.347140847511284 0.9534367845740235 7.960440455332268 0 0 Z " fill="#D0D0D0" transform="translate(198,43)"/>
<path d="M0 0 C4.799575463837243 3.7330031385400915 8.52917247506079 6.687240567770054 9.43359375 13.05078125 C9.441607849465925 19.742554304039643 9.318759714959242 25.588220851007847 5 31 C3.6789023506799765 32.01610962929148 2.346604526172257 33.017943979260764 1 34 C2.9813478449609647 40.730847428087614 5.084134480406107 47.40954332852013 7.3125 54.0625 C7.611562499999991 54.96137939453125 7.91062500000001 55.8602587890625 8.21875 56.786376953125 C9.705694703020328 61.23270237178207 11.225382155359341 65.66289628301229 12.82421875 70.0703125 C13.106765136718764 70.85140380859374 13.389311523437499 71.6324951171875 13.680419921875 72.437255859375 C14.216591948520659 73.90937309785969 14.7594661850585 75.37907085984389 15.309814453125 76.845947265625 C15.929263683724002 78.54455881064824 16.472468699942652 80.270633278441 17 82 C16.670000000000016 82.66 16.340000000000003 83.32 16 84 C11.827957317678397 75.81569499340317 7.958384995166455 67.52565455030295 4.3046875 59.09765625 C3.703204221681915 57.710903136099944 3.1016407180093495 56.324184816186076 2.5 54.9375 C2.202871093749991 54.2518798828125 1.9057421875000102 53.566259765625006 1.599609375 52.85986328125 C-0.4542944905660846 48.155069206774726 -2.6569914616452337 43.556956569334176 -5.0546875 39.015625 C-7.084996870531455 34.686535598370966 -7.412314887782301 30.779798513920696 -7 26 C-5.720552213515745 23.61748344354902 -4.452660937808702 21.52369592473339 -2.9375 19.3125 C0.8413620992421045 13.369000113926283 1.6889535787771877 9.247956572994667 0.5 2.1328125 C0.33500000000000796 1.4289843749999989 0.1699999999999875 0.7251562499999977 0 0 Z " fill="#CFCFCF" transform="translate(128,42)"/>
<path d="M0 0 C4.591352264254056 2.5465281598097818 7.113141589930237 5.070119938396175 9 10 C10.895482820518268 17.35107119495865 9.677873039688208 22.465066787850134 6 29 C6.496289062499997 29.484687500000007 6.992578124999994 29.969375 7.50390625 30.46875 C11.586689274514796 34.49730250995768 15.45472609526513 38.6193578568444 19.19140625 42.96875 C22.305046445637473 46.46571091086713 25.651398349577917 49.72967734919817 29 53 C28.67 53.66 28.340000000000003 54.31999999999999 28 55 C27.68546875 54.67966796874998 27.68546875 54.67966796874998 26.09375 53.05859375 C20.898428516247733 47.808502310846734 15.603768179567112 42.80622813902946 10 38 C8.201413949501102 36.44546987375759 6.409963022764359 34.882653719165205 4.625 33.3125 C3.792265624999999 32.5867578125 2.9595312499999977 31.861015624999993 2.1015625 31.11328125 C-1.0038405374136374 27.990561838771796 -1.9249165789858296 26.013626183691258 -2.25 21.625 C-2 18 -2 18 -1 15.3125 C0.524814092089116 10.2615533199548 0.15257445751984733 5.2383897081814865 0 0 Z " fill="#CECECE" transform="translate(69,90)"/>
<path d="M0 0 C0.9900000000000091 0.3299999999999983 1.9799999999999898 0.6599999999999966 3 1 C3.94921875 3.50390625 3.94921875 3.50390625 4.6875 6.5625 C4.813183593750011 7.068457031250006 4.813183593750011 7.068457031250006 5.44921875 9.62890625 C5.6309765624999955 10.411367187500005 5.812734374999991 11.193828124999996 6 12 C3.3228980892141067 10.661449044607053 3.0487090579469225 9.27941911561787 1.875 6.5625 C1.5217968750000068 5.759414062499999 1.1685937500000136 4.956328124999999 0.8046875 4.12890625 C0 2 0 2 0 0 Z " fill="#C2C2C2" transform="translate(139,114)"/>
</svg>
