<?xml version="1.0" encoding="UTF-8"?>
<!-- Generator: visioncortex VTracer 0.6.12 -->
<svg version="1.1" xmlns="http://www.w3.org/2000/svg" width="300" height="300">
<path d="M0 0 C1.0157812500000034 -0.007734374999998295 2.031562500000007 -0.01546874999999659 3.078125 -0.0234375 C9.611359839146758 -0.006685615797060507 15.651174077988912 0.708443263405492 22 2.25 C22.509104223517284 5.748737536086772 23.005606001728268 9.24915601223801 23.5 12.75 C23.643085937500018 13.732265624999997 23.78617187499998 14.71453125 23.93359375 15.7265625 C24.71357982744223 21.29789162458742 25.160716004366094 26.62493984718671 25 32.25 C26.319999999999993 32.08500000000001 26.319999999999993 32.08500000000001 33 31.25 C34.98000000000002 22.67 36.95999999999998 14.090000000000003 39 5.25 C52.64426877470356 5.25 52.64426877470356 5.25 59.1875 6.9375 C59.823652343749984 7.094121093749997 59.823652343749984 7.094121093749997 63.04296875 7.88671875 C67.72308105721922 9.299017805595454 71.8234990452176 11.753970390620758 76 14.25 C75.64233861529584 19.622204335738772 75.2694477928695 24.99306667308028 74.883056640625 30.36328125 C74.75397344757198 32.18623890270371 74.62889052344863 34.009484780827094 74.508056640625 35.8330078125 C72.74009751107982 62.403323619491616 72.74009751107982 62.403323619491616 64 72.25 C56.65154639175256 78.25 56.65154639175256 78.25 53 78.25 C53.08451416015626 78.84981689453124 53.16902832031249 79.44963378906249 53.256103515625 80.067626953125 C55.91714081964744 99.13055234192751 58.23536348170768 118.23385719433261 60.5084342956543 137.3461570739746 C60.75023588958413 139.3769811707767 60.99294692564092 141.40769482558667 61.235870361328125 143.43838500976563 C61.69688596235656 147.29448587256232 62.15347923947317 151.1511027874471 62.609375 155.0078125 C62.74981735229491 156.18269729614258 62.89025970458985 157.35758209228516 63.03495788574219 158.5680694580078 C63.16231826782226 159.65307235717773 63.289678649902356 160.73807525634766 63.4208984375 161.85595703125 C63.53318786621094 162.80471710205077 63.645477294921875 163.75347717285158 63.76116943359375 164.73098754882813 C64 167.25000000000006 64 167.25000000000006 64 171.25 C64.804375 171.29125 65.60874999999999 171.3325 66.4375 171.375 C73.74288625929711 173.16930539702034 79.88066243101534 178.01214596696607 84 184.25 C88 195.25000000000003 88 195.25000000000003 88 223.25 C29.919999999999987 223.25 -28.16000000000001 223.25 -88 223.25 C-88 187.3701298701299 -88 187.3701298701299 -79.0703125 177.9765625 C-74.79193144937013 174.4085541521162 -69.65981316241093 171.25 -64 171.25 C-63.90275634765625 170.14084228515625 -63.8055126953125 169.0316845703125 -63.705322265625 167.888916015625 C-62.256082674859044 151.8368642733405 -60.37895914173839 135.83709038219698 -58.486083984375 119.832763671875 C-58.02319490972337 115.91849600937923 -57.56486123994269 112.00370946072454 -57.1077184677124 108.08876705169678 C-56.75184660820989 105.04568084492553 -56.39352202758144 102.0028873142829 -56.03445625305176 98.96017646789551 C-55.864231367704235 97.5150019052964 -55.6947904035428 96.06973477161972 -55.526166915893555 94.6243724822998 C-55.29201494398416 92.62029842407867 -55.05417318809987 90.61665651015656 -54.816162109375 88.613037109375 C-54.68229598999024 87.47724716186525 -54.548429870605474 86.34145721435547 -54.41050720214844 85.17124938964844 C-54.07629049539787 82.79289805867131 -53.64691973876367 80.55866252668935 -53 78.25 C-53.845625 78.04375 -54.69125 77.8375 -55.5625 77.625 C-63.33670329366868 74.51531868253252 -67.32450762158051 69.26151525279572 -70.78515625 61.734375 C-73.11095264447964 55.063602061492475 -73.50681314399169 48.23887906504231 -74 41.25 C-74.18393296029592 38.88534157316991 -74.36890427464739 36.52076377721497 -74.5546875 34.15625 C-75.066717397608 27.522859284124095 -75.54366241745315 20.88743747476107 -76 14.25 C-63.28041465640892 7.633638675185814 -63.28041465640892 7.633638675185814 -57.5 6.375 C-56.5409375 6.150703125 -55.581875 5.926406249999999 -54.59375 5.6953125 C-49.43318218766841 5.055850836298042 -44.20003570805214 5.25 -39 5.25 C-38.010000000000005 9.54 -38.010000000000005 9.54 -33 31.25 C-30.36 31.58 -27.72 31.909999999999997 -25 32.25 C-24.951015624999997 31.257421875000006 -24.902031249999993 30.264843749999997 -24.8515625 29.2421875 C-24.363953482770015 20.143155492567445 -23.44910351817181 11.25413836533943 -22 2.25 C-14.601336622943194 0.45353250966375214 -7.598447405936099 -0.05785619852235868 0 0 Z " fill="#484848" transform="translate(150,48.75)"/>
<path d="M0 0 C17.00119836162412 -0.46286406524308177 34.27033034832067 1.6958106992909023 51.06640625 4.16015625 C53.59349510186982 22.081163368286866 55.81064414021159 40.03514852322823 57.90545654296875 58.0113525390625 C58.17868492980955 60.35422610001115 58.45345691841243 62.696920176802024 58.72979736328125 65.0394287109375 C59.12291658208932 68.37860454120451 59.509653134033556 71.71845915592468 59.89453125 75.05859375 C60.01309478759765 76.05968170166017 60.1316583251953 77.0607696533203 60.253814697265625 78.09219360351563 C60.867263111254175 83.4902979275663 61.186760895386726 88.72734755724389 61.06640625 94.16015625 C60.34952636718748 94.09957031250002 59.632646484375016 94.03898437499998 58.89404296875 93.9765625 C39.32845313510421 92.39844760725984 19.818062535755132 91.93968970108918 0.19140625 91.91015625 C-0.9605523681640591 91.90516113281251 -2.112510986328118 91.90016601562502 -3.29937744140625 91.89501953125 C-16.01127469536118 91.84979996895714 -28.49047110316181 92.13034398673508 -41.10986328125 93.7314453125 C-44.43118069600439 94.10382645030543 -47.59704737675557 94.24276675167593 -50.93359375 94.16015625 C-51.06563917043407 87.31316104909186 -50.56818641477774 80.7216738931046 -49.76171875 73.92578125 C-49.63920745849609 72.86125732421874 -49.51669616699219 71.79673339843748 -49.390472412109375 70.699951171875 C-48.99372390247564 67.26934809337155 -48.589049714293125 63.839740214912666 -48.18359375 60.41015625 C-47.90925801111311 58.059580165582275 -47.63500693568291 55.7089941985717 -47.36083984375 53.3583984375 C-45.43262376659625 36.92772243031405 -43.35668650669915 20.5258204343846 -40.93359375 4.16015625 C-27.253344772090898 2.0390791403854394 -13.838628511910315 0.5634396911502648 0 0 Z " fill="#F7F7F7" transform="translate(144.93359375,123.83984375)"/>
<path d="M0 0 C0.7092537689208882 -0.0028273773193348006 1.4185075378418048 -0.005654754638669601 2.1492538452148438 -0.00856781005859375 C5.911680623925122 -0.023451642663872008 9.674070213008378 -0.032746035637643445 13.4365234375 -0.037109375 C16.488730056988743 -0.0414687475521589 19.540649977853377 -0.05527681167112064 22.5927734375 -0.078125 C81.9220689814216 -0.5132321664092672 81.9220689814216 -0.5132321664092672 94.46484375 11.6328125 C101.99474810702299 20.5097085455227 99.796875 32.254597040271676 99.796875 43.203125 C46.33687499999999 43.203125 -7.123125000000002 43.203125 -62.203125 43.203125 C-62.203125 18.745982142857144 -62.203125 18.745982142857144 -56.203125 11.203125 C-50.39930274719006 5.713022868963577 -43.67943908555549 3.8235832447440146 -36.015625 2.578125 C-35.336933593750004 2.4569531250000125 -34.65824218750001 2.3357812499999966 -33.958984375 2.2109375 C-22.70306295404805 0.2950359815400816 -11.393687900786333 0.031299613721131436 0 0 Z " fill="#F8F8F8" transform="translate(131.203125,221.796875)"/>
<path d="M0 0 C0.9029882812500034 -0.0012890624999997158 1.8059765625000068 -0.0025781249999994316 2.736328125 -0.00390625 C3.204580078124991 -0.0019726562499968736 3.204580078124991 -0.0019726562499968736 5.57421875 0.0078125 C6.499121093750006 0.003945312500000853 7.424023437500011 0.0000781250000017053 8.376953125 -0.00390625 C13.446814493096639 0.0033003759674414823 18.26545096098687 0.26449561528875165 23.26171875 1.1328125 C23.767622421651367 5.17376292693173 24.265394373449226 9.21567523511807 24.76171875 13.2578125 C24.904804687500018 14.399921875000004 25.04789062499998 15.542031250000008 25.1953125 16.71875 C25.330664062500006 17.827343749999997 25.46601562500001 18.935937499999994 25.60546875 20.078125 C25.668310546875006 20.586096191406256 25.668310546875006 20.586096191406256 25.986328125 23.15673828125 C26.262146646433962 26.137436664477065 26.26171875 29.13937990370883 26.26171875 32.1328125 C29.56171875000001 31.967812500000008 29.56171875000001 31.967812500000008 46.26171875 31.1328125 C46.436386718749986 30.278164062499997 46.436386718749986 30.278164062499997 47.3203125 25.953125 C47.77980096053972 23.721323905950044 48.23944438939537 21.489554713182855 48.69921875 19.2578125 C48.929316406249995 18.1298828125 49.15941406249999 17.001953125 49.396484375 15.83984375 C49.61884765625001 14.763476562500003 49.841210937499994 13.687109375000006 50.0703125 12.578125 C50.27454833984376 11.5831298828125 50.478784179687494 10.588134765625 50.689208984375 9.56298828125 C51.26171875 7.1328125 51.26171875 7.1328125 52.26171875 5.1328125 C69.86670095640571 5.737794706405694 69.86670095640571 5.737794706405694 75.26171875 11.1328125 C75.19488668441383 13.833435513913386 75.06583028265268 16.501475048903814 74.88671875 19.1953125 C74.78245756164077 20.842441936287273 74.6782928169527 22.48957747983826 74.57421875 24.13671875 C74.5471484375 24.554455566406247 74.5471484375 24.554455566406247 74.41015625 26.66845703125 C74.27230170262567 28.95711459900764 74.16600090820808 31.24425272154471 74.07421875 33.53515625 C73.56313150476282 45.422822148098675 72.60953085953471 54.28756301116461 63.60546875 62.67578125 C56.88731641893145 67.64774716168367 49.6472450605695 65.9640944399756 41.8828125 64.84375 C41.18599365234377 64.7333740234375 40.48917480468748 64.622998046875 39.771240234375 64.50927734375 C33.37639784673328 63.549957666569 27.218030422510765 62.975278297898086 20.7578125 62.96484375 C20.361458511352538 62.96281700134277 20.361458511352538 62.96281700134277 18.355667114257813 62.95256042480469 C15.803475864805876 62.94316436448672 13.2514248674388 62.94315783042006 10.69921875 62.9453125 C10.264220581054701 62.94494995117188 10.264220581054701 62.94494995117188 8.0628662109375 62.943115234375 C-4.037265725416603 62.94423009427608 -15.969381604545049 63.33827151427394 -28.00390625 64.6953125 C-43.84243287657179 66.34022373381079 -43.84243287657179 66.34022373381079 -50.79296875 61.12109375 C-57.802420042385265 53.95681522023273 -58.99421448168219 44.701277983745655 -59.80078125 35.1953125 C-59.8902099609375 34.15947021484375 -59.979638671874994 33.1236279296875 -60.07177734375 32.056396484375 C-60.64835357211312 25.058957552916553 -61.01011658229628 18.155225250987286 -60.73828125 11.1328125 C-53.267291708949855 7.0577272957908335 -46.35580690792358 4.690888107285971 -37.73828125 5.1328125 C-35.21912247002844 13.726538550824984 -33.4311547619655 22.34599284265525 -31.73828125 31.1328125 C-25.138281250000006 31.4628125 -18.538281249999997 31.792812499999997 -11.73828125 32.1328125 C-11.676406250000014 31.245937499999997 -11.676406250000014 31.245937499999997 -11.36328125 26.7578125 C-10.710170876986638 18.191654709027603 -9.724720344745577 9.665989523478785 -8.73828125 1.1328125 C-5.757216527466255 0.2725367654846025 -3.098631214165664 0.004292157613370762 0 0 Z " fill="#F6F6F6" transform="translate(142.73828125,55.8671875)"/>
<path d="M0 0 C2.52708885186982 17.921007118286866 4.744237890211593 35.87499227322823 6.83905029296875 53.8511962890625 C7.112278679809549 56.19406985001115 7.387050668412428 58.536763926802024 7.66339111328125 60.8792724609375 C8.056510332089317 64.21844829120451 8.443246884033556 67.55830290592468 8.828125 70.8984375 C8.946688537597652 71.89952545166017 9.065252075195303 72.9006134033203 9.187408447265625 73.93203735351563 C9.800856861254175 79.3301416775663 10.120354645386726 84.56719130724389 10 90 C7.562126151505993 89.85906510346962 5.1248214734883675 89.7124545810135 2.6875 89.5625 C1.9972070312500136 89.52318359374999 1.3069140624999989 89.48386718749998 0.595703125 89.443359375 C-2.4716153450608545 89.25072584789473 -5.069681517162849 88.9767728276124 -8 88 C-8.121171875000016 86.76765625000002 -8.242343750000003 85.5353125 -8.3671875 84.265625 C-10.435268759009972 63.60574440644902 -13.433743219504606 43.28393138036989 -23.484375 24.8125 C-25 21.99999999999997 -25 21.99999999999997 -25.953125 19.25 C-27.243608928004733 16.47642260249731 -28.248383112067813 16.17265168308137 -31 15 C-32.17194918622593 13.944973818432345 -33.31625312344681 12.85876083115727 -34.4375 11.75 C-44.306259283416466 2.9451590036432833 -58.07042016863156 -0.7802283177954337 -71 -2 C-71 -2.3299999999999983 -71 -2.6599999999999966 -71 -3 C-47.03519134106 -4.828377772344197 -23.79697495370499 -3.4915280027780398 0 0 Z " fill="#D1D1D1" transform="translate(196,128)"/>
<path d="M0 0 C3.4031273843941108 1.0587507418114939 6.013532313386889 2.0090215422579263 9 4 C9.085792497897074 6.800512252782937 8.99622689778704 9.349351334037209 8.75 12.125 C8.62731452039526 13.762999164696225 8.504924601030808 15.40102049039426 8.3828125 17.0390625 C8.316103515625002 17.868251953124997 8.249394531250005 18.697441406249993 8.1806640625 19.5517578125 C8.012214208242455 21.8344809726279 7.895250388488307 24.11146432748535 7.8046875 26.3984375 C7.313556250994395 38.28604614070376 6.344584005904238 47.157757824688275 -2.65625 55.54296875 C-9.545187180263582 60.641329004441104 -17.200622511259752 58.75690149743957 -25.16015625 57.61328125 C-26.427304687499998 57.41089843750001 -27.694453124999995 57.20851562499999 -29 57 C-29 56.67 -29 56.34 -29 56 C-28.030624999999986 55.979375000000005 -27.06125 55.95875000000001 -26.0625 55.9375 C-19.89361149367022 55.01154107612899 -15.140383996050787 50.866783746005865 -11.4921875 45.98046875 C-3.924437720124672 32.39183628362008 -2.0888491240136204 15.165384290603015 0 0 Z " fill="#D1D1D1" transform="translate(209,63)"/>
</svg>
